<svg version="1.1" id="Layer_1" xmlns="http://www.w3.org/2000/svg" xmlns:xlink="http://www.w3.org/1999/xlink" x="0px" y="0px"
	 width="100%" viewBox="0 0 256 240" enable-background="new 0 0 256 240" xml:space="preserve">
<path fill="#000000" opacity="1.000000" stroke="none" 
	d="
M175.321777,123.180435 
	C172.609390,120.753998 171.519119,123.279526 170.259583,124.515953 
	C164.080246,130.581909 158.241028,136.994675 151.419052,142.393661 
	C147.987854,145.109146 144.286728,147.340408 140.255280,148.952438 
	C135.291794,150.937164 130.466827,151.018494 126.394623,146.849823 
	C122.307007,142.665375 121.238686,136.542419 123.872330,131.124237 
	C127.177818,124.323860 132.932587,119.653099 138.715668,115.160217 
	C143.941498,111.100243 149.507126,107.477638 155.344559,103.365120 
	C150.530396,100.098305 145.507431,98.155022 141.567688,94.558075 
	C136.596710,90.019608 136.696442,88.859268 142.379745,85.643082 
	C150.120010,81.262848 158.557983,78.649712 166.891373,75.743309 
	C172.682175,73.723679 177.726135,70.302956 183.019974,67.312843 
	C190.852783,62.888653 198.288483,57.133533 207.494263,55.269108 
	C215.088776,53.731007 219.977005,58.050453 219.025009,65.805954 
	C218.156540,72.880791 215.442657,79.315338 211.512222,85.204788 
	C205.515182,94.190834 201.665955,103.816719 199.943939,114.636559 
	C197.373734,130.785843 189.135315,133.474487 175.321777,123.180435 
M159.799469,106.794128 
	C168.883255,105.467957 177.967041,104.141785 188.471878,102.608147 
	C178.898956,99.577217 170.417572,101.118011 161.208374,99.555283 
	C163.353851,103.528717 160.699387,105.044319 158.369400,107.268494 
	C156.853043,107.989151 155.331161,108.703583 154.333176,110.442764 
	C156.956223,110.442764 159.153748,110.442764 161.538162,110.442764 
	C160.902222,108.873512 157.676041,109.674866 159.799469,106.794128 
M187.566284,91.498268 
	C188.623276,91.242416 189.680252,90.986557 191.307724,90.592613 
	C179.374542,89.334419 167.880356,91.335472 156.676773,88.349060 
	C168.082031,83.112892 180.411041,83.220573 192.279266,80.755829 
	C181.420593,78.960945 170.635208,79.406563 159.973923,81.787163 
	C156.440247,82.576210 153.107010,84.329056 150.139481,86.510361 
	C148.698700,87.569405 147.131104,88.782295 148.099136,91.042519 
	C149.188263,93.585373 156.292175,97.651802 158.967117,96.820274 
	C168.062134,93.992981 177.504379,93.153831 187.566284,91.498268 
M192.121048,109.190201 
	C192.301056,107.663986 193.643677,106.154686 192.194550,104.497009 
	C185.222412,105.485497 178.271912,106.470917 171.321396,107.456337 
	C171.325043,107.608337 171.328690,107.760330 171.332321,107.912331 
	C177.190857,108.317261 183.049377,108.722183 188.907898,109.127113 
	C188.922089,109.715508 188.936264,110.303902 188.950455,110.892296 
	C182.447083,112.010086 175.664337,110.913879 169.407593,114.402451 
	C163.673401,117.599655 156.302902,117.052589 150.483459,120.888893 
	C156.805725,121.215401 163.116898,123.945229 168.945450,118.326653 
	C173.560974,113.877411 175.540359,114.485214 180.402725,119.022377 
	C182.642761,121.112587 184.592056,123.688782 187.962250,124.491631 
	C190.901047,119.848228 190.942856,114.766075 192.121048,109.190201 
M181.295654,86.839409 
	C187.263855,87.154945 193.231689,87.477325 199.200470,87.781631 
	C200.872040,87.866859 202.686295,88.027481 203.721100,86.385193 
	C206.345245,82.220535 209.098099,78.070961 209.007584,72.490784 
	C202.406174,71.428711 195.968124,72.543152 189.183319,72.803436 
	C190.488922,70.298370 192.523026,71.384766 193.779419,70.456238 
	C187.028183,68.634346 183.840851,76.084526 177.746490,76.206253 
	C187.112793,77.143661 196.442841,76.928894 206.593369,80.555641 
	C196.780502,85.024429 187.163025,83.601166 177.250839,86.841484 
	C179.248077,86.841484 179.910522,86.841484 181.295654,86.839409 
M132.372757,137.535400 
	C130.348602,140.648636 132.753067,141.283676 134.898560,141.762100 
	C140.338058,142.975052 149.903580,138.088684 152.841217,132.447235 
	C146.067352,134.141403 139.329010,134.722839 132.372757,137.535400 
M196.005493,92.323189 
	C189.050140,93.892982 182.094788,95.462776 175.139450,97.032570 
	C179.720688,98.015053 184.161911,98.379173 188.581116,98.922234 
	C196.212418,99.860001 196.400574,99.785446 199.171677,92.072449 
	C198.265823,92.136139 197.476822,92.191612 196.005493,92.323189 
M159.883469,124.469009 
	C153.782120,124.961365 147.578079,124.957077 141.436417,127.624771 
	C147.241241,132.787704 156.931488,130.976624 159.883469,124.469009 
M200.889114,62.380077 
	C199.335251,63.867893 196.618195,64.162132 195.903702,67.253395 
	C199.938858,67.695366 203.661819,68.134392 207.392609,68.491837 
	C208.447678,68.592918 209.445511,68.250336 209.494629,66.954956 
	C209.542480,65.692543 208.562317,65.389130 207.549469,65.124771 
	C206.082504,64.741882 204.203217,65.263512 203.331604,63.354790 
	C204.992691,61.881512 207.391174,63.550404 209.398087,61.413700 
	C206.353973,57.929745 203.944748,60.977436 200.889114,62.380077 
M139.912430,120.298233 
	C138.339508,121.628029 136.464981,122.725090 136.037079,125.490852 
	C139.138794,124.919296 142.080582,124.850716 145.006851,123.028557 
	C143.206436,121.912659 141.835175,121.062737 139.912430,120.298233 
M150.748505,114.276077 
	C147.427368,113.737801 145.299347,115.551308 142.387878,118.617462 
	C146.707962,117.144028 149.846252,116.073662 154.180862,114.595276 
	C152.317368,114.408524 151.828476,114.359535 150.748505,114.276077 
M137.677704,132.824219 
	C137.951416,132.649139 138.245010,132.496674 138.486404,132.284775 
	C138.556213,132.223495 138.508179,131.867859 138.460068,131.855362 
	C135.869858,131.182510 133.133438,130.168900 132.406235,134.426498 
	C133.976837,133.960312 135.547455,133.494110 137.677704,132.824219 
z"/>
<path fill="#000000" opacity="1.000000" stroke="none" 
	d="
M114.975555,41.178776 
	C123.155991,35.813320 125.781662,27.894209 122.456886,19.391006 
	C121.738884,17.554695 120.301109,15.521797 123.049545,14.313690 
	C125.782974,13.112176 127.343933,14.790462 128.527847,17.122446 
	C132.838684,25.613592 130.135605,36.681198 122.242401,42.059666 
	C116.085403,46.255074 109.457237,48.031742 101.886681,46.472408 
	C95.256638,45.106796 88.553764,43.457050 81.659645,45.252411 
	C77.925240,46.224926 75.405655,48.375584 74.507927,52.106136 
	C73.890251,54.672920 74.398651,56.555332 77.732925,56.915344 
	C94.614914,58.738117 98.288963,63.955685 98.717758,84.170532 
	C99.092484,101.836838 94.172401,118.755966 83.599823,133.505356 
	C80.178581,138.278198 76.316544,142.603058 71.199997,145.640671 
	C58.932671,152.923599 45.310856,149.308487 38.241295,136.894638 
	C34.047287,129.530121 31.811378,121.523911 31.225605,113.151962 
	C30.272490,99.529938 29.613153,85.850273 34.349236,72.676033 
	C38.977608,59.801418 49.116604,53.480766 62.701126,55.117729 
	C65.910606,55.504478 67.302338,55.110268 68.344482,51.720066 
	C70.779205,43.799641 80.941170,38.340351 90.646530,39.453259 
	C95.090500,39.962849 99.515678,40.859409 103.861259,41.936096 
	C107.585945,42.858936 111.102646,42.639034 114.975555,41.178776 
M81.221146,126.759071 
	C86.784866,118.041069 89.598282,108.324615 91.552582,98.296555 
	C92.226570,94.838127 91.386856,92.879799 87.272568,93.149498 
	C83.297760,93.410034 79.308037,93.179604 75.308723,92.739830 
	C64.524841,91.553993 54.026093,88.959587 43.466312,86.665352 
	C40.217831,85.959579 37.096935,86.187744 37.649040,90.164368 
	C38.487633,96.204506 36.745583,102.048927 37.300262,108.024384 
	C38.357681,119.415642 40.050667,130.548019 47.695507,139.741943 
	C53.582077,146.821320 61.001461,147.699615 68.398087,142.192215 
	C73.702179,138.242889 77.669533,133.140076 81.221146,126.759071 
M41.913292,71.404144 
	C41.467300,72.651611 41.120186,73.945732 40.557453,75.138107 
	C38.582401,79.323044 39.654125,81.513977 44.432285,82.229149 
	C49.164581,82.937469 53.807888,84.240204 58.490303,85.281883 
	C60.350224,85.695656 62.260662,86.123100 62.689262,83.418846 
	C63.925278,75.620239 65.119659,67.815025 66.319427,60.083103 
	C54.855759,57.099770 46.628242,60.860722 41.913292,71.404144 
M72.317581,78.614647 
	C71.210403,88.596481 71.239456,88.628838 81.389702,88.717903 
	C81.555733,88.719360 81.721756,88.720467 81.887787,88.721550 
	C93.264008,88.795624 94.775482,86.905495 92.383667,75.596245 
	C90.455322,66.478409 86.479118,62.245293 79.118553,60.775467 
	C75.715164,60.095844 74.631287,61.344601 74.289444,64.463501 
	C73.802582,68.905525 73.023712,73.315552 72.317581,78.614647 
M68.251411,74.524025 
	C67.752083,78.133797 67.252754,81.743576 66.753418,85.353348 
	C66.981888,85.381050 67.210358,85.408745 67.438835,85.436447 
	C68.557678,77.655151 69.676521,69.873863 70.795364,62.092567 
	C70.559471,62.055878 70.323586,62.019184 70.087700,61.982494 
	C69.496712,65.871239 68.905731,69.759979 68.251411,74.524025 
z"/>
<path fill="#000000" opacity="1.000000" stroke="none" 
	d="
M114.444870,226.492310 
	C108.284752,235.895462 100.885857,237.985764 94.044983,232.560501 
	C90.970871,230.122528 89.852081,226.621506 88.836014,223.107269 
	C86.351570,214.514389 86.468414,205.681549 86.577797,196.849670 
	C86.625092,193.031006 86.517639,189.230240 86.059769,185.402161 
	C85.758011,182.879227 83.746307,179.423386 86.988770,177.675949 
	C90.955460,175.538193 95.004578,172.667694 100.065506,175.296707 
	C105.393341,178.064377 108.253372,182.435959 109.215149,188.195084 
	C109.513504,189.981628 109.289940,191.872925 110.630348,193.779007 
	C114.179588,191.397903 117.285919,188.081879 122.443672,189.361252 
	C127.068802,190.508514 130.162460,192.998505 132.651337,198.249039 
	C133.477325,193.685944 134.009140,190.214005 134.749008,186.786957 
	C135.832077,181.770279 137.879471,177.300140 142.482544,174.462769 
	C147.037369,171.655151 150.514145,172.807373 152.117844,177.911682 
	C152.805756,180.101166 153.149429,182.470123 153.218765,184.770523 
	C153.560898,196.123932 152.261566,207.367584 150.128922,218.478485 
	C147.819962,230.508041 141.739548,235.632874 131.480408,235.356995 
	C126.471779,235.222305 123.863449,231.734253 120.986473,228.610916 
	C119.543175,227.044052 118.581924,225.033142 117.371574,223.175323 
	C115.307106,223.174973 115.511147,225.197479 114.444870,226.492310 
M130.103546,206.810257 
	C130.503189,212.174637 127.615318,216.624084 126.011269,221.426819 
	C125.102180,224.148727 124.368774,226.721558 128.260132,228.433670 
	C130.877640,220.798370 134.958099,213.792679 129.889572,205.233826 
	C129.363831,201.917557 128.737961,198.630676 125.650078,196.595810 
	C124.221176,195.654175 122.437759,194.662552 121.485054,196.907333 
	C119.708900,201.092377 118.265587,205.418686 116.683754,209.686188 
	C120.563393,206.862045 119.898720,200.908829 125.894836,199.530411 
	C123.134384,206.889465 117.133553,213.277969 122.586647,221.853882 
	C124.922653,217.200058 126.938667,213.045700 126.921600,208.243088 
	C126.913536,205.973236 127.342239,204.474838 130.103546,206.810257 
M112.579895,209.875961 
	C108.624001,213.905121 107.309624,219.485153 104.257683,224.040848 
	C102.969910,225.963135 102.458084,228.736725 99.500900,229.055237 
	C97.874313,226.989838 99.602303,225.751678 100.268417,224.409744 
	C102.628067,219.655945 105.152534,214.983948 107.514099,210.231033 
	C107.986679,209.279907 108.715088,208.055527 107.408188,207.082687 
	C106.171890,206.162384 105.171799,206.725098 104.478882,207.811234 
	C100.989159,213.281281 97.491684,218.784821 97.133774,225.526154 
	C96.900772,229.914856 99.104294,231.643341 103.379784,230.476349 
	C105.818932,229.810593 107.930740,228.570038 109.247963,226.199738 
	C112.004570,221.239288 114.512108,216.257477 112.579895,209.875961 
M132.735687,225.068008 
	C132.451553,226.797867 131.224258,228.445511 132.188385,230.272675 
	C138.302658,231.571091 141.008057,229.773636 143.469177,222.858368 
	C146.586411,214.099518 145.254333,210.093460 137.815781,206.304611 
	C136.807159,212.577423 141.070740,218.557098 139.307343,225.348358 
	C135.670746,223.120041 136.819107,219.634674 135.386322,217.153366 
	C134.564087,219.630066 133.780472,221.990372 132.735687,225.068008 
M104.970642,191.827835 
	C105.169868,189.511719 104.982811,187.289581 103.566788,185.229218 
	C97.366875,192.094833 93.608955,201.223297 94.908821,206.319305 
	C97.977013,201.470459 100.553848,196.411255 104.970642,191.827835 
M96.130318,216.669189 
	C97.923027,212.175308 100.506271,208.101212 103.509270,204.387833 
	C105.462914,201.972061 106.144310,199.683380 105.206223,196.358383 
	C99.039627,203.725403 95.486664,211.799423 94.562813,221.034164 
	C94.993881,219.795593 95.424942,218.557022 96.130318,216.669189 
M145.760422,203.815094 
	C143.560425,202.087509 142.212646,199.059006 137.824265,198.849640 
	C139.469437,203.545380 142.542984,205.892334 145.770233,208.215942 
	C147.084549,206.800781 146.839127,205.581787 145.760422,203.815094 
M143.012421,197.356369 
	C144.311905,198.273972 145.093811,199.998688 147.640137,199.988358 
	C146.974640,195.059998 143.216919,193.297028 140.045532,190.545502 
	C138.389847,194.256332 140.967499,195.320160 143.012421,197.356369 
M91.329239,187.405365 
	C91.339417,187.732025 91.292747,188.074448 91.377495,188.380463 
	C91.447258,188.632355 91.672844,188.841110 92.132050,189.509613 
	C92.929123,186.326035 95.080078,183.988144 95.234932,180.348877 
	C91.065773,181.240372 91.126549,183.966660 91.329239,187.405365 
M147.600357,192.118637 
	C147.599655,187.654495 143.776688,186.979279 140.283203,184.187393 
	C141.406326,189.049225 144.872025,190.001984 147.600357,192.118637 
M143.114151,180.108475 
	C142.685944,183.455994 145.289459,183.719833 147.870285,185.028198 
	C147.331039,181.882828 148.026749,178.663910 143.114151,180.108475 
M97.355370,184.801193 
	C96.808502,186.323364 96.261635,187.845535 95.714760,189.367706 
	C97.461700,186.611908 100.743645,184.759705 100.944550,181.094696 
	C97.997299,180.683334 98.417961,183.021088 97.355370,184.801193 
z"/>
<path fill="#000000" opacity="1.000000" stroke="none" 
	d="
M75.101585,217.850494 
	C73.707901,221.849411 72.252449,225.404556 70.044640,228.556503 
	C62.975616,238.648514 50.561073,238.111603 44.368053,227.499802 
	C43.958134,226.797394 43.502132,226.121872 42.923759,225.206177 
	C40.770973,226.446289 40.225052,228.675430 39.022392,230.339462 
	C33.602734,237.838181 25.774988,237.655502 20.832001,229.823257 
	C19.126318,227.120575 18.103737,224.104904 17.378529,221.031754 
	C14.795388,210.085510 10.985566,199.409561 10.221301,188.056931 
	C9.974875,184.396454 8.881123,180.427200 12.389519,177.897400 
	C16.101585,175.220749 20.379276,176.100388 24.331324,177.637558 
	C29.249943,179.550705 31.536489,183.825653 33.183323,188.490799 
	C34.396694,191.928009 34.525242,195.699234 36.787941,199.228043 
	C42.682743,190.319427 49.943546,191.315628 57.957222,197.539795 
	C58.592163,194.618332 59.141384,192.257828 59.613132,189.881927 
	C60.333336,186.254715 61.556385,182.804611 63.526730,179.688065 
	C65.648254,176.332413 68.838806,174.526276 72.800087,174.995163 
	C76.593315,175.444168 78.393082,178.359650 79.314499,181.745422 
	C81.246498,188.844589 80.440857,195.947464 78.903297,202.975952 
	C77.838516,207.843277 76.456093,212.641129 75.101585,217.850494 
M43.500015,199.456039 
	C41.488659,201.664978 42.469376,203.762344 43.783749,205.803207 
	C46.571644,210.132004 50.418503,213.230026 55.218849,215.941559 
	C52.110779,209.410690 46.554893,205.207748 44.734650,198.919083 
	C48.880035,198.916336 50.981331,203.288422 55.088997,204.033844 
	C51.637459,196.043137 47.972771,194.477066 43.500015,199.456039 
M49.556156,215.169907 
	C48.759094,214.683380 48.221268,213.581146 47.006668,214.073853 
	C46.384007,217.685257 47.166176,222.665253 48.950317,226.493103 
	C52.195995,233.456635 59.427029,234.061691 64.460388,227.507401 
	C60.488377,222.597717 54.825401,219.628632 49.556156,215.169907 
M36.366383,211.149323 
	C32.516552,213.834839 30.341749,218.119003 26.819557,221.136322 
	C25.222256,222.504684 22.502878,223.517120 24.440516,226.606216 
	C26.093695,229.241806 27.701332,231.705566 31.935421,230.230621 
	C28.618338,228.924667 29.689817,226.965530 30.406765,224.769257 
	C31.981632,219.944901 36.579468,216.585159 36.366383,211.149323 
M67.478966,209.056320 
	C68.611542,210.357483 68.771324,212.509018 70.850670,213.018051 
	C76.175957,202.842819 75.290749,197.687927 67.584244,193.731888 
	C67.754669,198.016693 71.568375,201.224091 71.428780,205.729538 
	C68.202278,206.691696 66.824333,203.396240 63.894230,202.949142 
	C65.135818,205.054276 66.139053,206.755295 67.478966,209.056320 
M27.481131,190.404022 
	C21.378164,196.619751 17.315607,205.792816 19.158203,209.748474 
	C21.813017,205.995926 24.466587,202.412460 26.930336,198.702927 
	C28.532787,196.290222 29.587372,193.661652 27.481131,190.404022 
M27.105356,205.817520 
	C25.757797,207.275879 24.401621,208.726364 23.064325,210.194077 
	C19.239965,214.391403 19.205606,215.330215 22.810530,220.455124 
	C25.494917,214.812561 29.780445,210.047760 30.840628,203.571899 
	C28.916647,203.420746 28.434868,204.707581 27.105356,205.817520 
M62.215244,213.356018 
	C60.369717,212.120392 58.524189,210.884766 56.678658,209.649139 
	C59.181183,215.099655 61.984177,220.046448 66.771530,223.507553 
	C69.834412,220.291779 69.475525,217.968216 66.055099,216.026184 
	C64.906837,215.374207 63.865520,214.533875 62.215244,213.356018 
M75.369011,184.591827 
	C74.474907,182.708817 73.678963,180.710220 70.665672,180.630310 
	C71.280815,185.637314 73.700790,189.604797 75.574936,194.958008 
	C75.574936,190.959534 75.574936,188.159882 75.369011,184.591827 
M15.721739,180.761063 
	C15.400611,183.040024 13.914554,185.224213 15.012328,188.519333 
	C17.153091,185.707626 18.809629,183.531921 20.442724,181.386993 
	C19.013042,179.749588 17.711500,179.475906 15.721739,180.761063 
M19.085190,196.533066 
	C19.715647,195.024445 21.811958,193.984055 20.648174,191.847458 
	C15.022964,194.108002 14.517186,195.163925 17.098463,199.514252 
	C17.681955,198.653610 18.222267,197.856659 19.085190,196.533066 
M39.125233,217.545990 
	C39.240536,217.239029 39.422707,216.938171 39.451447,216.623306 
	C39.477749,216.335236 39.338192,216.032043 39.093712,214.941391 
	C37.293705,219.086334 35.761963,222.613510 34.230225,226.140701 
	C36.919445,224.001907 37.741707,220.975449 39.125233,217.545990 
z"/>
<path fill="#000000" opacity="1.000000" stroke="none" 
	d="
M220.865143,182.849060 
	C221.712540,195.914047 221.899200,208.553345 217.911087,220.800323 
	C214.794983,230.369522 209.299606,234.790298 201.734909,234.318100 
	C199.521240,234.179916 197.435898,233.602585 195.574966,232.487274 
	C193.020630,230.956390 190.593826,229.940567 188.344696,232.877945 
	C186.272873,230.832733 189.625076,229.255951 188.211319,227.707642 
	C187.266769,224.988647 183.453186,230.889084 183.684662,225.010681 
	C182.200562,227.971725 181.052490,229.970612 179.260605,231.540100 
	C173.958206,236.184433 166.853928,234.758194 164.014923,228.311417 
	C162.246170,224.294907 161.666702,219.941147 161.918594,215.614899 
	C162.268997,209.597427 162.351044,203.060455 160.035248,198.044342 
	C157.146042,191.786194 159.696274,186.067673 158.771210,180.205536 
	C158.228424,176.765808 160.358032,175.455338 163.660080,175.729080 
	C169.047150,176.175674 172.398895,179.012085 174.440948,183.996033 
	C176.748734,189.628601 175.872223,195.798126 177.830017,201.928192 
	C181.698441,198.665665 185.463287,195.479172 190.663513,195.998947 
	C196.769363,196.609192 197.867523,201.469131 198.982330,207.635666 
	C200.834854,198.941025 200.544632,191.268036 202.607697,183.982376 
	C203.014725,182.544937 203.243759,181.031738 203.837860,179.677643 
	C205.342957,176.247253 207.872086,173.995728 211.764008,173.735321 
	C215.500824,173.485275 217.487595,175.945023 219.099838,178.801361 
	C219.749756,179.952789 220.184296,181.225784 220.865143,182.849060 
M174.509521,219.364014 
	C173.502792,221.073074 172.385529,222.728348 171.520416,224.506317 
	C170.654617,226.285706 168.486755,228.390793 171.470581,229.991043 
	C174.079788,231.390366 175.626755,229.229156 176.452347,227.280548 
	C180.090851,218.692703 185.241074,211.023331 190.520630,203.421875 
	C191.520020,201.982986 191.761688,200.710693 190.222473,199.551239 
	C188.638840,198.358337 187.285217,198.392273 186.004364,200.149292 
	C183.664169,203.359512 181.001678,206.357605 179.580383,210.839554 
	C178.068390,213.541046 175.876541,215.861221 174.509521,219.364014 
M196.902466,229.727539 
	C200.754974,231.812881 204.519791,232.968475 208.158066,228.649094 
	C204.516342,225.843689 202.745987,221.727097 199.466415,218.244476 
	C199.477356,222.891373 204.304367,224.933975 204.147659,229.592392 
	C199.717987,228.470688 199.266754,223.797943 196.035202,222.033508 
	C194.195999,224.789627 191.737854,227.252975 196.902466,229.727539 
M206.376328,207.110016 
	C207.303955,207.803772 208.156189,208.649841 209.177078,209.155182 
	C210.664551,209.891464 212.332672,211.753128 213.856735,209.345139 
	C215.120285,207.348755 214.657455,205.495575 212.564011,204.273849 
	C210.351196,202.982422 208.532074,200.818314 205.645706,200.890289 
	C203.877899,202.971527 203.969025,204.844727 206.376328,207.110016 
M167.587158,215.202866 
	C165.852585,219.848740 165.857269,219.940765 168.443481,224.850510 
	C168.988434,218.794510 176.695679,215.251663 171.917633,207.910431 
	C170.447037,210.381531 169.203384,212.471283 167.587158,215.202866 
M210.366333,193.278091 
	C209.274124,192.580261 208.326721,191.533096 206.846420,191.789581 
	C203.362061,196.470566 205.688126,197.529373 214.774200,201.740891 
	C215.993790,197.318588 215.993790,197.318588 210.366333,193.278091 
M194.483047,218.847000 
	C194.713593,216.984375 195.827759,215.171494 194.981720,213.141769 
	C189.812271,215.859818 187.857681,220.770050 190.569092,224.057404 
	C192.358459,222.995041 193.025192,221.045547 194.483047,218.847000 
M168.216034,198.603806 
	C169.926941,196.084152 173.295105,193.919922 169.699234,189.864120 
	C167.453278,193.696625 163.595367,196.567825 165.025391,201.928711 
	C166.939911,201.305725 167.191238,200.052002 168.216034,198.603806 
M209.156204,212.362778 
	C207.237915,211.872726 205.975037,209.537903 202.904465,210.199722 
	C204.952133,214.652679 208.809586,215.915924 212.024338,218.114258 
	C214.248489,214.527939 212.031876,213.575851 209.156204,212.362778 
M213.251434,191.764404 
	C213.935501,192.139725 214.691269,193.101685 215.391525,192.427032 
	C216.390320,191.464813 215.944016,190.058777 215.098206,189.317062 
	C212.915619,187.403091 210.610260,185.577820 207.037003,184.545471 
	C206.962067,189.116333 211.235580,189.123764 213.251434,191.764404 
M169.200165,184.602829 
	C168.687561,183.737930 167.971054,182.571396 166.992355,183.603912 
	C164.677719,186.045822 162.125793,188.568604 164.119156,193.102890 
	C165.718384,189.931503 169.130524,188.689896 169.200165,184.602829 
M189.523331,210.074432 
	C188.511475,212.155853 187.499603,214.237259 186.487747,216.318665 
	C186.901154,216.503448 187.314545,216.688232 187.727951,216.873016 
	C187.987778,212.355408 195.962723,211.732208 192.943954,204.853394 
	C191.701981,206.728973 190.793152,208.101486 189.523331,210.074432 
M168.235733,208.222153 
	C170.626495,205.912933 173.007629,203.600266 171.173874,199.335800 
	C168.641708,202.778671 166.422699,205.923813 166.337067,210.660645 
	C167.065628,209.706909 167.459915,209.190750 168.235733,208.222153 
M205.188049,219.980392 
	C206.437073,221.859116 207.309464,224.086426 209.818878,225.019882 
	C211.338928,223.476181 212.059814,221.629730 209.696732,220.788712 
	C208.223297,220.264282 207.294327,216.714752 205.188049,219.980392 
z"/>
<path fill="#000000" opacity="1.000000" stroke="none" 
	d="
M234.567001,231.101730 
	C230.431122,233.033920 226.522095,234.033264 223.848755,229.630020 
	C221.958237,226.516129 224.892349,219.573166 228.805511,217.124771 
	C231.739609,215.288986 235.341934,214.619217 238.230942,215.762360 
	C240.506210,216.662659 239.369385,220.182938 239.672913,222.587143 
	C240.199966,226.761475 240.845993,230.650345 234.567001,231.101730 
z"/>
<path fill="#000000" opacity="1.000000" stroke="none" 
	d="
M179.720566,210.564270 
	C182.968918,207.808212 183.621292,202.682175 190.059250,201.938736 
	C182.949295,209.896194 179.139648,218.650955 174.621216,228.020462 
	C172.206985,224.278839 174.496796,222.047089 174.942657,219.307739 
	C175.876541,215.861221 178.068390,213.541046 179.720566,210.564270 
z"/>
</svg>