<svg xmlns="http://www.w3.org/2000/svg" version="1.0" width="300.000000pt" height="300.000000pt" viewBox="0 0 300.000000 300.000000" preserveAspectRatio="xMidYMid meet">
<g transform="translate(0.000000,300.000000) scale(0.100000,-0.100000)" fill="#000000" stroke="none">
<path d="M723 1565 c-28 -20 -31 -73 -5 -104 22 -28 42 -29 272 -7 137 13 311 19 675 21 452 4 486 3 442 -11 -77 -25 -55 -40 54 -35 52 2 104 7 116 12 27 10 32 54 7 63 -9 4 -114 17 -233 31 -156 17 -298 25 -511 29 -162 4 -407 9 -545 12 -220 4 -253 3 -272 -11z"/>
</g>
</svg>