<?xml version="1.0" standalone="no"?>
<!DOCTYPE svg PUBLIC "-//W3C//DTD SVG 20010904//EN"
 "http://www.w3.org/TR/2001/REC-SVG-20010904/DTD/svg10.dtd">
<svg version="1.0" xmlns="http://www.w3.org/2000/svg"
 width="300.000000pt" height="134.000000pt" viewBox="0 0 300.000000 134.000000"
 preserveAspectRatio="xMidYMid meet">
<metadata>
Created by potrace 1.10, written by Peter Selinger 2001-2011
</metadata>
<g transform="translate(0.000000,134.000000) scale(0.100000,-0.100000)"
fill="#000000" stroke="none">
<path d="M1885 1150 c-385 -16 -924 -38 -1197 -49 -543 -22 -546 -22 -590 -84
-31 -44 -32 -92 -9 -417 26 -359 27 -363 58 -401 55 -65 -2 -61 1003 -75 503
-7 1041 -13 1196 -14 275 0 282 0 314 23 71 48 68 37 112 487 38 399 39 415
23 457 -24 61 -78 96 -153 99 -32 1 -372 -10 -757 -26z m822 -26 c35 -16 78
-91 69 -121 -3 -10 -8 -52 -11 -93 -3 -41 -8 -95 -10 -120 -2 -25 -7 -74 -10
-110 -3 -36 -8 -81 -10 -100 -3 -19 -9 -87 -15 -150 -20 -225 -26 -242 -93
-277 -31 -15 -267 -15 -1222 2 -71 1 -292 3 -490 5 -198 2 -433 6 -522 9 -241
9 -243 12 -262 316 -7 110 -14 211 -16 225 -2 14 -6 72 -10 130 -5 92 -4 109
13 139 39 71 30 70 602 91 146 5 315 12 375 15 61 2 182 7 270 10 88 3 201 8
250 10 50 3 290 12 535 20 245 9 456 17 470 18 29 3 44 0 87 -19z"/>
</g>
</svg>
