<?xml version="1.0" standalone="no"?>
<!DOCTYPE svg PUBLIC "-//W3C//DTD SVG 20010904//EN"
 "http://www.w3.org/TR/2001/REC-SVG-20010904/DTD/svg10.dtd">
<svg version="1.0" xmlns="http://www.w3.org/2000/svg"
 width="512.000000pt" height="512.000000pt" viewBox="0 0 512.000000 512.000000"
 preserveAspectRatio="xMidYMid meet">

<g transform="translate(0.000000,512.000000) scale(0.100000,-0.100000)"
fill="#000000" stroke="none">
<path d="M946 4949 c-62 -15 -153 -68 -197 -116 -22 -24 -55 -74 -72 -111
l-32 -67 0 -2096 0 -2095 37 -76 c45 -91 103 -147 196 -191 l67 -32 1615 0
1615 0 67 32 c93 44 151 100 196 191 l37 76 0 2095 0 2096 -32 67 c-44 93
-100 151 -191 196 l-76 37 -1595 2 c-942 0 -1612 -3 -1635 -8z m3208 -161 c55
-16 138 -99 154 -154 18 -60 18 -4088 0 -4148 -16 -55 -99 -138 -154 -154 -60
-17 -3128 -17 -3188 0 -55 16 -138 99 -154 154 -18 60 -18 4088 0 4148 15 51
99 137 148 153 53 17 3138 17 3194 1z"/>
<path d="M1052 4623 c-18 -9 -45 -32 -60 -51 l-27 -35 0 -1657 0 -1657 29 -37
c54 -71 -62 -66 1580 -64 1482 3 1485 3 1512 24 15 11 37 33 48 48 21 27 21
29 24 1672 2 1818 7 1686 -64 1740 l-37 29 -1486 2 c-1361 2 -1489 1 -1519
-14z m2948 -1743 l0 -1600 -1440 0 -1440 0 0 1600 0 1600 1440 0 1440 0 0
-1600z"/>
<path d="M1545 3736 l-25 -25 0 -831 0 -831 25 -24 24 -25 991 0 991 0 24 25
25 24 0 831 0 831 -25 25 -25 25 -383 -3 -382 -3 -66 -31 c-36 -18 -87 -52
-113 -76 l-46 -45 -46 45 c-26 24 -77 58 -113 76 l-66 31 -382 3 -383 3 -25
-25z m769 -148 c55 -16 138 -99 154 -154 9 -30 12 -177 12 -536 l0 -494 -72
35 -72 36 -328 3 -328 3 0 560 0 559 296 0 c204 0 310 -4 338 -12z m1126 -547
l0 -560 -328 -3 -328 -3 -72 -36 -72 -35 0 494 c0 359 3 506 12 536 15 51 99
137 148 153 22 7 148 11 338 12 l302 1 0 -559z m-1126 -733 c45 -13 146 -105
146 -132 0 -14 -43 -16 -390 -16 l-390 0 0 80 0 80 296 0 c204 0 310 -4 338
-12z m1126 -68 l0 -80 -390 0 c-347 0 -390 2 -390 16 0 24 101 119 140 131 22
7 148 11 338 12 l302 1 0 -80z"/>
<path d="M1840 3360 l0 -80 240 0 240 0 0 80 0 80 -240 0 -240 0 0 -80z"/>
<path d="M1840 3040 l0 -80 240 0 240 0 0 80 0 80 -240 0 -240 0 0 -80z"/>
<path d="M1840 2720 l0 -80 240 0 240 0 0 80 0 80 -240 0 -240 0 0 -80z"/>
<path d="M2800 3360 l0 -80 240 0 240 0 0 80 0 80 -240 0 -240 0 0 -80z"/>
<path d="M2800 3040 l0 -80 240 0 240 0 0 80 0 80 -240 0 -240 0 0 -80z"/>
<path d="M2800 2720 l0 -80 240 0 240 0 0 80 0 80 -240 0 -240 0 0 -80z"/>
<path d="M2320 947 c-49 -16 -133 -102 -148 -153 -28 -94 -8 -169 63 -239 69
-69 94 -75 327 -75 234 0 266 8 331 80 90 100 90 220 0 320 -66 73 -96 80
-337 79 -116 -1 -216 -6 -236 -12z m455 -172 c16 -15 25 -36 25 -55 0 -19 -9
-40 -25 -55 -24 -25 -26 -25 -215 -25 -189 0 -191 0 -215 25 -16 15 -25 36
-25 55 0 19 9 40 25 55 24 25 26 25 215 25 189 0 191 0 215 -25z"/>
</g>
</svg>
