<?xml version="1.0" standalone="no"?>
<!DOCTYPE svg PUBLIC "-//W3C//DTD SVG 20010904//EN"
 "http://www.w3.org/TR/2001/REC-SVG-20010904/DTD/svg10.dtd">
<svg version="1.0" xmlns="http://www.w3.org/2000/svg"
 width="64.000000pt" height="64.000000pt" viewBox="0 0 64.000000 64.000000"
 preserveAspectRatio="xMidYMid meet">

<g transform="translate(0.000000,64.000000) scale(0.100000,-0.100000)"
fill="#000000" stroke="none">
<path d="M432 620 c-12 -5 -27 -20 -33 -33 -6 -13 -24 -28 -40 -34 -42 -16
-37 -40 11 -53 22 -6 40 -14 40 -18 0 -4 -7 -52 -15 -107 -18 -125 -18 -120 1
-139 22 -23 115 -21 143 2 22 17 22 18 6 126 -8 60 -15 113 -15 117 0 5 18 13
40 19 48 13 53 37 10 53 -17 6 -33 19 -36 29 -6 19 -53 48 -76 47 -7 0 -23 -4
-36 -9z m66 -22 c7 -7 12 -20 12 -30 0 -15 -8 -18 -49 -18 -57 0 -66 8 -45 38
17 24 62 30 82 10z m-70 -57 c23 -5 63 -5 88 0 30 6 53 5 67 -2 20 -11 20 -12
1 -22 -22 -13 -176 -16 -219 -4 -29 8 -29 9 -11 23 23 16 18 16 74 5z m65 -91
c15 -14 37 -193 25 -207 -18 -22 -112 -14 -121 11 -3 6 -1 36 3 66 5 30 11 77
15 103 6 48 7 48 38 42 18 -4 36 -10 40 -15z"/>
<path d="M80 510 c0 -56 -1 -57 -32 -66 l-33 -10 0 -209 0 -210 30 5 c17 3 76
5 133 4 56 -1 120 -1 142 -1 22 0 86 0 143 1 56 1 116 -1 132 -4 l30 -5 3 206
2 206 -26 12 c-32 14 -44 7 -15 -9 20 -10 21 -19 21 -176 l0 -164 -27 7 c-16
5 -76 8 -135 7 l-108 0 0 159 c0 140 2 161 18 174 15 12 14 13 -10 7 -22 -5
-32 0 -58 29 -36 42 -97 73 -163 86 l-47 8 0 -57z m93 24 c25 -8 66 -34 91
-56 l46 -40 0 -166 0 -166 -27 26 c-45 41 -81 60 -136 73 l-52 11 -3 167 c-3
189 -7 181 81 151z m111 -453 c43 -17 25 -24 -28 -10 -48 12 -175 8 -210 -7
-14 -5 -17 -4 -12 4 19 31 184 39 250 13z m304 0 c34 -18 23 -22 -24 -10 -39
11 -166 7 -214 -7 -17 -5 -22 -4 -15 4 30 31 203 40 253 13z m-303 -31 c41
-16 27 -19 -35 -9 -51 9 -141 5 -200 -8 -39 -9 -9 17 32 28 40 10 165 3 203
-11z m305 0 c34 -18 19 -20 -51 -9 -58 10 -144 6 -194 -8 -15 -4 -17 -2 -9 6
27 29 206 37 254 11z"/>
<path d="M196 472 c36 -31 84 -61 84 -54 0 10 -71 62 -85 62 -5 0 -5 -4 1 -8z"/>
<path d="M150 440 c0 -6 6 -10 14 -10 8 0 37 -15 65 -34 28 -19 51 -31 51 -27
0 5 -17 20 -37 34 -47 32 -93 50 -93 37z"/>
<path d="M150 390 c0 -5 6 -10 13 -10 7 0 35 -14 61 -31 53 -33 75 -34 27 0
-41 29 -101 54 -101 41z"/>
<path d="M150 320 c0 -26 21 -50 44 -50 11 0 6 56 -6 68 -21 21 -38 13 -38
-18z"/>
<path d="M243 290 c14 -11 29 -20 33 -20 4 0 -1 9 -11 20 -10 11 -25 20 -33
20 -9 0 -6 -7 11 -20z"/>
<path d="M245 240 c10 -11 23 -20 28 -20 6 0 2 9 -8 20 -10 11 -23 20 -28 20
-6 0 -2 -9 8 -20z"/>
</g>
</svg>
