<svg xmlns="http://www.w3.org/2000/svg" xmlns:xlink="http://www.w3.org/1999/xlink" width="180.754" height="103.251" viewBox="0 0 180.754 103.251">
  <defs>
    <clipPath id="clip-path">
      <circle cx="70.059" cy="58.751" r="12.409" fill="none"/>
    </clipPath>
  </defs>
  <g style="isolation: isolate">
    <g id="Layer_1" data-name="Layer 1">
      <g>
        <g>
          <path d="M21.236,101.591H83.124a5.313,5.313,0,0,0,5.313-5.312V42.816c0-2.849-2.449-6.853-7.916-6.225L21.853,37.658c-2.848,0-17.511,2.309-17.511,5.158V97.051C4.342,99.558,18.728,101.591,21.236,101.591Z" fill="#5aaf23"/>
          <g>
            <path d="M4.489,36.738H80.764a3.91,3.91,0,0,1,3.91,3.91V94.563a6.881,6.881,0,0,1-6.881,6.881H7.46A6.881,6.881,0,0,1,.579,94.563V40.649A3.91,3.91,0,0,1,4.489,36.738Z" fill="#fff"/>
            <path d="M79.361,102.023H5.892A5.9,5.9,0,0,1,0,96.131V39.757a3.6,3.6,0,0,1,3.6-3.6H81.655a3.6,3.6,0,0,1,3.6,3.6V96.131A5.9,5.9,0,0,1,79.361,102.023ZM3.6,37.317a2.443,2.443,0,0,0-2.44,2.44V96.131a4.739,4.739,0,0,0,4.734,4.734H79.361A4.739,4.739,0,0,0,84.1,96.131V39.757a2.443,2.443,0,0,0-2.44-2.44Z" fill="#5aaf23"/>
          </g>
          <path d="M84.674,45.381V39.967a3.02,3.02,0,0,0-3.019-3.02H3.6a3.02,3.02,0,0,0-3.019,3.02v5.414Z" fill="#9eed6b"/>
          <path d="M85.253,45.961H0V39.967a3.6,3.6,0,0,1,3.6-3.6H81.655a3.6,3.6,0,0,1,3.6,3.6ZM1.158,44.8H84.1V39.967a2.443,2.443,0,0,0-2.44-2.441H3.6a2.444,2.444,0,0,0-2.44,2.441Z" fill="#5aaf23"/>
          <rect x="5.71" y="87.235" width="29.271" height="4.446" fill="#5aaf23"/>
          <g>
            <circle cx="11.728" cy="73.54" r="6.018" fill="#c9ffa6"/>
            <path d="M11.728,80.136a6.6,6.6,0,1,1,6.6-6.6A6.6,6.6,0,0,1,11.728,80.136Zm0-12.034a5.438,5.438,0,1,0,5.439,5.438A5.445,5.445,0,0,0,11.728,68.1Z" fill="#5aaf23"/>
          </g>
          <g>
            <polygon points="50.652 65.38 52.831 69.797 57.705 70.505 54.178 73.942 55.011 78.797 50.652 76.505 46.293 78.797 47.125 73.942 43.598 70.505 48.472 69.797 50.652 65.38" fill="#b7f291"/>
            <path d="M55.78,79.855l-5.128-2.7-5.129,2.7.98-5.711L42.354,70.1l5.734-.834,2.564-5.195,2.564,5.195,5.733.834L54.8,74.144ZM44.842,70.909l2.905,2.831-.686,4,3.591-1.888,3.59,1.888-.686-4,2.905-2.831-4.014-.583-1.8-3.637-1.8,3.637Z" fill="#5aaf23"/>
          </g>
          <path d="M48.705,52.216H6.078a.579.579,0,0,1,0-1.158H48.705a.579.579,0,0,1,0,1.158Z" fill="#5aaf23"/>
          <path d="M37.093,58.067H6.078a.579.579,0,0,1,0-1.158H37.093a.579.579,0,1,1,0,1.158Z" fill="#5aaf23"/>
          <g>
            <rect x="26.036" y="67.902" width="10.308" height="10.308" fill="#fff"/>
            <path d="M36.923,78.789H25.457V67.323H36.923ZM26.615,77.631h9.15v-9.15h-9.15Z" fill="#5aaf23"/>
          </g>
          <g>
            <polygon points="70.114 67.423 64.024 77.722 76.203 77.722 70.114 67.423" fill="#fff"/>
            <path d="M77.218,78.3H63.009l7.105-12.016ZM65.039,77.143H75.188L70.114,68.56Z" fill="#5aaf23"/>
          </g>
          <circle cx="9.795" cy="41.164" r="1.267" fill="#5aaf23"/>
          <circle cx="13.656" cy="41.164" r="1.267" fill="#5aaf23"/>
          <circle cx="5.935" cy="41.164" r="1.267" fill="#5aaf23"/>
        </g>
        <g>
          <path d="M64.877,87.945h61.888a5.313,5.313,0,0,0,5.313-5.313V29.169c0-2.849-2.449-6.852-7.916-6.224L65.5,24.011c-2.849,0-17.512,2.309-17.512,5.158V83.4C47.983,85.912,62.37,87.945,64.877,87.945Z" fill="#5aaf23"/>
          <g>
            <path d="M48.131,23.092H124.4a3.91,3.91,0,0,1,3.91,3.91V80.917a6.881,6.881,0,0,1-6.881,6.881H51.1a6.881,6.881,0,0,1-6.881-6.881V27A3.91,3.91,0,0,1,48.131,23.092Z" fill="#e2ffcc"/>
            <path d="M123,88.377H49.533a5.9,5.9,0,0,1-5.892-5.892V26.111a3.6,3.6,0,0,1,3.6-3.6H125.3a3.6,3.6,0,0,1,3.6,3.6V82.485A5.9,5.9,0,0,1,123,88.377ZM47.239,23.671a2.443,2.443,0,0,0-2.44,2.44V82.485a4.739,4.739,0,0,0,4.734,4.734H123a4.739,4.739,0,0,0,4.735-4.734V26.111a2.443,2.443,0,0,0-2.441-2.44Z" fill="#5aaf23"/>
          </g>
          <path d="M128.315,31.735V26.32A3.019,3.019,0,0,0,125.3,23.3H47.24a3.02,3.02,0,0,0-3.02,3.019v5.415Z" fill="#9eed6b"/>
          <path d="M128.9,32.314H43.641V26.32a3.6,3.6,0,0,1,3.6-3.6H125.3a3.6,3.6,0,0,1,3.6,3.6ZM44.8,31.156h82.938V26.32a2.444,2.444,0,0,0-2.441-2.44H47.239a2.443,2.443,0,0,0-2.44,2.44Z" fill="#5aaf23"/>
          <g>
            <rect x="53.717" y="40.562" width="63.558" height="38.038" fill="#fff"/>
            <path d="M117.854,79.179H53.137v-39.2h64.717ZM54.3,78.021h62.4V41.141H54.3Z" fill="#5aaf23"/>
          </g>
          <circle cx="53.436" cy="27.518" r="1.267" fill="#5aaf23"/>
          <circle cx="57.297" cy="27.518" r="1.267" fill="#5aaf23"/>
          <circle cx="49.576" cy="27.518" r="1.267" fill="#5aaf23"/>
          <g>
            <circle cx="70.831" cy="58.751" r="12.409" fill="#b7f291"/>
            <path d="M70.831,71.739A12.988,12.988,0,1,1,83.819,58.751,13,13,0,0,1,70.831,71.739Zm0-24.817A11.83,11.83,0,1,0,82.66,58.751,11.843,11.843,0,0,0,70.831,46.922Z" fill="#5aaf23"/>
          </g>
          <path d="M100.874,71.038h-11.9a.579.579,0,0,1,0-1.158h11.905a.579.579,0,0,1,0,1.158Z" fill="#5aaf23"/>
          <path d="M107.051,67.177H88.969a.579.579,0,0,1,0-1.158h18.082a.579.579,0,0,1,0,1.158Z" fill="#5aaf23"/>
          <path d="M112.456,63.317H88.969a.579.579,0,1,1,0-1.158h23.487a.579.579,0,0,1,0,1.158Z" fill="#5aaf23"/>
          <path d="M104.735,53.279H88.969a.579.579,0,1,1,0-1.158h15.766a.579.579,0,0,1,0,1.158Z" fill="#5aaf23"/>
          <path d="M112.456,48.647H88.969a.579.579,0,1,1,0-1.158h23.487a.579.579,0,0,1,0,1.158Z" fill="#5aaf23"/>
          <g clip-path="url(#clip-path)">
            <circle cx="65.268" cy="57.925" r="1.454" fill="#5aaf23"/>
            <circle cx="74.533" cy="57.925" r="1.454" fill="#5aaf23"/>
            <g>
              <ellipse cx="69.816" cy="57.502" rx="5.117" ry="6.334" fill="#5aaf23"/>
              <ellipse cx="70.059" cy="69.77" rx="9.361" ry="7.913" fill="#5aaf23"/>
            </g>
            <path d="M65.376,53.921c0,1.488,2.717,1.921,5.117,1.921s4.345-1.2,4.345-2.693-1.945-2.693-4.345-2.693S65.376,52.434,65.376,53.921Z" fill="#5aaf23"/>
          </g>
        </g>
        <path d="M48.258,57.528h0C57.272,55.646,66.515,45.2,66.515,36.513v-14.1l-2.2-.424c-5.132,1.281-9.31.523-13.028-2.919,0,0-2.332-.724-2.753-.366C45.06,21.651,41.7,24.4,35.667,22.8l.383,14.1C36.05,45.383,39.131,53.4,48.258,57.528Z" fill="#5aaf23" opacity="0.32"/>
        <g>
          <g>
            <rect x="150.999" y="29.73" width="13.144" height="60.26" transform="translate(37.263 -58.199) rotate(23.658)" fill="#ffe20d"/>
            <path d="M151.8,90.858l-13.1-5.74.233-.53,24.413-55.726,13.1,5.739-.233.53Zm-11.574-6.335L151.2,89.332,174.918,35.2l-10.978-4.81Z" fill="#5aaf23"/>
          </g>
          <g>
            <rect x="159.875" y="31.588" width="3.878" height="60.26" transform="translate(38.365 -59.745) rotate(23.658)" fill="#fff310"/>
            <path d="M151.8,90.858l-4.613-2.023.233-.53L171.83,32.58l4.614,2.021-.233.53Zm-3.087-2.618,2.491,1.092L174.918,35.2,172.426,34.1Z" fill="#5aaf23"/>
          </g>
          <g>
            <rect x="151.388" y="27.871" width="3.878" height="60.26" transform="translate(36.16 -56.652) rotate(23.658)" fill="#ffbf40"/>
            <path d="M143.311,87.14,138.7,85.118l.233-.53,24.413-55.726,4.614,2.021-.233.53Zm-3.087-2.617,2.492,1.091,23.716-54.135-2.492-1.092Z" fill="#5aaf23"/>
          </g>
          <g>
            <polygon points="138.464 103.251 138.52 85.217 151.683 90.983 138.464 103.251" fill="#fff"/>
            <path d="M139.672,86.986l9.928,4.349-9.97,9.253.042-13.6m-1.152-1.769-.056,18.034,13.219-12.268L138.52,85.217Z" fill="#5aaf23"/>
          </g>
          <polygon points="138.464 103.251 138.486 95.357 144.062 98.055 138.464 103.251" fill="#5aaf23"/>
          <g>
            <path d="M173.985,16.224h0a6.522,6.522,0,0,1,6.522,6.522v4.866a0,0,0,0,1,0,0H167.462a0,0,0,0,1,0,0V22.746A6.522,6.522,0,0,1,173.985,16.224Z" transform="translate(23.417 -67.974) rotate(23.658)" fill="#b7f291"/>
            <path d="M177.972,30.514l-13.009-5.7,2.186-4.987a7.1,7.1,0,1,1,13.008,5.7Zm-11.483-6.3,10.887,4.771,1.721-3.927a5.944,5.944,0,1,0-10.888-4.77Z" fill="#5aaf23"/>
          </g>
          <g>
            <rect x="163.613" y="25.405" width="14.474" height="7.185" transform="translate(25.995 -66.121) rotate(23.658)" fill="#94ea5c"/>
            <path d="M176.335,35.955l-14.319-6.273,3.349-7.642,14.318,6.273Zm-12.793-6.869,12.2,5.343,2.417-5.519-12.2-5.344Z" fill="#5aaf23"/>
          </g>
          <rect x="170.413" y="21.668" width="1.158" height="14.784" transform="translate(75.76 174.021) rotate(-66.343)" fill="#5aaf23"/>
        </g>
        <g>
          <path d="M40.537,46.718h0C49.551,44.836,58.794,34.39,58.794,25.7v-14.1l-2.2-.424c-5.132,1.281-9.31.522-13.029-2.92,0,0-2.331-.724-2.752-.366-3.47,2.945-6.831,5.69-12.863,4.093l.383,14.1C28.329,34.574,31.41,42.59,40.537,46.718Z" fill="#5aaf23"/>
          <g>
            <path d="M40.537,47.117h0L40.809,47c9.474-4.041,15.407-12.012,15.407-20.7v-14.1c-6.162,2.509-11,.578-15.232-3.344C37.369,12.737,32.517,14,25.752,12.206V26.693C25.752,35.174,31.41,42.989,40.537,47.117Z" fill="#9eed6b"/>
            <path d="M40.538,47.7a.583.583,0,0,1-.239-.051C30.969,43.426,25.173,35.4,25.173,26.693V12.206a.581.581,0,0,1,.728-.56c6.4,1.693,11.055.685,14.659-3.179a.581.581,0,0,1,.818-.03c4.7,4.353,9.349,5.379,14.62,3.232a.58.58,0,0,1,.8.537V26.3c0,8.949-6.039,17.084-15.76,21.23l-.271.116A.579.579,0,0,1,40.538,47.7ZM26.331,12.948V26.693c0,8.172,5.441,15.736,14.215,19.791l.036-.015C49.869,42.508,55.638,34.781,55.638,26.3V13.046c-5.254,1.868-9.934.783-14.627-3.378C37.327,13.34,32.512,14.415,26.331,12.948Z" fill="#5aaf23"/>
          </g>
          <path d="M52.749,13.6C51.287,15.222,29.66,34.33,28.57,35.471A25.784,25.784,0,0,0,40.6,46.541h0C50.076,42.5,55.772,34.99,55.772,26.3V13.351C54.457,13.886,53.95,13.446,52.749,13.6Z" fill="#0f7c2e" opacity="0.2" style="mix-blend-mode: multiply"/>
          <g>
            <path d="M46.874,22.716c0-2.487-2.015-4.944-4.5-4.944s-4.5,2.457-4.5,4.944a4.5,4.5,0,0,0,1.948,3.7l-1.948,9.29h9.005l-2.095-9.195A4.494,4.494,0,0,0,46.874,22.716Z" fill="#5aaf23"/>
            <g>
              <path d="M45.578,22.716a4.5,4.5,0,1,0-7.057,3.7L36.573,35.27h9.005l-2.1-8.754A4.494,4.494,0,0,0,45.578,22.716Z" fill="#ffe20d"/>
              <path d="M46.313,35.849H35.853l2.022-9.189a5.083,5.083,0,1,1,6.262.106Zm-9.02-1.158h7.551l-2.022-8.442.35-.222a3.922,3.922,0,1,0-4.322-.083l.32.222Z" fill="#5aaf23"/>
            </g>
          </g>
        </g>
        <g>
          <path d="M65.069,13.635l-.055,0A.58.58,0,0,1,64.492,13c.258-2.755-.37-4.941-1.87-6.5A7.846,7.846,0,0,0,56.9,4.272a.579.579,0,0,1-.066-1.157A8.9,8.9,0,0,1,63.456,5.7c1.744,1.81,2.481,4.3,2.189,7.408A.579.579,0,0,1,65.069,13.635Z" fill="#5aaf23"/>
          <path d="M68.388,13.635a.551.551,0,0,1-.114-.011.58.58,0,0,1-.455-.681c.7-3.523.043-6.4-1.963-8.559A11.02,11.02,0,0,0,56.94,1.222.579.579,0,0,1,56.8.073,12.245,12.245,0,0,1,66.7,3.6c1.565,1.68,3.225,4.705,2.252,9.575A.579.579,0,0,1,68.388,13.635Z" fill="#5aaf23"/>
          <path d="M61.474,13.635l-.064,0a.58.58,0,0,1-.512-.639,5.03,5.03,0,0,0-1.174-3.857,4.139,4.139,0,0,0-2.883-1.521.579.579,0,0,1-.551-.606.605.605,0,0,1,.605-.551A5.293,5.293,0,0,1,60.6,8.384a6.254,6.254,0,0,1,1.446,4.735A.579.579,0,0,1,61.474,13.635Z" fill="#5aaf23"/>
        </g>
        <g>
          <path d="M18,13.635a.579.579,0,0,1-.576-.525c-.291-3.107.446-5.6,2.19-7.408a8.911,8.911,0,0,1,6.62-2.587.579.579,0,0,1-.066,1.157,7.823,7.823,0,0,0-5.72,2.234c-1.5,1.555-2.129,3.741-1.871,6.5a.58.58,0,0,1-.522.631Z" fill="#5aaf23"/>
          <path d="M14.682,13.635a.579.579,0,0,1-.567-.465C13.142,8.3,14.8,5.275,16.367,3.6A12.252,12.252,0,0,1,26.273.073a.579.579,0,1,1-.144,1.149,11.021,11.021,0,0,0-8.915,3.162c-2.006,2.156-2.667,5.035-1.963,8.559a.58.58,0,0,1-.455.681A.551.551,0,0,1,14.682,13.635Z" fill="#5aaf23"/>
          <path d="M21.6,13.635a.578.578,0,0,1-.575-.516,6.257,6.257,0,0,1,1.445-4.735,5.3,5.3,0,0,1,3.708-1.926.587.587,0,0,1,.605.551.579.579,0,0,1-.551.606,4.137,4.137,0,0,0-2.882,1.521,5.029,5.029,0,0,0-1.174,3.857.58.58,0,0,1-.512.639Z" fill="#5aaf23"/>
        </g>
      </g>
    </g>
  </g>
</svg>
