<svg xmlns="http://www.w3.org/2000/svg" width="180.28" height="84.594" viewBox="0 0 180.28 84.594">
  <g style="isolation: isolate">
    <g id="Layer_1" data-name="Layer 1">
      <g>
        <g>
          <path d="M20.546,84.213h88.048V24.026c0-2.52-4.483-6.189-7-6.189L25.109,19.463a4.563,4.563,0,0,0-4.563,4.563Z" fill="#199384"/>
          <g>
            <path d="M22.829,18.65H99.654a5.611,5.611,0,0,1,5.611,5.611V83.4a0,0,0,0,1,0,0H17.218a0,0,0,0,1,0,0V24.261A5.611,5.611,0,0,1,22.829,18.65Z" fill="#dcfff9"/>
            <path d="M105.777,83.911H16.706V22.482a4.35,4.35,0,0,1,4.345-4.345h80.382a4.349,4.349,0,0,1,4.344,4.345ZM17.73,82.887h87.023v-60.4a3.323,3.323,0,0,0-3.32-3.32H21.051a3.324,3.324,0,0,0-3.321,3.32Z" fill="#199384"/>
          </g>
          <g>
            <rect x="55.761" y="74.967" width="52.193" height="8.774" fill="#16b79c"/>
            <path d="M108.466,84.254H55.248v-9.8h53.218ZM56.273,83.229h51.169V75.48H56.273Z" fill="#199384"/>
          </g>
          <g>
            <rect x="0.512" y="74.903" width="92.038" height="8.774" fill="#49d6c2"/>
            <path d="M93.062,84.19H0v-9.8H93.062ZM1.024,83.165H92.037v-7.75H1.024Z" fill="#199384"/>
          </g>
          <g>
            <rect x="22.528" y="24.701" width="76.247" height="49.924" fill="#f8fffe"/>
            <path d="M99.288,75.137H22.016V24.189H99.288ZM23.04,74.113H98.263v-48.9H23.04Z" fill="#199384"/>
          </g>
          <rect x="22.528" y="24.701" width="76.247" height="6.808" fill="#199384"/>
          <path d="M78.835,66.514H39.821a2.832,2.832,0,0,1-2.828-2.828v-22.6a2.832,2.832,0,0,1,2.828-2.828H78.835a2.832,2.832,0,0,1,2.828,2.828v22.6A2.832,2.832,0,0,1,78.835,66.514ZM39.821,39.283a1.805,1.805,0,0,0-1.8,1.8v22.6a1.805,1.805,0,0,0,1.8,1.8H78.835a1.805,1.805,0,0,0,1.8-1.8v-22.6a1.805,1.805,0,0,0-1.8-1.8Z" fill="#199384"/>
          <rect x="45.221" y="55.79" width="26.777" height="5.673" fill="#45c4ae"/>
          <rect x="42.951" y="47.865" width="22.086" height="1.024" fill="#199384"/>
          <rect x="42.951" y="44.612" width="31.031" height="1.024" fill="#199384"/>
        </g>
        <g>
          <path d="M123.465,84.213h38.352a4.7,4.7,0,0,0,4.7-4.7v-54.8c0-2.52-2.166-6.062-7-5.506l-35.5.943a4.563,4.563,0,0,0-4.563,4.563V80.2A4.018,4.018,0,0,0,123.465,84.213Z" fill="#199384"/>
          <g>
            <path d="M120.031,19.333h39.248a3.91,3.91,0,0,1,3.91,3.91V77.2a6.881,6.881,0,0,1-6.881,6.881H123A6.881,6.881,0,0,1,116.12,77.2V23.243A3.91,3.91,0,0,1,120.031,19.333Z" fill="#adf7e8"/>
            <path d="M158.489,84.594H120.82a5.218,5.218,0,0,1-5.212-5.211V22a3.187,3.187,0,0,1,3.183-3.183h41.727A3.187,3.187,0,0,1,163.7,22v57.38A5.218,5.218,0,0,1,158.489,84.594Zm-39.7-64.749A2.161,2.161,0,0,0,116.632,22v57.38a4.193,4.193,0,0,0,4.188,4.187h37.669a4.193,4.193,0,0,0,4.188-4.187V22a2.161,2.161,0,0,0-2.159-2.158Z" fill="#199384"/>
          </g>
          <g>
            <rect x="121.43" y="25.384" width="35.268" height="49.924" fill="#f8fffe"/>
            <path d="M157.211,75.82H120.918V24.872h36.293ZM121.943,74.8h34.243V25.9H121.943Z" fill="#199384"/>
          </g>
          <rect x="121.43" y="25.384" width="35.268" height="4.076" fill="#199384"/>
          <rect x="125.685" y="64.519" width="25.892" height="3.933" fill="#45c4ae"/>
          <rect x="126.828" y="51.28" width="9.11" height="1.024" fill="#199384"/>
          <rect x="126.828" y="37.782" width="18.054" height="1.024" fill="#199384"/>
          <rect x="126.828" y="41.197" width="18.054" height="1.024" fill="#199384"/>
          <path d="M152.089,48.3H126.95V43.949h25.139Zm-24.114-1.024h23.09v-2.3h-23.09Z" fill="#199384"/>
          <path d="M151.634,58.586H126.5V54.234h25.138ZM127.52,57.561h23.089v-2.3H127.52Z" fill="#199384"/>
        </g>
        <path d="M115.736,18.616v43.11c12.4-2.719,25.049-17.071,25.049-29.022V18.616Z" fill="#199384" opacity="0.3"/>
        <g>
          <path d="M157.929,83.858l18.7.355c2.795,0,3.653-1.795,3.653-3.571v-37.5c0-1.724-1.125-4.147-3.635-3.767l-18.433.645c-1.308,0-2.368,1.4-2.368,3.122V81.109C155.844,82.627,156.777,83.858,157.929,83.858Z" fill="#199384"/>
          <g>
            <path d="M155.513,39.463h21.642a1.4,1.4,0,0,1,1.4,1.4V79.4a4.368,4.368,0,0,1-4.368,4.368h-15.7a4.368,4.368,0,0,1-4.368-4.368V40.86A1.4,1.4,0,0,1,155.513,39.463Z" fill="#7aead5"/>
            <path d="M175.569,84.281H157.1a3.5,3.5,0,0,1-3.5-3.5V40.417a1.468,1.468,0,0,1,1.467-1.466H177.6a1.467,1.467,0,0,1,1.466,1.466V80.786A3.5,3.5,0,0,1,175.569,84.281Zm-20.5-44.306a.442.442,0,0,0-.442.442V80.786a2.473,2.473,0,0,0,2.471,2.47h18.47a2.474,2.474,0,0,0,2.471-2.47V40.417a.442.442,0,0,0-.442-.442Z" fill="#199384"/>
          </g>
          <g>
            <rect x="156.873" y="43.604" width="18.31" height="34.161" fill="#f8fffe"/>
            <path d="M175.7,78.277H156.361V43.091H175.7Zm-18.31-1.025H174.67V44.116H157.385Z" fill="#199384"/>
          </g>
          <rect x="156.873" y="43.604" width="18.31" height="2.609" fill="#199384"/>
          <rect x="158.398" y="73.073" width="14.808" height="2.691" fill="#45c4ae"/>
          <rect x="158.992" y="62.527" width="5.412" height="1.024" fill="#199384"/>
          <rect x="158.992" y="51.925" width="10.056" height="1.024" fill="#199384"/>
          <rect x="158.992" y="54.262" width="10.056" height="1.024" fill="#199384"/>
          <path d="M173.036,59.447H158.809v-3.3h14.227Zm-13.2-1.025h12.178V57.17H159.833Z" fill="#199384"/>
          <path d="M172.8,67.85H158.573v-3.3H172.8Zm-13.2-1.024h12.178V65.573H159.6Z" fill="#199384"/>
          <circle cx="166.284" cy="80.606" r="1.024" fill="#199384"/>
        </g>
        <circle cx="139.103" cy="79.389" r="1.408" fill="#199384"/>
        <g>
          <path d="M101.88,53.843h0c12.469-2.6,25.255-17.054,25.255-29.071V5.269l-3.048-.586c-7.1,1.772-12.88.722-18.024-4.039,0,0-3.224-1-3.808-.506-4.8,4.074-9.449,7.871-17.793,5.661l.53,19.511C84.992,37.042,89.253,48.132,101.88,53.843Z" fill="#199384"/>
          <g>
            <path d="M101.88,53.843h0l.376-.16c13.106-5.59,21.314-16.616,21.314-28.633V5.547c-8.525,3.471-15.211.8-21.072-4.625-5,5.36-11.713,7.1-21.071,4.625V25.589C81.427,37.32,89.253,48.132,101.88,53.843Z" fill="#77e5d8"/>
            <path d="M101.874,54.4l-.2-.093c-12.8-5.79-20.755-16.8-20.755-28.722V4.881l.643.171c8.841,2.342,15.569.877,20.566-4.48L102.472.2l.375.347c6.6,6.105,13.121,7.545,20.53,4.526l.7-.287V25.05c0,12.263-8.286,23.415-21.625,29.1ZM81.939,6.207V25.588c0,11.456,7.638,22.05,19.948,27.7l.168-.071c12.955-5.525,21-16.316,21-28.162V6.3c-7.393,2.764-13.947,1.273-20.535-4.659C97.408,6.868,90.664,8.365,81.939,6.207Z" fill="#199384"/>
          </g>
          <path d="M118.773,8.326c-2.022,2.244-31.94,28.212-33.448,29.791A36.007,36.007,0,0,0,102.3,53.16v-.683l-.656.007c13.106-5.59,21.314-15.417,21.314-27.434V6.913A14.528,14.528,0,0,1,118.773,8.326Z" fill="#199384" opacity="0.4" style="mix-blend-mode: color-burn"/>
          <g>
            <path d="M96.424,24.676V17.533a7.128,7.128,0,0,1,14.255,0v7.143h2.474V17.533a9.6,9.6,0,0,0-19.2,0v7.143Z" fill="#199384"/>
            <path d="M94.971,23.544h17.162a3.1,3.1,0,0,1,3.1,3.1v6.193a10.827,10.827,0,0,1-10.827,10.827h-2.372A10.167,10.167,0,0,1,91.869,33.5V26.646a3.1,3.1,0,0,1,3.1-3.1Z" fill="#199384"/>
            <g>
              <path d="M94.081,24.676V17.533a7.128,7.128,0,0,1,14.255,0v7.143h2.474V17.533a9.6,9.6,0,0,0-19.2,0v7.143Z" fill="#eaf4f2"/>
              <path d="M111.322,25.188h-3.5V17.533a6.616,6.616,0,0,0-13.231,0v7.655H91.1V17.533a10.114,10.114,0,1,1,20.227,0Zm-2.474-1.025H110.3v-6.63a9.089,9.089,0,1,0-18.178,0v6.63h1.449v-6.63a7.64,7.64,0,0,1,15.28,0Z" fill="#199384"/>
            </g>
            <g>
              <path d="M92.728,23.544h16.96a3.2,3.2,0,0,1,3.2,3.2v5.942a10.5,10.5,0,0,1-10.5,10.5h-2.372a10.5,10.5,0,0,1-10.5-10.5V26.746A3.2,3.2,0,0,1,92.728,23.544Z" fill="#ffcf06"/>
              <path d="M103.379,43.7H99.038A10.036,10.036,0,0,1,89.013,33.673V26.446a3.418,3.418,0,0,1,3.415-3.414h17.561a3.418,3.418,0,0,1,3.415,3.414v7.227A10.036,10.036,0,0,1,103.379,43.7ZM92.428,24.056a2.393,2.393,0,0,0-2.39,2.39v7.227a9.01,9.01,0,0,0,9,9h4.341a9.01,9.01,0,0,0,9-9V26.446a2.393,2.393,0,0,0-2.39-2.39Z" fill="#199384"/>
            </g>
            <path d="M98.245,42.5h5.39a8.836,8.836,0,0,0,8.722-8.225c0-.062.016-.125.015-.186V26.607c0-2.281-1.952-2.671-3.691-2.525l-8.267.143-10.373,10.2C90.015,37.122,93.218,42.5,98.245,42.5Z" fill="#edc10a"/>
            <g>
              <g>
                <path d="M103.552,31.077a2.484,2.484,0,1,0-3.894,2.044L98.584,38h4.968L102.4,33.173A2.477,2.477,0,0,0,103.552,31.077Z" fill="#77e5d8"/>
                <path d="M104.2,38.514H97.947l1.142-5.189a3,3,0,1,1,3.884.061Zm-4.98-1.024H102.9l-1.09-4.553.309-.2a1.971,1.971,0,1,0-2.172-.042l.284.2Z" fill="#199384"/>
              </g>
              <g>
                <path d="M103.323,31.077a2.484,2.484,0,1,0-3.893,2.044L98.356,38h4.967l-1.156-4.829A2.478,2.478,0,0,0,103.323,31.077Z" fill="#77e5d8"/>
                <path d="M103.973,38.514H97.719l1.141-5.189a3,3,0,1,1,3.885.061Zm-4.98-1.024h3.68l-1.09-4.553.31-.2a1.971,1.971,0,1,0-2.172-.042l.283.2Z" fill="#199384"/>
              </g>
            </g>
          </g>
        </g>
      </g>
    </g>
  </g>
</svg>
