<svg width="152" height="32" viewBox="0 0 152 32" fill="none" xmlns="http://www.w3.org/2000/svg">
<g filter="url(#filter0_i_297_376)">
<path d="M36.1063 11.4434C35.568 12.363 36.8241 13.4665 37.9007 13.0373C38.4391 12.7921 38.8578 12.2404 38.8578 11.6886C38.8578 10.6464 36.7643 10.4012 36.1063 11.4434Z" fill="#0A5FD9"/>
<path d="M37.4216 15.6732C32.9954 20.3324 32.2178 21.9264 34.1318 22.2942C35.4477 22.5394 44.4797 12.9145 44.061 11.7497C43.403 9.97182 42.0871 10.7075 37.4216 15.6732Z" fill="#0A5FD9"/>
<path d="M31.9785 15.6739C29.885 17.8809 29.4065 19.9653 31.0215 19.9653C32.1579 19.9653 35.8664 16.1644 35.8664 15.0609C35.8664 13.0378 34.2514 13.283 31.9785 15.6739Z" fill="#0A5FD9"/>
<path d="M41.9081 17.1452C38.2594 20.8848 37.7211 22.4175 39.9342 22.4175C41.2501 22.4175 47.8297 15.6739 47.8297 14.3252C47.8297 12.2408 45.6764 13.2217 41.9081 17.1452Z" fill="#0A5FD9"/>
<path d="M41.6683 22.9077C36.0458 28.6704 34.67 31 36.943 31C38.3187 31 50.5208 18.4937 49.9825 17.5741C49.0255 16.0415 47.231 17.2063 41.6683 22.9077Z" fill="#0A5FD9"/>
<path d="M30.1245 23.3368C29.8852 23.8885 30.0048 24.6242 30.3637 24.992C31.2609 25.9116 32.9956 25.0533 32.7563 23.8272C32.517 22.4172 30.603 22.0494 30.1245 23.3368Z" fill="#0A5FD9"/>
<path d="M46.6931 23.8889C45.1978 25.5442 45.437 26.709 47.2315 26.709C48.6072 26.709 50.282 24.4407 49.8035 23.2759C49.325 21.9885 48.1885 22.2337 46.6931 23.8889Z" fill="#0A5FD9"/>
<path d="M34.1317 25.1145C32.098 27.2602 31.9185 29.1606 33.713 29.1606C34.7896 29.1606 38.3785 24.9919 38.0794 24.0723C37.6009 22.601 36.1055 23.0301 34.1317 25.1145Z" fill="#0A5FD9"/>
<path d="M41.549 29.1608C41.0106 30.0804 41.7882 31 43.1041 31C43.8219 31 44.2406 30.5709 44.2406 29.7739C44.2406 28.4865 42.2667 27.996 41.549 29.1608Z" fill="#0A5FD9"/>
</g>
<path d="M59.201 27V13.1818H64.6527C65.6963 13.1818 66.5869 13.3685 67.3246 13.7418C68.0668 14.1107 68.6313 14.6347 69.0181 15.3139C69.4094 15.9886 69.6051 16.7826 69.6051 17.6957C69.6051 18.6133 69.4072 19.4027 69.0114 20.0639C68.6155 20.7206 68.042 21.2244 67.2908 21.5753C66.5442 21.9261 65.64 22.1016 64.5785 22.1016H60.9283V19.7536H64.1062C64.6639 19.7536 65.1272 19.6771 65.4961 19.5241C65.8649 19.3712 66.1393 19.1418 66.3192 18.8359C66.5037 18.5301 66.5959 18.15 66.5959 17.6957C66.5959 17.2369 66.5037 16.85 66.3192 16.5352C66.1393 16.2203 65.8627 15.9819 65.4893 15.82C65.1205 15.6535 64.6549 15.5703 64.0927 15.5703H62.1225V27H59.201ZM66.6634 20.7116L70.0977 27H66.8725L63.5124 20.7116H66.6634ZM78.2617 22.5874V16.6364H81.136V27H78.3764V25.1175H78.2685C78.0346 25.7248 77.6455 26.2128 77.1012 26.5817C76.5614 26.9505 75.9025 27.1349 75.1243 27.1349C74.4316 27.1349 73.8221 26.9775 73.2958 26.6626C72.7695 26.3478 72.358 25.9002 72.0611 25.32C71.7687 24.7397 71.6203 24.0447 71.6158 23.2351V16.6364H74.4901V22.7223C74.4946 23.334 74.6587 23.8176 74.9826 24.1729C75.3065 24.5283 75.7405 24.706 76.2848 24.706C76.6312 24.706 76.955 24.6272 77.2564 24.4698C77.5578 24.3079 77.8007 24.0695 77.9851 23.7546C78.174 23.4397 78.2662 23.0507 78.2617 22.5874ZM83.4351 27V16.6364H86.2217V18.4446H86.3296C86.5186 17.8014 86.8357 17.3156 87.281 16.9872C87.7263 16.6544 88.2391 16.4879 88.8193 16.4879C88.9633 16.4879 89.1185 16.4969 89.2849 16.5149C89.4513 16.5329 89.5975 16.5576 89.7235 16.5891V19.1396C89.5885 19.0991 89.4018 19.0631 89.1634 19.0316C88.925 19.0001 88.7069 18.9844 88.509 18.9844C88.0861 18.9844 87.7083 19.0766 87.3754 19.261C87.0471 19.4409 86.7862 19.6928 86.5928 20.0167C86.4039 20.3406 86.3094 20.7139 86.3094 21.1367V27H83.4351ZM95.4501 27.2024C94.3841 27.2024 93.4664 26.9865 92.6973 26.5547C91.9326 26.1184 91.3433 25.5021 90.9295 24.706C90.5157 23.9053 90.3088 22.9585 90.3088 21.8654C90.3088 20.7994 90.5157 19.8638 90.9295 19.0586C91.3433 18.2534 91.9258 17.6259 92.677 17.1761C93.4327 16.7263 94.3188 16.5014 95.3354 16.5014C96.0191 16.5014 96.6556 16.6116 97.2449 16.832C97.8386 17.0479 98.3559 17.3741 98.7967 17.8104C99.242 18.2467 99.5884 18.7955 99.8358 19.4567C100.083 20.1134 100.207 20.8826 100.207 21.7642V22.5536H91.4558V20.7724H97.5012C97.5012 20.3585 97.4113 19.992 97.2314 19.6726C97.0514 19.3532 96.8018 19.1036 96.4824 18.9237C96.1676 18.7392 95.801 18.647 95.3826 18.647C94.9463 18.647 94.5595 18.7482 94.2221 18.9506C93.8893 19.1486 93.6284 19.4162 93.4395 19.7536C93.2505 20.0864 93.1538 20.4575 93.1493 20.8668V22.5604C93.1493 23.0732 93.2438 23.5162 93.4327 23.8896C93.6261 24.2629 93.8983 24.5508 94.2491 24.7532C94.6 24.9556 95.016 25.0568 95.4973 25.0568C95.8167 25.0568 96.1091 25.0118 96.3745 24.9219C96.6399 24.8319 96.867 24.697 97.0559 24.517C97.2449 24.3371 97.3888 24.1167 97.4877 23.8558L100.146 24.0312C100.011 24.67 99.7346 25.2277 99.3162 25.7045C98.9024 26.1768 98.3671 26.5457 97.7104 26.8111C97.0582 27.072 96.3047 27.2024 95.4501 27.2024ZM102.083 27V16.6364H104.869V18.4446H104.977C105.166 17.8014 105.483 17.3156 105.928 16.9872C106.374 16.6544 106.887 16.4879 107.467 16.4879C107.611 16.4879 107.766 16.4969 107.932 16.5149C108.099 16.5329 108.245 16.5576 108.371 16.5891V19.1396C108.236 19.0991 108.049 19.0631 107.811 19.0316C107.573 19.0001 107.354 18.9844 107.156 18.9844C106.734 18.9844 106.356 19.0766 106.023 19.261C105.695 19.4409 105.434 19.6928 105.24 20.0167C105.051 20.3406 104.957 20.7139 104.957 21.1367V27H102.083ZM112.515 27.1957C111.854 27.1957 111.265 27.081 110.748 26.8516C110.23 26.6177 109.821 26.2736 109.52 25.8192C109.223 25.3604 109.074 24.7892 109.074 24.1055C109.074 23.5297 109.18 23.0462 109.391 22.6548C109.603 22.2635 109.891 21.9486 110.255 21.7102C110.619 21.4718 111.033 21.2919 111.497 21.1705C111.964 21.049 112.455 20.9635 112.967 20.9141C113.57 20.8511 114.056 20.7926 114.425 20.7386C114.794 20.6802 115.061 20.5947 115.228 20.4822C115.394 20.3698 115.477 20.2034 115.477 19.983V19.9425C115.477 19.5152 115.342 19.1845 115.073 18.9506C114.807 18.7167 114.429 18.5998 113.939 18.5998C113.422 18.5998 113.01 18.7145 112.704 18.9439C112.398 19.1688 112.196 19.4522 112.097 19.794L109.439 19.5781C109.574 18.9484 109.839 18.4041 110.235 17.9453C110.631 17.482 111.141 17.1267 111.766 16.8793C112.396 16.6274 113.125 16.5014 113.953 16.5014C114.528 16.5014 115.079 16.5689 115.606 16.7038C116.136 16.8388 116.606 17.0479 117.016 17.3313C117.43 17.6147 117.756 17.979 117.994 18.4244C118.232 18.8652 118.352 19.3937 118.352 20.0099V27H115.626V25.5629H115.545C115.378 25.8867 115.156 26.1723 114.877 26.4197C114.598 26.6626 114.263 26.8538 113.872 26.9933C113.48 27.1282 113.028 27.1957 112.515 27.1957ZM113.339 25.212C113.761 25.212 114.135 25.1288 114.459 24.9624C114.782 24.7914 115.037 24.562 115.221 24.2741C115.405 23.9863 115.498 23.6602 115.498 23.2958V22.196C115.408 22.2545 115.284 22.3085 115.127 22.358C114.974 22.4029 114.8 22.4457 114.607 22.4862C114.414 22.5221 114.22 22.5559 114.027 22.5874C113.833 22.6143 113.658 22.6391 113.5 22.6616C113.163 22.7111 112.868 22.7898 112.617 22.8977C112.365 23.0057 112.169 23.1519 112.03 23.3363C111.89 23.5162 111.82 23.7411 111.82 24.011C111.82 24.4023 111.962 24.7015 112.245 24.9084C112.533 25.1108 112.898 25.212 113.339 25.212Z" fill="#253858"/>
<defs>
<filter id="filter0_i_297_376" x="30" y="10.7734" width="20" height="24.2266" filterUnits="userSpaceOnUse" color-interpolation-filters="sRGB">
<feFlood flood-opacity="0" result="BackgroundImageFix"/>
<feBlend mode="normal" in="SourceGraphic" in2="BackgroundImageFix" result="shape"/>
<feColorMatrix in="SourceAlpha" type="matrix" values="0 0 0 0 0 0 0 0 0 0 0 0 0 0 0 0 0 0 127 0" result="hardAlpha"/>
<feOffset dy="4"/>
<feGaussianBlur stdDeviation="2"/>
<feComposite in2="hardAlpha" operator="arithmetic" k2="-1" k3="1"/>
<feColorMatrix type="matrix" values="0 0 0 0 0 0 0 0 0 0 0 0 0 0 0 0 0 0 0.25 0"/>
<feBlend mode="normal" in2="shape" result="effect1_innerShadow_297_376"/>
</filter>
</defs>
</svg>
