<svg xmlns="http://www.w3.org/2000/svg" xmlns:xlink="http://www.w3.org/1999/xlink" width="224" height="191" viewBox="0 0 224 191">
    <defs>
        <path id="grcuw3im8a" d="M0.075 0.41L94.457 0.41 94.457 33.988 0.075 33.988z"/>
        <path id="sikzjzvm5c" d="M0 0.592L11.953 0.592 11.953 28.02 0 28.02z"/>
        <path id="d0epjyusbe" d="M0.742 0.173L4.342 0.173 4.342 6.407 0.742 6.407z"/>
        <path id="98lb8y8zxg" d="M0.207 0.173L3.806 0.173 3.806 6.407 0.207 6.407z"/>
        <path id="y5440kcj9i" d="M0.207 0.173L7.406 0.173 7.406 6.406 0.207 6.406z"/>
        <path id="oydxb79xvk" d="M16.43 104.025L56.2 104.196 55.763 3.771 15.992 3.599z"/>
        <path id="m3v8ox7wom" d="M.26 19.956C-.824 31.626 8.126 41.93 20.25 42.973c12.124 1.042 22.83-7.572 23.913-19.241 1.084-11.67-7.866-21.975-19.99-23.017-.666-.058-1.33-.086-1.987-.086C10.9.63 1.284 8.93.26 19.956"/>
        <path id="25d1mw6xko" d="M.26 19.956C-.824 31.626 8.126 41.93 20.25 42.973c12.124 1.042 22.83-7.572 23.913-19.241 1.084-11.67-7.866-21.975-19.99-23.017-.666-.058-1.33-.086-1.987-.086C10.9.63 1.284 8.93.26 19.956z"/>
        <path id="dh7f9r1sjq" d="M.26 19.956C-.824 31.626 8.126 41.93 20.25 42.973c12.124 1.042 22.83-7.572 23.913-19.241 1.084-11.67-7.866-21.975-19.99-23.017-.666-.058-1.33-.086-1.987-.086C10.9.63 1.284 8.93.26 19.956"/>
        <path id="nd2bwfklss" d="M0.138 0.318L9.197 0.318 9.197 9.12 0.138 9.12z"/>
        <path id="jfjvvsn3bt" d="M0.502 0.215L16.794 0.215 16.794 20.999 0.502 20.999z"/>
        <path id="uviwcf20jv" d="M0 0.659L60.656 0.659 60.656 44 0 44z"/>
    </defs>
    <g fill="none" fill-rule="evenodd">
        <path fill="#FFF" d="M124.81 27.71c2.773 11.014-25.634 12.43-37.339 12.55-3.246.033-6.474-.249-9.654-.84-9.899-1.835-31.566-6.655-28.528-13.21 3.922-8.454 15.699-2.559 15.699-2.559s-1.478-6.384 18.562-10.6c20.04-4.216 19.961 9.833 19.961 9.833s17.818-9.01 21.3 4.825" opacity=".75" transform="translate(0 1.738)"/>
        <g>
            <path fill="#730F34" d="M92.302 59.766L107.531 60.262 116 58.235 93.139 46.262 86 53.111z" transform="translate(0 1.738) translate(14 123.262)"/>
            <g>
                <path fill="#FFC408" d="M16.326 28.588L3.037 41.377l88.244 18.21s-8.198-6.939-2.662-8.591L16.326 28.588z" transform="translate(0 1.738) translate(14 123.262) translate(0 .262)"/>
                <path fill="#FED154" d="M9.42 39.51l74.547 15.383c-.222-.715-.335-1.444-.293-2.17l-66.55-20.628-7.705 7.415zm81.86 23.196c-.197 0-.397-.02-.597-.061L2.44 44.436c-1.116-.23-2.012-1.08-2.324-2.206-.311-1.124.015-2.333.845-3.132L14.25 26.31c.79-.761 1.915-1.03 2.953-.71l72.293 22.408c1.288.399 2.167 1.622 2.16 3.004-.006 1.147-.62 2.176-1.565 2.715.61.966 1.881 2.396 3.123 3.452 1.072.912 1.405 2.457.807 3.749-.511 1.101-1.588 1.78-2.74 1.78z" transform="translate(0 1.738) translate(14 123.262) translate(0 .262)"/>
                <path fill="#FFC408" d="M188.658 31.622l12.854 13.25-88.171 14.083s-.55-6.214.788-7.354l74.529-19.98z" transform="translate(0 1.738) translate(14 123.262) translate(0 .262)"/>
                <g transform="translate(0 1.738) translate(14 123.262) translate(0 .262) translate(110.093 28.089)">
                    <mask id="e4e6iglghb" fill="#fff">
                        <use xlink:href="#grcuw3im8a"/>
                    </mask>
                    <path fill="#FED154" d="M6.267 26.14c-.035.312-.061.687-.077 1.098L85.054 14.64l-7.408-7.635L6.267 26.14zm-3.02 7.848c-.672 0-1.33-.23-1.868-.662C.717 32.796.3 32.008.224 31.15c-.696-7.852 1.24-9.499 1.876-10.04.342-.29.74-.501 1.17-.616L77.8.513c1.043-.283 2.154.029 2.917.815l12.854 13.25c.807.832 1.09 2.059.736 3.175-.356 1.116-1.291 1.933-2.42 2.113L3.715 33.95c-.155.025-.311.037-.467.037z" mask="url(#e4e6iglghb)"/>
                </g>
                <path fill="#FFC408" d="M111.033 63.2l-19.838-.35c-.843-.015-1.584-.579-1.843-1.405l-.182-.584L2.66 44.024c-1.07-.209-1.773-1.268-1.57-2.368.202-1.1 1.233-1.822 2.302-1.613l87.663 17.06c.708.137 1.287.664 1.51 1.37l.109.351 16.931.297.065-.22c.218-.753.84-1.307 1.596-1.424l90.356-13.946c1.078-.167 2.08.598 2.241 1.704.163 1.106-.578 2.137-1.656 2.304l-89.118 13.756-.134.459c-.254.871-1.04 1.461-1.922 1.446" transform="translate(0 1.738) translate(14 123.262) translate(0 .262)"/>
                <path fill="#DBDBDB" d="M93.748 53.542l-2.916 3.525C64.088 51.953 5.287 30.715 5.287 30.715l13.083-9.902L98.12 51.42l-4.372 2.12z" transform="translate(0 1.738) translate(14 123.262) translate(0 .262)"/>
                <path fill="#EDEDED" d="M94.092 53.104C72.006 52.005 8.917 20.13 8.917 20.13l10.256-6.62 82.961 36.753-8.042 2.84z" transform="translate(0 1.738) translate(14 123.262) translate(0 .262)"/>
                <path fill="#F6F6F6" d="M111.128 57.424s70.045-10.835 88.201-22.583l-6.586-19.2s-70.176 35.033-89.514 35.142c0 0 7.228.95 7.899 6.641M12.5 12.467s60.801 41.039 89.857 38.09l.277-16.52s-46.36-16.1-68.71-33.49L12.5 12.466z" transform="translate(0 1.738) translate(14 123.262) translate(0 .262)"/>
                <path fill="#FFF" d="M192.743 15.64s-61.444 38.886-90.386 34.917l.277-16.52s46.176-14.47 69.095-31.064l21.014 12.667z" transform="translate(0 1.738) translate(14 123.262) translate(0 .262)"/>
                <path fill="#FFB41C" d="M111.36 58.575c-.273-.004-.516-.206-.568-.494-1.093-5.897-8.665-6.476-9.137-6.506-8.584.356-9.917 5.587-9.93 5.64-.075.326-.394.526-.713.449-.316-.08-.51-.408-.436-.733.061-.256 1.566-6.19 11.06-6.572l.05.001c.09.004 8.974.503 10.267 7.494.062.33-.15.649-.47.711-.042.008-.08.011-.123.01" transform="translate(0 1.738) translate(14 123.262) translate(0 .262)"/>
                <path fill="#DBDBDB" d="M112.453 54.346c-.182-.003-.344-.137-.38-.328-.041-.22.099-.433.312-.474.54-.107 54.321-10.918 78.699-31.457.167-.139.414-.116.555.058.138.172.113.428-.056.57-24.53 20.668-78.507 31.518-79.05 31.624-.027.006-.054.007-.08.007" transform="translate(0 1.738) translate(14 123.262) translate(0 .262)"/>
                <path fill="#DBDBDB" d="M112.856 56.678c-.187-.004-.35-.144-.383-.34-.034-.222.113-.43.327-.464.661-.112 66.36-11.11 82.86-22.984.178-.128.423-.084.548.1.124.182.082.435-.096.563-16.647 11.982-82.524 23.01-83.186 23.12-.025.004-.047.005-.07.005" transform="translate(0 1.738) translate(14 123.262) translate(0 .262)"/>
                <path fill="#FF8249" d="M148.344 50.554l49.797-9.157-3.336-4.11s-37.276 12.588-46.461 13.267M81.489 54.974L7.687 36.304l2.587-3.813S74.79 53.418 81.489 54.974" transform="translate(0 1.738) translate(14 123.262) translate(0 .262)"/>
                <path fill="#B0A37E" d="M109.295 46.515c-.21-.005-.383-.179-.387-.397-.005-.223.169-.409.387-.414 24.27-.544 73.776-31.07 74.273-31.379.186-.117.43-.054.54.138.113.19.053.44-.133.556-.5.309-50.184 30.945-74.664 31.495l-.016.001" transform="translate(0 1.738) translate(14 123.262) translate(0 .262)"/>
                <path fill="#B0A37E" d="M109.36 42.612c-.211-.004-.383-.178-.386-.397-.006-.223.166-.409.384-.414 24.27-.546 70.326-29.534 70.788-29.827.186-.118.429-.058.543.132.114.191.057.441-.128.557-.465.295-46.704 29.398-71.184 29.949h-.016z" transform="translate(0 1.738) translate(14 123.262) translate(0 .262)"/>
                <path fill="#B0A37E" d="M109.017 39.492c-.205-.003-.376-.17-.387-.385-.01-.224.159-.413.377-.425 24.727-1.21 67.973-28.364 68.407-28.637.185-.119.429-.059.542.132.113.19.055.44-.13.557-.434.275-43.852 27.54-68.781 28.758h-.028" transform="translate(0 1.738) translate(14 123.262) translate(0 .262)"/>
                <path fill="#B0A37E" d="M109.061 36.922c-.2-.004-.367-.16-.386-.37-.018-.223.142-.42.359-.438 23.63-2.127 64.415-27.58 64.824-27.837.185-.117.429-.057.542.134.115.191.054.44-.13.557-.411.258-41.358 25.81-65.167 27.952-.015.002-.028.002-.042.002" transform="translate(0 1.738) translate(14 123.262) translate(0 .262)"/>
                <path fill="#B0A37E" d="M108.703 34.63c-.19-.005-.355-.149-.382-.351-.029-.22.12-.425.337-.456 25.178-3.591 62.193-26.698 62.563-26.93.185-.116.427-.055.541.134.114.19.055.441-.13.557-.372.234-37.524 23.427-62.865 27.04-.022.004-.042.006-.064.005M94.906 46.26c.21.004.389-.163.4-.382.012-.223-.154-.414-.372-.427-24.24-1.4-72.697-33.65-73.184-33.975-.183-.123-.427-.07-.546.118-.12.188-.067.439.115.561.488.327 49.124 32.693 73.57 34.105h.017" transform="translate(0 1.738) translate(14 123.262) translate(0 .262)"/>
                <path fill="#B0A37E" d="M94.97 42.359c.212.004.389-.165.401-.383.012-.223-.156-.415-.373-.427-24.237-1.4-69.298-31.994-69.75-32.303-.182-.124-.427-.071-.547.114-.12.187-.072.439.11.561.455.312 45.695 31.025 70.143 32.436.007.002.01 0 .016.002" transform="translate(0 1.738) translate(14 123.262) translate(0 .262)"/>
                <path fill="#B0A37E" d="M95.417 39.253c.205.003.383-.159.397-.372.02-.224-.141-.419-.36-.437-24.672-2.079-66.987-30.741-67.411-31.03-.18-.124-.427-.073-.547.113-.12.187-.07.439.111.562.426.29 42.908 29.067 67.785 31.163h.025" transform="translate(0 1.738) translate(14 123.262) translate(0 .262)"/>
                <path fill="#B0A37E" d="M95.46 36.683c.199.003.372-.148.396-.356.03-.222-.126-.424-.342-.451C71.97 32.92 32.056 6.043 31.656 5.773c-.182-.124-.427-.072-.547.115-.12.187-.069.44.112.562.403.272 40.471 27.25 64.198 30.23.013.001.027.003.041.003" transform="translate(0 1.738) translate(14 123.262) translate(0 .262)"/>
                <path fill="#B0A37E" d="M95.892 34.404c.19.003.36-.137.395-.337.038-.22-.106-.43-.32-.468C70.923 29.124 34.7 4.73 34.337 4.482c-.182-.122-.425-.07-.547.116-.119.187-.069.44.113.562.365.247 36.723 24.734 61.929 29.237.02.004.04.006.06.007" transform="translate(0 1.738) translate(14 123.262) translate(0 .262)"/>
            </g>
        </g>
        <g transform="translate(0 1.738) translate(20)">
            <path fill="#FDB532" d="M43.042 73.858c-2.754.935-4.43 3.286-2.398 9.107 3.308 9.473 11.985 18.346 11.985 18.346s1.275-12.324-2.01-21.733c-2.033-5.82-4.823-6.655-7.577-5.72"/>
            <path fill="#F9D53D" d="M43.264 74.494c-1.778.604-2.938 1.899-1.91 4.843 1.673 4.791 6.759 9.042 6.759 9.042s1.342-6.47-.32-11.228c-1.028-2.944-2.75-3.26-4.529-2.657"/>
            <g transform="rotate(-19 167.178 -17.897)">
                <mask id="ra4gvvx7ed" fill="#fff">
                    <use xlink:href="#sikzjzvm5c"/>
                </mask>
                <path fill="#19A1A6" d="M0 28.02L11.953 0.592 11.953 24.859z" mask="url(#ra4gvvx7ed)"/>
            </g>
            <path fill="#19A1A6" d="M57.629 69.845L45.574 42.324 45.68 66.627z" transform="rotate(-19 51.601 56.084)"/>
            <path fill="#FCC998" d="M26.698 12.14L23.104 12.124 19.511 12.109 14.16 21.452 20.143 21.478 23.145 21.491 26.146 21.504 32.129 21.529z" transform="rotate(-19 23.145 16.82)"/>
            <g transform="rotate(-19 29.062 -52.808)">
                <mask id="fpjnnx259f" fill="#fff">
                    <use xlink:href="#d0epjyusbe"/>
                </mask>
                <path fill="#2E368E" d="M4.342 6.407L.742.173l3.6 6.234z" mask="url(#fpjnnx259f)"/>
            </g>
            <g transform="rotate(-19 30.547 -43.661)">
                <mask id="dechqyhmah" fill="#fff">
                    <use xlink:href="#98lb8y8zxg"/>
                </mask>
                <path fill="#2E368E" d="M0.207 6.407L0.207 6.407 3.806 0.173z" mask="url(#dechqyhmah)"/>
            </g>
            <g transform="rotate(-19 30.573 -43.657)">
                <mask id="tn1m11p3yj" fill="#fff">
                    <use xlink:href="#y5440kcj9i"/>
                </mask>
                <path fill="#015288" d="M3.806 0.172L0.207 6.406 3.806 6.406 7.406 6.406z" mask="url(#tn1m11p3yj)"/>
            </g>
            <mask id="0slsen4qul" fill="#fff">
                <use xlink:href="#oydxb79xvk"/>
            </mask>
            <path fill="#F7BE38" d="M22.738 62.367L28.721 62.393 28.545 22.048 22.562 22.022z" mask="url(#0slsen4qul)" transform="rotate(-19 25.641 42.208)"/>
            <path fill="#F7BE38" d="M34.087 58.513L40.07 58.539 39.894 18.194 33.911 18.168z" mask="url(#0slsen4qul)" transform="rotate(-19 36.99 38.354)"/>
            <path fill="#FF822E" d="M41.534 62.804l-8.984-.039.02 4.803c.022 4.909 4.06 8.903 9.024 8.925 4.963.021 8.967-3.939 8.945-8.847l-.02-4.803-8.985-.04z" mask="url(#0slsen4qul)" transform="rotate(-19 41.545 69.629)"/>
            <path fill="#0BC1B6" d="M47.624 61.291c.57.002 1.03-.452 1.028-1.017-.002-.563-.466-1.022-1.037-1.024l-5.983-.026-3.001-.013-3.001-.013-5.984-.026c-.57-.002-1.03.452-1.028 1.016.003.564.468 1.023 1.037 1.026-.57-.003-1.03.452-1.028 1.016.003.564.467 1.022 1.037 1.024l8.985.039 8.984.039c.57.002 1.03-.452 1.028-1.015-.002-.565-.466-1.024-1.037-1.026" mask="url(#0slsen4qul)" transform="rotate(-19 38.64 61.252)"/>
            <path fill="#F19B1F" d="M31.228 20.108L28.227 20.095 28.403 60.44 31.404 60.453 34.405 60.466 34.229 20.121z" mask="url(#0slsen4qul)" transform="rotate(-19 31.316 40.28)"/>
        </g>
        <g>
            <path fill="#015288" d="M15.091 59.66L15.502 59.658 15.543 49.729 15.132 49.731z" transform="translate(0 1.738) translate(163 4) rotate(6 15.317 54.695)"/>
            <path fill="#015288" d="M18.266 60.423L18.676 60.422 18.717 50.493 18.307 50.494z" transform="translate(0 1.738) translate(163 4) rotate(6 18.491 55.458)"/>
            <path fill="#015288" d="M28.583 61.187L28.994 61.185 29.034 51.256 28.624 51.258z" transform="translate(0 1.738) translate(163 4) rotate(6 28.809 56.221)"/>
            <path fill="#015288" d="M25.409 60.423L25.819 60.422 25.86 50.493 25.45 50.494z" transform="translate(0 1.738) translate(163 4) rotate(6 25.634 55.458)"/>
            <g>
                <path fill="#015288" d="M11.213 23.7c.235 6.014 1.436 9.02 3.602 9.02 3.083.17 5.677.149 7.782-.064 2.105-.213 3.243-3.198 3.413-8.957H11.213z" transform="translate(0 1.738) translate(163 4) rotate(6 -323.208 71.526)"/>
                <path fill="#91CBDB" d="M26.01 21.784H11.212c-.54.002-.977.43-.977.957 0 .529.437.957.976.958H26.01c.54-.001.977-.43.977-.958 0-.527-.437-.955-.977-.957" transform="translate(0 1.738) translate(163 4) rotate(6 -323.208 71.526)"/>
                <path fill="#0086CA" d="M12.483 15.692H25.9c1.542-4.627 5.577-9.032 10.372-14.644L.36.662c5.155 5.82 9.877 10.222 10.84 15.03h1.284z" transform="translate(0 1.738) translate(163 4) rotate(6 -323.208 71.526)"/>
            </g>
            <g transform="translate(0 1.738) translate(163 4) rotate(6 -6.44 52.106)">
                <mask id="c5nbvty5xn" fill="#fff">
                    <use xlink:href="#m3v8ox7wom"/>
                </mask>
                <path fill="#00AEEF" d="M.26 19.956C-.824 31.626 8.127 41.93 20.25 42.973 32.374 44.016 43.08 35.4 44.163 23.73 45.247 12.062 36.297 1.757 24.173.715 12.05-.328 1.343 8.287.26 19.955" mask="url(#c5nbvty5xn)"/>
                <g>
                    <mask id="grpjw9apyp" fill="#fff">
                        <use xlink:href="#25d1mw6xko"/>
                    </mask>
                    <path fill="#BDD645" d="M24.969-4.627c-.016.192.037 1.082.12 2.205.261 3.612-2.123 6.535-6.206 7.601-4.209 1.099-5.6 4.9-3.131 8.555l1.4 2.072c1.018 1.506 1.306 3.119.801 4.489-1.03 2.801-5.041 3.891-9.098 2.473l-10.387-3.632.61-17.541 25.89-6.222z" mask="url(#grpjw9apyp)"/>
                </g>
                <g>
                    <mask id="k5l1qlh2or" fill="#fff">
                        <use xlink:href="#dh7f9r1sjq"/>
                    </mask>
                    <path fill="#5AB24F" d="M35.294 13.471l-3.823 1.725c-3.57 1.61-4.828 5.893-2.663 9.064l.696 1.02c1.493 2.185 1.408 5.034-.211 7.135-1.96 2.542-1.629 6.094.77 8.258l.58.524c3.255 2.937 8.55 1.899 10.35-2.031l5.21-11.364c.661-1.445.729-3.078.188-4.568l-2.237-6.174c-1.264-3.487-5.386-5.156-8.86-3.589" mask="url(#k5l1qlh2or)"/>
                </g>
            </g>
            <path fill="#90BD5C" d="M18.496 31.559c.694.222 5.289-.324 5.167 2.972-.12 3.296-2.605 4.492-6.736 3.721-4.13-.77-7.097-4.468-6.465-6.62.631-2.153 3.487-1.533 8.034-.073" transform="translate(0 1.738) translate(163 4)"/>
        </g>
        <path stroke="#015288" stroke-dasharray="3" d="M66 93.262c10.796 31.173 16.754 50 17.876 56.482 1.683 9.722-14.308 13.256-16.94 4.583M79 117.262c6.11 18.506 11.683 32.64 16.719 42.4 7.552 14.641 26.124 11.007 22.911-.67" transform="translate(0 1.738)"/>
        <path stroke="#015288" stroke-dasharray="3" d="M81 151.16c-4.605-6.436-19-7.374-19 2.335 0 6.473 5.434 9.362 16.303 8.666M76 102.262L78 110.262" transform="translate(0 1.738)"/>
        <g>
            <path fill="#6363C8" d="M72 28.262L76 32.262 80 28.262 76 24.262z" transform="translate(0 1.738) translate(9 19.262)"/>
            <path fill="#BDD645" d="M8 57.261L12 61.262 16 57.261 12 53.262z" transform="translate(0 1.738) translate(9 19.262)"/>
            <path fill="#FDB003" d="M4.661 0.262L5.109 5.389 0 5.069 7.339 12.262 12 7.454z" transform="translate(0 1.738) translate(9 19.262)"/>
            <path fill="#27B8FF" d="M38.887 94.113c-2.516-2.516-2.516-6.597 0-9.113L48 94.113c-2.516 2.516-6.597 2.516-9.113 0" transform="translate(0 1.738) translate(9 19.262)"/>
        </g>
        <g>
            <path fill="#27B8FF" d="M212 20.261L218.001 26.262 224 20.261 218.001 14.262z" transform="translate(0 1.738) translate(0 22.262)"/>
            <path fill="#FF822E" d="M0 89.999L6.001 96 12 89.999 6.001 84z" transform="translate(0 1.738) translate(0 22.262)"/>
            <path fill="#6363C8" d="M194 108.825L196.563 113.262 201 110.7 198.439 106.262z" transform="translate(0 1.738) translate(0 22.262)"/>
            <path fill="#FD8F03" d="M129.292 49.262L128 53.97 132.708 55.262 134 50.553z" transform="translate(0 1.738) translate(0 22.262)"/>
            <path fill="#015288" d="M146.5 123L143 126.499 146.5 130 150 126.499z" transform="translate(0 1.738) translate(0 22.262)"/>
            <path fill="#F7BE38" d="M169.758 81.843L169.24 87.262 163 78.356 168.76 74.262 175 83.166z" transform="translate(0 1.738) translate(0 22.262)"/>
            <g>
                <g transform="translate(0 1.738) translate(0 22.262) translate(191 .262) translate(.289)"/>
                <path fill="#BDD645" d="M17.997 66.114c-2.318 2.253-6.079 2.253-8.397 0l8.397-8.16c2.319 2.253 2.319 5.907 0 8.16" transform="translate(0 1.738) translate(0 22.262) translate(191 .262)"/>
            </g>
        </g>
        <g>
            <path fill="#555" d="M35.342 61.065c-3.313-6.798-5.71-14.004-7.434-21.36-.499-2.134-.941-4.28-1.338-6.434-.059-.316-.541-.182-.482.133 1.395 7.574 3.383 15.055 6.277 22.201.783 1.933 1.632 3.838 2.545 5.712.141.29.573.036.432-.252" transform="translate(0 1.738) translate(98 40.262)"/>
            <path fill="#555" d="M35.303 61.368c4.213-5.1 7.32-11.171 9.767-17.281 1.208-3.017 2.24-6.102 3.12-9.23.089-.31-.394-.443-.481-.133-2.36 8.377-5.813 16.609-10.84 23.755-.61.868-1.244 1.718-1.92 2.535-.203.247.148.603.354.354" transform="translate(0 1.738) translate(98 40.262)"/>
            <path fill="#555" d="M35.376 61.191c-.018-2.55.55-4.88 1.23-7.316.808-2.896 1.075-5.81.956-8.814-.013-.32-.513-.323-.5 0 .121 3.05-.174 5.98-1.005 8.916-.677 2.393-1.199 4.71-1.18 7.214.001.322.501.322.5 0" transform="translate(0 1.738) translate(98 40.262)"/>
            <path fill="#555" d="M35.342 61.065c-2.013-4.728-2.214-9.729-1.623-14.77.586-4.992 1.636-9.922 1.609-14.97-.017-3.255-.468-6.484-1.345-9.618-.087-.309-.569-.178-.482.133 1.544 5.517 1.543 11.131.801 16.772-.631 4.802-1.661 9.612-1.352 14.48.18 2.843.844 5.605 1.96 8.225.126.295.557.041.432-.252" transform="translate(0 1.738) translate(98 40.262)"/>
            <g transform="translate(0 1.738) translate(98 40.262) translate(24 .785)">
                <mask id="od2qy51xku" fill="#fff">
                    <use xlink:href="#jfjvvsn3bt"/>
                </mask>
                <path fill="#00C9BE" d="M.603 10.701c.759 5.986 7.309 10.44 9.072 10.294 1.633-.135 7.577-6.15 7.09-12.028-.436-5.266-3.98-9.139-9.007-8.722C2.598.673-.062 5.46.603 10.701" mask="url(#od2qy51xku)"/>
            </g>
            <path fill="#FF822E" d="M14.884 24.248c2.067 5.669 9.442 8.56 11.13 8.026 1.562-.494 6.024-7.678 4.245-13.301-1.593-5.038-5.905-8.028-10.716-6.507-4.936 1.56-6.47 6.819-4.659 11.782" transform="translate(0 1.738) translate(98 40.262)"/>
            <path fill="#00C9BE" d="M33.38 20.942L33.882 21 34.846 23.011 32.77 23.183z" transform="translate(0 1.738) translate(98 40.262)"/>
            <path fill="#FF822E" d="M25.666 32.201L26.169 32.022 27.209 33.266 25.448 33.891z" transform="translate(0 1.738) translate(98 40.262)"/>
            <path fill="#9C6EDC" d="M30.114 33.38c-.265 6.027 5.436 11.526 7.198 11.681 1.633.143 8.51-4.779 9.026-10.654.462-5.263-2.374-9.68-7.4-10.12-5.157-.453-8.59 3.813-8.824 9.092" transform="translate(0 1.738) translate(98 40.262)"/>
            <path fill="#9C6EDC" d="M36.976 43.955L37.642 44.312 38.07 46.242 36.171 46.042z" transform="translate(0 1.738) translate(98 40.262)"/>
            <path fill="#FBCD02" d="M44.952 20.83c-2.141 5.643 1.55 12.65 3.175 13.35 1.505.648 9.579-1.872 11.909-7.29 2.087-4.853.778-9.936-3.856-11.93-4.756-2.045-9.353.932-11.228 5.87" transform="translate(0 1.738) translate(98 40.262)"/>
            <g transform="translate(0 1.738) translate(98 40.262) translate(0 54.785)">
                <mask id="yuf0inl12w" fill="#fff">
                    <use xlink:href="#uviwcf20jv"/>
                </mask>
                <path fill="#00C9BE" d="M18.748 10.962l-5.377 17.553 24.564-11.674-19.187-5.879zM0 44L13.278.66l47.378 14.515L0 44z" mask="url(#yuf0inl12w)"/>
            </g>
            <path fill="#FFF" d="M13.439 58.602L13.099 58.496 13.966 55.711 14.306 55.817zM15.288 58.363L14.948 58.258 15.584 56.215 15.924 56.321zM16.674 59.609L16.334 59.503 17.201 56.718 17.541 56.824zM18.523 59.37L18.184 59.264 18.819 57.222 19.158 57.328zM19.909 60.616L19.57 60.511 20.436 57.725 20.776 57.831zM21.759 60.377L21.419 60.271 22.055 58.229 22.395 58.335zM23.145 61.623L22.805 61.517 23.672 58.732 24.011 58.838zM24.994 61.384L24.655 61.279 25.29 59.237 25.63 59.342zM26.381 62.63L26.041 62.525 26.907 59.74 27.247 59.846zM28.229 62.391L27.89 62.285 28.525 60.243 28.865 60.349zM29.616 63.638L29.276 63.532 30.143 60.746 30.483 60.852zM31.465 63.398L31.125 63.292 31.761 61.25 32.101 61.356zM32.851 64.644L32.512 64.538 33.378 61.753 33.719 61.859zM34.7 64.405L34.36 64.3 34.996 62.257 35.335 62.363zM36.087 65.651L35.748 65.546 36.614 62.76 36.954 62.866zM37.935 65.412L37.596 65.307 38.231 63.264 38.571 63.37zM45.793 68.673L45.453 68.567 46.32 65.782 46.659 65.888zM47.642 68.433L47.303 68.327 47.938 66.285 48.278 66.391zM49.028 69.68L48.689 69.573 49.555 66.788 49.895 66.894zM50.878 69.44L50.538 69.334 51.174 67.292 51.513 67.398zM52.263 70.687L51.924 70.581 52.79 67.796 53.13 67.901zM54.112 70.447L53.773 70.342 54.408 68.299 54.748 68.405zM55.499 71.693L55.16 71.588 56.026 68.803 56.366 68.908zM57.348 71.454L57.008 71.349 57.644 69.306 57.983 69.412zM39.322 66.659L38.983 66.552 39.849 63.767 40.189 63.873zM41.171 66.419L40.831 66.314 41.467 64.271 41.806 64.377zM42.558 67.665L42.218 67.56 43.085 64.774 43.424 64.88zM44.406 67.427L44.066 67.321 44.702 65.279 45.042 65.384z" transform="translate(0 1.738) translate(98 40.262)"/>
            <path fill="#555" d="M33.538 70.761c1.153-.007 2.29-.69 2.946-1.609.741-1.036.931-2.385.89-3.629-.04-1.16-.325-2.332-.959-3.315-.294-.455-.669-.921-1.132-1.217-.272-.173-.523.259-.253.432 1.086.694 1.655 2.246 1.798 3.48.225 1.934-.21 4.318-2.224 5.12-.332.132-.706.236-1.066.238-.322.002-.323.502 0 .5" transform="translate(0 1.738) translate(98 40.262)"/>
        </g>
    </g>
</svg>
