<svg xmlns="http://www.w3.org/2000/svg" width="18" height="24.706" viewBox="0 0 18 24.706">
  <title>secure payment</title>
  <g id="Layer_2" data-name="Layer 2">
    <g id="Layer_1-2" data-name="Layer 1">
      <g>
        <path d="M9.12,0A6.89,6.89,0,0,0,2.238,6.882v4.236a.529.529,0,0,0,.529.529H4.885a.529.529,0,0,0,.529-.529V6.882a3.706,3.706,0,0,1,7.412,0v4.236a.529.529,0,0,0,.529.529h2.118A.529.529,0,0,0,16,11.118V6.882A6.89,6.89,0,0,0,9.12,0Z" fill="#00406b"/>
        <path d="M2.647,9.706H15.353A2.663,2.663,0,0,1,18,12.384v9.643a2.663,2.663,0,0,1-2.647,2.679H2.647A2.663,2.663,0,0,1,0,22.027V12.385A2.663,2.663,0,0,1,2.647,9.706Z" fill="#0281ae"/>
        <path d="M11.647,15.412a2.647,2.647,0,1,0-3.821,2.361l-.409,2.859a.53.53,0,0,0,.45.6.46.46,0,0,0,.074,0h2.118a.525.525,0,0,0,.529-.6l-.409-2.859A2.657,2.657,0,0,0,11.647,15.412Z" fill="#e6f2f6"/>
      </g>
    </g>
  </g>
</svg>
