<svg id="Layer_1" data-name="Layer 1" xmlns="http://www.w3.org/2000/svg" xmlns:xlink="http://www.w3.org/1999/xlink" width="475" height="122" viewBox="0 0 475 122" preserveAspectRatio="none">
  <defs>
    <clipPath id="clip-path">
      <rect x="-508" width="475" height="122" fill="none"/>
    </clipPath>
    <clipPath id="clip-path-2">
      <rect width="475" height="122" fill="none"/>
    </clipPath>
  </defs>
  <g clip-path="url(#clip-path)">
    <g>
      <path d="M149-8H-528a5,5,0,0,0-5,5V106.562s90.926-15,177.287-15c96.257,0,219.129,18,339.531,18,107.753,0,170.182-23,170.182-23V-3A5,5,0,0,0,149-8Z" fill="#00aeef" fill-rule="evenodd" opacity="0.5"/>
      <path d="M-519-9H158a5,5,0,0,1,5,5V105.562s-50.926-22-137.287-22c-96.258,0-209.129,33-329.531,33-107.753,0-220.182-27-220.182-27V-4A5,5,0,0,1-519-9Z" fill="#00aeef" fill-rule="evenodd" opacity="0.5"/>
    </g>
  </g>
  <g clip-path="url(#clip-path-2)">
    <g>
      <path d="M666-7H-11a5,5,0,0,0-5,5V107.562s90.926-15,177.287-15c96.257,0,219.129,18,339.531,18,107.753,0,170.182-23,170.182-23V-2A5,5,0,0,0,666-7Z" fill="#537ee8" fill-rule="evenodd" opacity="0.5"/>
      <path d="M4-4H681a5,5,0,0,1,5,5V110.562s-50.926-22-137.287-22c-96.258,0-209.129,33-329.531,33-107.753,0-220.182-27-220.182-27V1A5,5,0,0,1,4-4Z" fill="#537ee8" fill-rule="evenodd" opacity="0.5"/>
    </g>
  </g>
</svg>
