<?xml version="1.0" standalone="no"?>
<!DOCTYPE svg PUBLIC "-//W3C//DTD SVG 20010904//EN"
 "http://www.w3.org/TR/2001/REC-SVG-20010904/DTD/svg10.dtd">
<svg version="1.0" xmlns="http://www.w3.org/2000/svg"
 width="312.000000pt" height="60.000000pt" viewBox="0 0 312.000000 60.000000"
 preserveAspectRatio="xMidYMid meet">

<g transform="translate(0.000000,60.000000) scale(0.100000,-0.100000)"
fill="#000000" stroke="none">
<path d="M410 426 c-210 -59 -270 -81 -266 -96 3 -8 7 -36 11 -62 4 -29 11
-48 19 -48 7 0 77 21 157 46 119 39 158 47 225 48 81 1 81 1 150 -46 38 -26
96 -60 129 -75 56 -26 69 -28 185 -28 l125 1 200 69 c186 64 206 69 286 70
l87 0 71 -48 c100 -69 160 -90 244 -85 59 3 82 11 183 63 148 76 164 77 270 8
98 -64 200 -96 304 -97 83 0 180 26 180 50 0 7 -10 34 -22 59 -19 38 -26 45
-43 40 -11 -4 -54 -9 -96 -12 -94 -7 -165 12 -239 63 -155 106 -216 109 -395
15 -82 -43 -127 -61 -153 -61 -42 0 -111 29 -159 66 -129 98 -266 101 -518 9
-174 -64 -218 -76 -295 -82 -96 -7 -165 12 -243 67 -103 71 -134 83 -227 87
-67 2 -103 -2 -170 -21z"/>
</g>
</svg>
