<?xml version="1.0" standalone="no"?>
<!DOCTYPE svg PUBLIC "-//W3C//DTD SVG 20010904//EN"
 "http://www.w3.org/TR/2001/REC-SVG-20010904/DTD/svg10.dtd">
<svg version="1.0" xmlns="http://www.w3.org/2000/svg"
 preserveAspectRatio="xMidYMid meet">
<metadata>
Created by potrace 1.10, written by Peter Selinger 2001-2011
</metadata>
<g transform="translate(0.000000,1689.000000) scale(0.100000,-0.100000)"
fill="#000000" stroke="none">
<path d="M9175 14920 c-13 -21 9 -30 76 -30 62 0 69 2 69 20 0 18 -7 20 -69
20 -39 0 -73 -4 -76 -10z"/>
<path d="M9023 14881 c-46 -26 -63 -41 -63 -57 0 -21 30 -15 80 15 69 42 53
82 -17 42z"/>
<path d="M2500 14875 c-20 -24 2 -35 77 -35 98 0 92 34 -8 46 -44 5 -57 3 -69
-11z"/>
<path d="M9412 14868 c2 -13 11 -24 21 -26 11 -2 35 -15 55 -28 33 -22 37 -23
51 -9 18 18 21 14 -57 60 -54 32 -74 32 -70 3z"/>
<path d="M2325 14860 c-11 -4 -33 -13 -50 -20 -28 -11 -29 -12 -12 -25 28 -20
147 13 147 41 0 16 -52 18 -85 4z"/>
<path d="M4165 14860 c-12 -20 8 -28 75 -32 59 -3 65 -1 65 17 0 18 -8 20 -67
23 -41 2 -69 -1 -73 -8z"/>
<path d="M6586 14835 c-8 -22 10 -27 85 -23 49 2 64 7 64 18 0 23 -140 27
-149 5z"/>
<path d="M2726 14831 c-7 -10 3 -18 67 -55 46 -26 77 -29 77 -6 0 5 -21 23
-47 40 -48 29 -87 38 -97 21z"/>
<path d="M4025 14822 c-62 -36 -75 -47 -75 -64 0 -23 21 -23 51 1 13 10 34 21
46 25 22 7 37 32 27 47 -7 12 -14 11 -49 -9z"/>
<path d="M4403 14824 c-7 -20 1 -27 64 -54 58 -25 95 -21 72 6 -11 13 -111 64
-126 64 -2 0 -6 -7 -10 -16z"/>
<path d="M6396 14831 c-30 -6 -56 -35 -43 -47 9 -9 128 13 141 26 25 25 -28
37 -98 21z"/>
<path d="M6834 14825 c-11 -27 13 -40 74 -40 64 0 77 14 29 31 -70 24 -97 27
-103 9z"/>
<path d="M2120 14769 c-69 -41 -95 -79 -56 -79 24 0 116 65 113 79 -3 23 -19
23 -57 0z"/>
<path d="M6215 14780 c-83 -20 -130 -59 -83 -68 24 -5 128 38 128 53 0 19 -11
23 -45 15z"/>
<path d="M7061 14771 c-11 -7 -9 -13 8 -30 11 -11 28 -21 37 -21 9 0 29 -8 45
-17 22 -13 32 -14 41 -5 9 9 7 16 -7 32 -10 11 -25 20 -34 20 -9 0 -25 7 -35
15 -23 17 -35 18 -55 6z"/>
<path d="M8840 14708 c-31 -42 -40 -88 -17 -88 14 0 77 95 77 116 0 27 -30 13
-60 -28z"/>
<path d="M9605 14740 c-8 -12 70 -120 86 -120 24 0 17 33 -17 79 -38 50 -57
61 -69 41z"/>
<path d="M4614 14708 c-9 -13 94 -111 108 -102 18 12 6 40 -34 76 -45 40 -62
46 -74 26z"/>

<path d="M2938 14704 c-15 -14 -8 -35 29 -84 27 -36 40 -47 49 -39 6 5 10 18
7 28 -7 26 -77 104 -85 95z"/>
<path d="M3854 14663 c-40 -58 -59 -102 -47 -114 15 -15 32 -3 50 35 8 17 21
43 29 59 14 26 12 47 -5 47 -4 0 -16 -12 -27 -27z"/>
<path d="M5953 14654 c-29 -20 -50 -40 -47 -45 8 -14 50 -10 64 6 7 8 18 15
24 15 17 0 58 45 49 53 -13 14 -39 5 -90 -29z"/>
<path d="M7286 14672 c-15 -15 -2 -34 46 -66 53 -36 68 -38 68 -8 0 20 -102
87 -114 74z"/>
<path d="M1952 14624 c-29 -20 -75 -92 -67 -104 12 -20 35 -9 59 28 13 20 30
43 39 50 9 8 13 20 10 28 -7 18 -13 18 -41 -2z"/>
<path d="M5774 14518 c-47 -39 -61 -67 -38 -75 15 -5 104 75 104 93 0 27 -18
22 -66 -18z"/>
<path d="M4791 14541 c-16 -10 -16 -8 25 -83 20 -36 52 -55 60 -34 4 11 -60
127 -69 126 -1 0 -8 -4 -16 -9z"/>
<path d="M7466 14531 c-4 -5 7 -23 24 -39 34 -35 37 -50 13 -67 -9 -7 -13 -17
-8 -24 9 -15 112 -6 133 11 20 17 14 38 -10 38 -13 0 -44 20 -71 45 -47 44
-70 54 -81 36z"/>
<path d="M8736 14481 c-19 -60 -16 -96 6 -89 15 5 51 117 44 135 -11 29 -32
10 -50 -46z"/>
<path d="M9725 14531 c-3 -6 -1 -19 5 -30 5 -11 10 -35 10 -54 0 -39 18 -60
40 -47 20 12 -8 133 -32 138 -9 2 -19 -2 -23 -7z"/>
<path d="M615 14500 c-60 -15 -86 -30 -128 -74 -93 -96 -105 -279 -29 -446 53
-118 190 -310 220 -310 20 1 117 124 148 190 4 8 11 17 15 20 10 8 71 141 81
180 28 106 28 164 0 272 -32 122 -177 202 -307 168z m152 -178 c53 -60 39
-135 -33 -183 -69 -45 -168 5 -175 87 -4 55 1 73 31 103 54 53 126 50 177 -7z"/>
<path d="M3057 14504 c-11 -11 -8 -48 7 -85 7 -19 16 -43 20 -53 6 -17 9 -18
21 -5 11 11 12 24 4 59 -10 48 -40 96 -52 84z"/>
<path d="M3754 14435 c-25 -60 -15 -148 14 -112 14 18 35 115 28 132 -9 25
-26 17 -42 -20z"/>
<path d="M7735 14440 c-13 -21 18 -39 83 -46 54 -6 62 -4 62 10 0 29 -129 61
-145 36z"/>
<path d="M1838 14423 c-23 -27 -32 -117 -13 -133 17 -14 15 -17 34 63 19 82
12 107 -21 70z"/>
<path d="M5606 14346 c-37 -44 -48 -90 -22 -84 8 2 32 28 55 58 29 39 37 56
28 62 -20 13 -24 10 -61 -36z"/>
<path d="M7323 14367 c-45 -23 -60 -44 -44 -60 16 -16 147 55 136 74 -10 15
-47 9 -92 -14z"/>
<path d="M7970 14361 c0 -18 104 -94 114 -83 14 13 4 41 -21 58 -71 47 -93 53
-93 25z"/>
<path d="M7645 14360 c-8 -13 73 -120 91 -120 22 0 16 30 -12 69 -42 56 -66
72 -79 51z"/>
<path d="M4884 14263 c8 -74 17 -93 39 -74 10 8 13 25 9 59 -6 57 -18 82 -39
82 -14 0 -15 -9 -9 -67z"/>
<path d="M8718 14296 c-12 -12 -13 -26 -6 -73 16 -103 42 -100 39 4 -2 75 -11
92 -33 69z"/>
<path d="M9746 14303 c-3 -4 -6 -18 -6 -32 -1 -14 -7 -37 -15 -51 -20 -35 -19
-60 3 -60 22 0 38 31 47 92 5 35 4 46 -8 51 -8 3 -18 3 -21 0z"/>
<path d="M3105 14258 c-3 -7 -6 -40 -7 -73 -3 -54 -1 -60 17 -60 18 0 20 7 20
69 0 47 -4 71 -12 73 -7 3 -15 -1 -18 -9z"/>
<path d="M7126 14224 c-45 -45 -52 -64 -28 -72 15 -5 114 96 107 109 -12 18
-32 8 -79 -37z"/>
<path d="M3743 14214 c-7 -19 23 -120 39 -130 28 -18 30 45 2 114 -14 35 -31
41 -41 16z"/>
<path d="M8150 14213 c0 -10 19 -40 41 -66 33 -38 44 -45 55 -36 16 13 9 29
-39 82 -37 40 -57 47 -57 20z"/>
<path d="M1815 14191 c-10 -17 7 -120 22 -132 25 -22 38 4 25 49 -7 22 -12 51
-12 66 0 26 -22 37 -35 17z"/>
<path d="M5502 14182 c-18 -12 -52 -78 -52 -101 0 -31 12 -31 73 -3 38 18 57
32 57 44 0 11 -7 18 -19 18 -12 0 -21 9 -25 25 -7 27 -13 30 -34 17z"/>
<path d="M5725 14171 c-41 -5 -50 -9 -50 -26 0 -18 5 -20 65 -16 68 3 91 17
63 39 -9 6 -19 11 -22 10 -3 0 -28 -4 -56 -7z"/>
<path d="M7790 14160 c0 -25 35 -93 60 -115 49 -45 25 56 -28 118 -20 23 -32
22 -32 -3z"/>
<path d="M5905 14140 c-7 -11 23 -24 92 -43 32 -8 46 -8 54 0 9 9 3 17 -22 32
-36 22 -113 29 -124 11z"/>
<path d="M10140 14091 c-27 -5 -36 -11 -38 -30 -4 -22 -2 -23 30 -16 18 4 51
10 73 14 26 4 40 11 40 21 0 17 -47 22 -105 11z"/>
<path d="M4864 14053 c-25 -59 -30 -103 -11 -103 18 0 57 79 57 116 0 37 -29
29 -46 -13z"/>
<path d="M6981 14040 c-33 -53 -38 -75 -20 -85 11 -8 49 31 49 50 0 7 7 18 15
25 19 16 20 60 1 60 -8 0 -28 -23 -45 -50z"/>
<path d="M9630 14034 c-38 -50 -46 -84 -21 -84 10 0 61 62 80 98 12 22 8 42
-8 42 -5 0 -28 -25 -51 -56z"/>
<path d="M10335 14081 c-7 -12 42 -51 63 -51 9 0 23 -7 32 -15 10 -9 24 -13
33 -9 26 10 3 41 -48 64 -48 22 -71 25 -80 11z"/>
<path d="M6140 14061 c0 -18 104 -94 114 -83 18 17 1 43 -44 71 -58 36 -70 38
-70 12z"/>
<path d="M8753 14064 c-3 -10 1 -30 10 -46 9 -17 17 -35 17 -42 0 -7 9 -21 20
-31 15 -14 23 -16 32 -7 9 9 5 25 -15 65 -32 67 -54 87 -64 61z"/>
<path d="M8303 14034 c-4 -12 7 -29 41 -60 50 -47 63 -52 72 -30 3 9 -13 32
-41 58 -57 52 -63 55 -72 32z"/>
<path d="M3062 14018 c-7 -7 -12 -16 -12 -21 0 -5 -9 -20 -20 -34 -24 -30 -26
-63 -5 -63 18 0 75 85 75 112 0 21 -20 24 -38 6z"/>
<path d="M9939 13982 c-49 -45 -59 -72 -26 -72 18 0 109 89 105 102 -8 24 -27
17 -79 -30z"/>
<path d="M5313 13970 c-40 -38 -57 -80 -32 -80 6 0 29 18 50 40 22 22 44 40
50 40 16 0 6 34 -11 37 -8 2 -34 -15 -57 -37z"/>
<path d="M3826 13991 c-9 -14 4 -42 41 -89 33 -40 53 -47 53 -18 0 8 -15 37
-32 65 -32 49 -50 61 -62 42z"/>
<path d="M1876 13962 c-12 -20 34 -126 60 -136 27 -10 26 22 -3 80 -27 56 -46
74 -57 56z"/>
<path d="M5390 13948 c0 -12 -7 -42 -17 -66 -10 -28 -13 -46 -6 -53 18 -18 42
2 48 39 4 21 11 47 16 60 11 28 4 42 -22 42 -13 0 -19 -7 -19 -22z"/>
<path d="M7890 13936 c0 -14 5 -28 10 -31 6 -3 10 -19 10 -34 0 -32 22 -56 45
-48 13 5 12 12 -2 54 -22 67 -28 78 -47 81 -11 3 -16 -4 -16 -22z"/>
<path d="M10525 13938 c-2 -7 -3 -22 -2 -32 1 -13 -6 -22 -22 -26 -31 -7 -50
-35 -35 -50 8 -8 21 -6 47 6 36 17 37 17 60 -4 53 -50 53 34 0 90 -29 31 -41
35 -48 16z"/>
<path d="M6320 13897 c0 -14 6 -30 14 -36 7 -6 16 -25 20 -41 4 -21 11 -30 25
-30 31 0 31 11 2 70 -30 60 -61 79 -61 37z"/>
<path d="M9463 13873 c-50 -34 -64 -55 -44 -67 21 -13 126 63 119 86 -7 20
-22 17 -75 -19z"/>
<path d="M8492 13878 c4 -29 116 -87 129 -67 5 8 9 17 9 21 0 6 -123 68 -136
68 -3 0 -4 -10 -2 -22z"/>
<path d="M10700 13882 c0 -25 18 -32 85 -32 97 0 70 34 -37 47 -43 5 -48 4
-48 -15z"/>
<path d="M4746 13831 c-37 -50 -46 -81 -23 -81 22 0 102 104 92 120 -13 21
-35 8 -69 -39z"/>
<path d="M6909 13853 c-6 -15 -14 -49 -17 -75 -4 -38 -1 -48 11 -48 25 0 35
22 39 84 3 66 -14 87 -33 39z"/>
<path d="M8873 13854 c-3 -9 6 -28 26 -48 18 -18 35 -46 40 -62 7 -26 12 -30
58 -34 28 -3 58 -12 68 -20 41 -34 104 -63 122 -56 22 9 15 25 -18 42 -17 9
-47 31 -66 50 -24 25 -43 34 -66 34 -26 0 -43 11 -87 55 -58 59 -67 64 -77 39z"/>
<path d="M2877 13810 c-31 -23 -57 -45 -57 -51 0 -24 33 -18 77 13 53 36 64
48 60 62 -7 21 -25 15 -80 -24z"/>
<path d="M5138 13812 c-44 -33 -64 -72 -37 -72 22 0 110 72 107 88 -5 26 -21
22 -70 -16z"/>
<path d="M9817 13793 c-20 -57 -22 -93 -4 -93 16 0 43 54 52 104 6 31 5 36
-12 36 -14 0 -24 -13 -36 -47z"/>
<path d="M10923 13823 c-4 -11 0 -21 12 -27 10 -6 33 -23 50 -38 35 -30 65
-37 65 -15 0 22 -88 97 -115 97 -3 0 -9 -8 -12 -17z"/>
<path d="M3970 13796 c0 -20 81 -96 102 -96 34 0 27 19 -23 64 -52 47 -79 58
-79 32z"/>
<path d="M10307 13762 c-37 -38 -48 -72 -24 -72 19 0 100 87 93 99 -12 19 -31
12 -69 -27z"/>
<path d="M8706 13781 c-4 -6 9 -17 31 -27 82 -35 156 -26 98 12 -31 20 -119
31 -129 15z"/>
<path d="M9225 13772 c-60 -20 -57 -37 6 -37 47 1 104 28 94 45 -9 14 -43 11
-100 -8z"/>
<path d="M1182 13752 c-21 -14 21 -43 75 -53 37 -7 50 -6 62 6 12 12 13 15 0
19 -8 2 -36 11 -63 20 -57 18 -57 18 -74 8z"/>
<path d="M1993 13753 c-14 -5 1 -56 23 -74 33 -27 16 -39 -55 -39 -42 0 -73
-5 -77 -12 -12 -19 28 -38 83 -38 42 0 54 4 63 20 8 15 17 19 31 15 33 -11 32
19 -3 73 -34 53 -45 62 -65 55z"/>
<path d="M5352 13728 c-7 -7 -12 -39 -12 -75 0 -56 2 -63 20 -63 12 0 20 7 21
18 0 9 2 33 5 52 5 39 -2 80 -14 80 -4 0 -13 -5 -20 -12z"/>
<path d="M10640 13721 c0 -24 35 -95 56 -112 11 -9 18 -9 26 -1 8 8 4 26 -19
69 -31 60 -63 82 -63 44z"/>
<path d="M2680 13715 c-14 -8 -35 -14 -48 -15 -12 0 -25 -7 -29 -16 -11 -30
12 -35 71 -15 64 21 82 34 72 50 -10 15 -36 13 -66 -4z"/>
<path d="M7944 13716 c-3 -7 -4 -40 -2 -72 3 -51 6 -59 23 -59 17 0 20 8 23
58 3 56 -8 87 -30 87 -5 0 -11 -6 -14 -14z"/>
<path d="M4945 13701 c-62 -25 -86 -41 -80 -52 18 -28 135 16 135 51 0 23 -2
23 -55 1z"/>
<path d="M1406 13691 c-9 -14 43 -37 102 -47 43 -7 58 4 39 29 -15 21 -131 35
-141 18z"/>
<path d="M6386 13688 c-3 -7 -7 -41 -10 -75 -5 -57 -4 -63 13 -63 16 0 20 10
26 64 4 36 4 69 0 75 -9 15 -25 14 -29 -1z"/>
<path d="M4597 13650 l-34 -40 -80 0 c-84 0 -100 -5 -82 -27 17 -20 168 -18
197 3 18 13 26 13 38 4 30 -26 166 13 148 42 -6 10 -60 6 -111 -8 -21 -6 -22
-4 -16 30 8 49 -15 48 -60 -4z"/>
<path d="M360 13648 c-65 -23 -102 -54 -98 -82 4 -25 75 -75 108 -76 14 0 43
-7 65 -15 58 -21 413 -21 481 0 27 8 58 15 70 15 29 0 104 56 104 78 0 29 -39
58 -107 82 -62 21 -128 24 -128 5 0 -5 20 -12 45 -15 25 -3 55 -11 67 -18 12
-7 30 -12 41 -12 11 0 27 -11 36 -24 15 -24 15 -25 -18 -45 -18 -12 -42 -21
-52 -21 -11 0 -41 -7 -68 -15 -68 -21 -387 -21 -465 -1 -31 8 -67 17 -81 20
-14 3 -36 15 -50 25 -24 19 -24 20 -6 40 11 12 29 21 40 21 12 1 32 7 46 15
14 8 44 14 68 15 30 0 42 4 42 15 0 22 -71 18 -140 -7z"/>
<path d="M1656 13662 c-3 -3 -6 -13 -6 -23 0 -28 138 -41 143 -14 4 20 -121
54 -137 37z"/>
<path d="M2445 13659 c-22 -5 -50 -11 -62 -14 -13 -3 -23 -12 -23 -20 0 -11
12 -15 48 -14 67 1 97 12 97 34 0 23 -10 25 -60 14z"/>
<path d="M4160 13658 c0 -19 66 -49 111 -51 77 -4 12 46 -78 60 -25 4 -33 1
-33 -9z"/>
<path d="M11090 13658 c0 -17 70 -118 82 -118 22 0 17 34 -13 80 -30 47 -69
68 -69 38z"/>
<path d="M2153 13633 c-17 -3 -23 -11 -23 -29 0 -25 1 -25 63 -18 68 7 83 15
74 38 -6 16 -58 20 -114 9z"/>
<path d="M6897 13633 c-19 -18 16 -143 40 -143 13 0 15 9 9 61 -7 72 -27 105
-49 82z"/>
<path d="M9275 13600 c-9 -15 10 -35 56 -59 88 -46 109 -12 23 37 -61 35 -70
37 -79 22z"/>
<path d="M9762 13597 c-6 -7 -16 -24 -21 -37 -6 -14 -16 -32 -23 -41 -6 -9 -8
-24 -4 -34 6 -17 8 -17 27 1 24 22 59 86 59 109 0 18 -24 20 -38 2z"/>
<path d="M10180 13564 c-25 -58 -27 -97 -3 -92 10 2 24 23 33 50 9 26 19 51
23 55 14 13 6 33 -13 33 -13 0 -25 -14 -40 -46z"/>
<path d="M2134 13549 c-7 -12 73 -99 92 -99 30 0 23 25 -17 66 -44 45 -62 53
-75 33z"/>
<path d="M11491 13506 c-29 -30 -42 -50 -38 -61 5 -12 11 -13 24 -6 30 16 93
81 93 96 0 28 -36 15 -79 -29z"/>
<path d="M4413 13487 c-39 -30 -54 -59 -35 -71 12 -7 112 73 112 89 0 24 -32
16 -77 -18z"/>
<path d="M10740 13513 c0 -19 41 -118 55 -132 13 -13 15 -13 21 2 7 18 5 26
-19 92 -10 27 -22 41 -36 43 -12 2 -21 0 -21 -5z"/>
<path d="M5367 13494 c-12 -12 -8 -40 13 -88 19 -43 41 -58 54 -37 7 11 -37
124 -50 128 -6 2 -13 0 -17 -3z"/>
<path d="M9491 13486 c-10 -12 -4 -18 35 -35 49 -22 99 -27 108 -12 9 14 -14
27 -73 45 -65 19 -56 19 -70 2z"/>
<path d="M7935 13480 c-3 -5 -14 -35 -25 -67 -14 -43 -16 -59 -7 -65 7 -4 16
-6 20 -5 14 4 50 116 43 132 -6 17 -22 20 -31 5z"/>
<path d="M11234 13458 c-12 -19 46 -58 88 -58 46 0 58 17 21 30 -15 5 -41 16
-56 25 -34 18 -44 19 -53 3z"/>
<path d="M6319 13438 c-7 -13 -21 -38 -31 -56 -23 -42 -23 -54 3 -50 22 3 84
102 74 119 -11 16 -34 10 -46 -13z"/>
<path d="M2310 13388 c1 -17 96 -78 121 -78 34 0 20 27 -29 59 -50 32 -92 40
-92 19z"/>
<path d="M6960 13391 c0 -5 14 -32 31 -60 24 -38 38 -51 55 -51 13 0 24 2 24
5 0 3 -16 30 -36 60 -23 34 -44 55 -55 55 -11 0 -19 -4 -19 -9z"/>
<path d="M4220 13361 c-37 -19 -56 -35 -58 -50 -2 -11 1 -21 6 -21 19 0 114
54 119 68 12 29 -14 30 -67 3z"/>
<path d="M10155 13371 c-14 -46 34 -156 58 -132 7 7 4 30 -8 68 -10 32 -19 64
-21 71 -5 18 -22 15 -29 -7z"/>
<path d="M2533 13283 c-25 -9 -12 -24 40 -48 62 -30 87 -32 87 -7 0 22 -99 65
-127 55z"/>
<path d="M5483 13283 c-22 -8 -14 -28 30 -71 41 -40 77 -55 77 -31 0 18 -94
108 -107 102z"/>
<path d="M10755 13235 c-30 -44 -35 -59 -26 -68 10 -9 21 -2 52 33 38 43 47
79 22 87 -6 2 -28 -21 -48 -52z"/>
<path d="M3982 13258 c-29 -11 -51 -26 -49 -32 10 -29 153 10 144 39 -6 17
-40 15 -95 -7z"/>
<path d="M6156 13226 c-35 -31 -47 -48 -43 -60 6 -14 10 -15 29 -5 43 23 91
76 85 93 -9 23 -16 20 -71 -28z"/>
<path d="M7812 13223 c-42 -48 -54 -83 -29 -83 23 0 97 90 97 117 0 26 -28 12
-68 -34z"/>
<path d="M7116 13211 c-14 -22 91 -98 120 -87 24 9 16 23 -31 53 -25 15 -45
31 -45 36 0 10 -38 9 -44 -2z"/>
<path d="M2750 13191 c0 -14 8 -22 28 -26 15 -3 45 -11 66 -16 30 -8 41 -8 47
3 14 22 4 33 -37 40 -21 4 -54 10 -71 14 -29 5 -33 4 -33 -15z"/>
<path d="M3790 13200 c-8 -5 -27 -10 -41 -10 -31 0 -51 -20 -40 -39 6 -10 17
-10 47 -2 21 5 52 13 67 16 20 4 27 11 25 23 -4 20 -36 27 -58 12z"/>
<path d="M10272 13163 c4 -23 77 -64 106 -61 38 5 30 22 -23 50 -60 32 -88 35
-83 11z"/>
<path d="M2986 13151 c-11 -17 24 -33 84 -38 55 -5 60 -4 60 14 0 16 -9 22
-37 27 -54 8 -101 7 -107 -3z"/>
<path d="M3483 13153 c-7 -2 -13 -14 -13 -25 0 -20 4 -20 61 -14 62 6 94 20
83 37 -5 9 -110 11 -131 2z"/>
<path d="M10617 13144 c-3 -4 -32 -9 -63 -13 -59 -6 -71 -15 -55 -40 8 -12 18
-12 71 -1 60 13 83 31 63 51 -5 5 -12 6 -16 3z"/>
<path d="M3226 13125 c-8 -22 10 -27 85 -23 49 2 64 7 64 18 0 23 -140 27
-149 5z"/>
<path d="M5667 13134 c-24 -25 37 -64 98 -64 52 0 43 22 -17 44 -29 10 -58 20
-64 23 -5 2 -13 0 -17 -3z"/>
<path d="M5945 13110 c-27 -10 -50 -24 -50 -32 0 -19 84 -12 114 10 53 39 17
51 -64 22z"/>
<path d="M7622 13087 c-71 -25 -82 -41 -33 -45 58 -6 136 41 103 62 -4 2 -35
-6 -70 -17z"/>
<path d="M7320 13086 c0 -20 61 -46 109 -46 60 0 52 22 -14 43 -68 21 -95 22
-95 3z"/>
</g>
</svg>
