<svg version="1.1" id="Layer_1" xmlns="http://www.w3.org/2000/svg" xmlns:xlink="http://www.w3.org/1999/xlink" x="0px" y="0px"
	 width="100%" viewBox="0 0 512 512" enable-background="new 0 0 512 512" xml:space="preserve">
<path fill="#000000" opacity="1.000000" stroke="none" 
	d="
M449.000000,513.000000 
	C311.309998,513.000000 173.620026,513.000000 35.342319,512.625732 
	C33.488461,511.989624 32.176182,511.862152 30.963087,511.445740 
	C13.251184,505.365997 2.080240,490.357391 2.063616,471.172943 
	C1.944576,333.790344 1.983475,196.407562 2.042705,59.024860 
	C2.046114,51.119225 2.426918,43.194569 3.061318,35.313313 
	C3.830196,25.761419 8.780539,18.341507 15.520376,11.736100 
	C21.093422,6.274211 27.955807,3.571637 35.000000,1.000000 
	C172.689987,1.000000 310.379974,1.000000 448.534973,1.468657 
	C449.000000,12.538081 449.000000,23.138847 449.000000,34.112083 
	C470.191406,34.112083 490.861298,34.112083 511.910706,34.112083 
	C505.666626,46.654526 499.764435,58.797329 493.557281,70.782196 
	C491.948700,73.888107 492.005219,76.202827 493.626068,79.322044 
	C499.985352,91.560135 505.980408,103.987480 512.447815,117.023849 
	C490.942993,117.023849 470.090820,117.023849 448.892212,117.023849 
	C448.892212,227.253784 448.892212,336.962311 448.892212,447.000000 
	C446.245148,447.000000 443.944885,446.913177 441.653076,447.015656 
	C433.587677,447.376373 425.210541,446.556976 417.535736,448.496521 
	C406.180084,451.366241 397.961823,460.785370 400.085052,476.161804 
	C401.541840,486.711853 412.391022,496.135864 424.004425,496.016449 
	C432.266937,495.931519 440.531006,496.000000 449.000000,496.000000 
	C449.000000,502.047119 449.000000,507.523560 449.000000,513.000000 
M314.500000,18.000000 
	C238.415878,18.000000 162.331772,18.000000 85.873367,18.000000 
	C85.873367,139.266129 85.873367,259.988220 85.873367,380.745728 
	C79.755638,380.745728 74.017159,380.745728 67.909172,380.745728 
	C67.909172,259.770050 67.909172,139.048035 67.909172,18.000000 
	C59.575233,18.000000 51.608089,18.168711 43.650963,17.958370 
	C33.108101,17.679674 19.792957,29.223478 19.820686,41.632515 
	C20.111134,171.606049 20.000000,301.580444 20.000000,431.554626 
	C20.000000,433.200378 20.000000,434.846130 20.000000,435.390869 
	C27.638849,433.609741 35.298244,431.073181 43.142612,430.201843 
	C51.296276,429.296112 59.628746,430.000000 68.264595,430.000000 
	C68.264595,418.600250 68.264595,407.856812 68.264595,397.334961 
	C74.410271,397.334961 80.152954,397.334961 86.275162,397.334961 
	C86.275162,408.410339 86.275162,419.153625 86.275162,429.682800 
	C201.730148,429.682800 316.786011,429.682800 431.707275,429.682800 
	C431.707275,292.312775 431.707275,155.260132 431.707275,18.000000 
	C392.776642,18.000000 354.138306,18.000000 314.500000,18.000000 
M26.485493,487.990265 
	C31.697788,493.432373 37.940784,496.058533 45.606251,496.053284 
	C158.412521,495.975861 271.218842,496.000000 384.025177,496.000000 
	C385.831665,496.000000 387.638184,496.000000 389.798920,496.000000 
	C379.069977,479.623138 379.498413,463.351929 389.773163,447.000000 
	C275.099365,447.000000 160.960266,446.943146 46.821812,447.183563 
	C41.618130,447.194519 36.065063,449.153076 31.288691,451.470184 
	C18.961025,457.450531 15.566000,478.004669 26.485493,487.990265 
M449.000000,87.489891 
	C449.000000,91.586372 449.000000,95.682854 449.000000,99.763390 
	C460.876709,99.763390 472.201630,99.763390 483.884369,99.763390 
	C480.263611,92.557739 476.623871,85.767807 473.481781,78.754921 
	C472.655457,76.910690 472.671234,74.063644 473.499695,72.214417 
	C476.678223,65.119415 480.344421,58.242878 483.815704,51.310688 
	C471.957306,51.310688 460.559631,51.310688 449.000000,51.310688 
	C449.000000,63.244522 449.000000,74.868309 449.000000,87.489891 
z"/>
<path fill="#FFFFFF" opacity="1.000000" stroke="none" 
	d="
M449.468658,513.000000 
	C449.000000,507.523560 449.000000,502.047119 449.000000,496.000000 
	C440.531006,496.000000 432.266937,495.931519 424.004425,496.016449 
	C412.391022,496.135864 401.541840,486.711853 400.085052,476.161804 
	C397.961823,460.785370 406.180084,451.366241 417.535736,448.496521 
	C425.210541,446.556976 433.587677,447.376373 441.653076,447.015656 
	C443.944885,446.913177 446.245148,447.000000 448.892212,447.000000 
	C448.892212,336.962311 448.892212,227.253784 448.892212,117.023849 
	C470.090820,117.023849 490.942993,117.023849 512.447815,117.023849 
	C505.980408,103.987480 499.985352,91.560135 493.626068,79.322044 
	C492.005219,76.202827 491.948700,73.888107 493.557281,70.782196 
	C499.764435,58.797329 505.666626,46.654526 511.910706,34.112083 
	C490.861298,34.112083 470.191406,34.112083 449.000000,34.112083 
	C449.000000,23.138847 449.000000,12.538081 449.000000,1.468657 
	C470.318756,1.000000 491.637482,1.000000 512.951660,1.000003 
	C512.947083,171.666672 512.947083,342.333344 512.947083,513.000000 
	C491.908539,513.000000 470.922943,513.000000 449.468658,513.000000 
z"/>
<path fill="#FFFFFF" opacity="1.000000" stroke="none" 
	d="
M34.531342,1.000000 
	C27.955807,3.571637 21.093422,6.274211 15.520376,11.736100 
	C8.780539,18.341507 3.830196,25.761419 3.061318,35.313313 
	C2.426918,43.194569 2.046114,51.119225 2.042705,59.024860 
	C1.983475,196.407562 1.944576,333.790344 2.063616,471.172943 
	C2.080240,490.357391 13.251184,505.365997 30.963087,511.445740 
	C32.176182,511.862152 33.488461,511.989624 34.877304,512.625732 
	C23.675220,513.000000 12.350442,513.000000 1.043758,513.000000 
	C1.043758,342.333313 1.043758,171.666656 1.043758,1.000000 
	C12.079239,1.000000 23.070961,1.000000 34.531342,1.000000 
z"/>
<path fill="#FFFFFF" opacity="1.000000" stroke="none" 
	d="
M315.000000,18.000000 
	C354.138306,18.000000 392.776642,18.000000 431.707275,18.000000 
	C431.707275,155.260132 431.707275,292.312775 431.707275,429.682800 
	C316.786011,429.682800 201.730148,429.682800 86.275162,429.682800 
	C86.275162,419.153625 86.275162,408.410339 86.275162,397.334961 
	C80.152954,397.334961 74.410271,397.334961 68.264595,397.334961 
	C68.264595,407.856812 68.264595,418.600250 68.264595,430.000000 
	C59.628746,430.000000 51.296276,429.296112 43.142612,430.201843 
	C35.298244,431.073181 27.638849,433.609741 20.000000,435.390869 
	C20.000000,434.846130 20.000000,433.200378 20.000000,431.554626 
	C20.000000,301.580444 20.111134,171.606049 19.820686,41.632515 
	C19.792957,29.223478 33.108101,17.679674 43.650963,17.958370 
	C51.608089,18.168711 59.575233,18.000000 67.909172,18.000000 
	C67.909172,139.048035 67.909172,259.770050 67.909172,380.745728 
	C74.017159,380.745728 79.755638,380.745728 85.873367,380.745728 
	C85.873367,259.988220 85.873367,139.266129 85.873367,18.000000 
	C162.331772,18.000000 238.415878,18.000000 315.000000,18.000000 
M158.500000,166.000000 
	C139.403992,166.000000 120.307968,166.000000 101.289459,166.000000 
	C101.289459,215.979813 101.289459,265.383331 101.289459,314.712128 
	C206.313751,314.712128 311.048309,314.712128 415.710571,314.712128 
	C415.710571,265.020233 415.710571,215.616714 415.710571,166.000000 
	C330.114197,166.000000 244.807098,166.000000 158.500000,166.000000 
M143.066467,151.457672 
	C146.371567,141.265717 149.847549,131.124054 152.872009,120.849487 
	C153.720001,117.968697 154.716293,116.894165 157.756363,116.934113 
	C169.909012,117.093765 182.066254,117.094284 194.218872,116.933556 
	C197.247375,116.893494 198.283508,117.933701 199.122116,120.826637 
	C202.237839,131.575043 205.775223,142.201218 209.105911,152.720581 
	C214.973663,150.919724 220.529068,149.214737 225.892548,147.568665 
	C222.729980,137.260406 219.699524,127.382698 216.501541,116.958992 
	C220.095108,116.958992 222.859604,116.958992 225.800125,116.958992 
	C225.800125,111.202713 225.800125,105.797195 225.800125,99.999771 
	C221.658188,99.999771 217.689880,100.192131 213.760147,99.887154 
	C212.517792,99.790741 210.635391,98.593437 210.303009,97.513161 
	C204.744751,79.447998 199.226028,61.366993 194.050598,43.189266 
	C191.460236,34.091091 191.780182,34.000000 182.143768,34.000000 
	C180.645233,34.000000 179.146332,33.978485 177.648224,34.003849 
	C172.173340,34.096542 165.384521,32.285419 161.609375,34.870171 
	C158.131042,37.251701 157.784668,44.330307 156.243912,49.396225 
	C151.442795,65.182121 146.719070,80.991600 141.993805,96.800438 
	C141.316391,99.066788 140.216125,100.262909 137.544632,100.068825 
	C133.793228,99.796280 130.007217,99.999962 126.258423,99.999962 
	C126.258423,105.946449 126.258423,111.355095 126.258423,117.076675 
	C129.292511,117.076675 132.071533,117.076675 135.466721,117.076675 
	C132.258850,127.557388 129.190506,137.582260 126.045937,147.856125 
	C131.820480,149.353714 137.393234,150.798950 143.066467,151.457672 
M311.061157,97.593071 
	C309.427826,95.500626 307.794495,93.408188 306.184723,91.345932 
	C320.403046,78.724068 319.987244,55.190338 306.345978,42.745544 
	C300.174133,37.115028 293.191315,34.067440 284.913940,34.017597 
	C273.332794,33.947853 261.750946,34.000000 250.269135,34.000000 
	C250.269135,72.991386 250.269135,111.368896 250.269135,150.000000 
	C260.998932,150.000000 271.464539,149.846939 281.922974,150.054474 
	C288.758026,150.190109 294.897278,148.532364 300.788544,145.070496 
	C312.173981,138.380081 316.994019,127.907677 316.714844,115.455261 
	C316.584320,109.632904 313.411804,103.878738 311.061157,97.593071 
M127.500549,331.000000 
	C121.402344,331.000000 115.304138,331.000000 109.291916,331.000000 
	C109.291916,336.985657 109.291916,342.391479 109.291916,347.712006 
	C208.984131,347.712006 308.384155,347.712006 407.708008,347.712006 
	C407.708008,342.014160 407.708008,336.608337 407.708008,331.000000 
	C314.444244,331.000000 221.472336,331.000000 127.500549,331.000000 
M355.500000,364.000000 
	C273.409088,364.000000 191.318192,364.000000 109.285980,364.000000 
	C109.285980,369.973846 109.285980,375.379425 109.285980,380.718018 
	C208.972168,380.718018 308.372131,380.718018 407.714020,380.718018 
	C407.714020,375.026154 407.714020,369.620544 407.714020,364.000000 
	C390.452637,364.000000 373.476318,364.000000 355.500000,364.000000 
M189.500000,414.000000 
	C251.258453,414.000000 313.016907,414.000000 374.712982,414.000000 
	C374.712982,408.023987 374.712982,402.618408 374.712982,397.283081 
	C286.025665,397.283081 197.625687,397.283081 109.287010,397.283081 
	C109.287010,402.975952 109.287010,408.381561 109.287010,414.000000 
	C135.882278,414.000000 162.191132,414.000000 189.500000,414.000000 
M352.997955,106.369247 
	C347.814972,93.168823 349.481323,80.829742 357.351807,69.093269 
	C365.382568,57.117737 377.281250,52.279510 390.662292,50.729454 
	C390.662292,44.894310 390.662292,39.480896 390.662292,33.758995 
	C367.576996,34.112202 350.376556,44.259804 339.716736,63.995556 
	C327.478210,86.654076 329.983765,109.036926 345.829559,129.017746 
	C357.024078,143.133530 372.449768,150.098358 391.000000,150.004456 
	C391.000000,145.167358 390.804504,140.999588 391.058807,136.859451 
	C391.282013,133.226151 390.086121,132.110855 386.323730,131.822800 
	C381.919647,131.485657 377.249146,130.540573 373.345856,128.569046 
	C364.153503,123.926117 357.115875,116.855141 352.997955,106.369247 
M396.556641,397.000000 
	C394.453430,397.000000 392.350220,397.000000 390.269470,397.000000 
	C390.269470,402.944061 390.269470,408.348267 390.269470,413.728943 
	C396.280426,413.728943 402.017731,413.728943 407.727173,413.728943 
	C407.727173,408.049286 407.727173,402.645111 407.727173,397.000000 
	C404.150360,397.000000 400.843872,397.000000 396.556641,397.000000 
z"/>
<path fill="#FFFFFF" opacity="1.000000" stroke="none" 
	d="
M26.232189,487.728394 
	C15.566000,478.004669 18.961025,457.450531 31.288691,451.470184 
	C36.065063,449.153076 41.618130,447.194519 46.821812,447.183563 
	C160.960266,446.943146 275.099365,447.000000 389.773163,447.000000 
	C379.498413,463.351929 379.069977,479.623138 389.798920,496.000000 
	C387.638184,496.000000 385.831665,496.000000 384.025177,496.000000 
	C271.218842,496.000000 158.412521,495.975861 45.606251,496.053284 
	C37.940784,496.058533 31.697788,493.432373 26.232189,487.728394 
M272.500000,480.000000 
	C303.594391,480.000000 334.688782,480.000000 365.709900,480.000000 
	C365.709900,474.017944 365.709900,468.612213 365.709900,463.286133 
	C266.352905,463.286133 167.286240,463.286133 68.290146,463.286133 
	C68.290146,468.982117 68.290146,474.387848 68.290146,480.000000 
	C136.220047,480.000000 203.860016,480.000000 272.500000,480.000000 
M35.000000,470.526733 
	C35.000000,473.628082 35.000000,476.729401 35.000000,479.700623 
	C41.337017,479.700623 47.076092,479.700623 52.698128,479.700623 
	C52.698128,473.991882 52.698128,468.586456 52.698128,463.304321 
	C46.653214,463.304321 40.913807,463.304321 35.000000,463.304321 
	C35.000000,465.587646 35.000000,467.570648 35.000000,470.526733 
z"/>
<path fill="#FFFFFF" opacity="1.000000" stroke="none" 
	d="
M449.000000,86.990997 
	C449.000000,74.868309 449.000000,63.244522 449.000000,51.310688 
	C460.559631,51.310688 471.957306,51.310688 483.815704,51.310688 
	C480.344421,58.242878 476.678223,65.119415 473.499695,72.214417 
	C472.671234,74.063644 472.655457,76.910690 473.481781,78.754921 
	C476.623871,85.767807 480.263611,92.557739 483.884369,99.763390 
	C472.201630,99.763390 460.876709,99.763390 449.000000,99.763390 
	C449.000000,95.682854 449.000000,91.586372 449.000000,86.990997 
z"/>
<path fill="#000000" opacity="1.000000" stroke="none" 
	d="
M159.000000,166.000000 
	C244.807098,166.000000 330.114197,166.000000 415.710571,166.000000 
	C415.710571,215.616714 415.710571,265.020233 415.710571,314.712128 
	C311.048309,314.712128 206.313751,314.712128 101.289459,314.712128 
	C101.289459,265.383331 101.289459,215.979813 101.289459,166.000000 
	C120.307968,166.000000 139.403992,166.000000 159.000000,166.000000 
M119.000000,290.439453 
	C119.000000,292.877045 119.000000,295.314636 119.000000,297.732300 
	C212.270966,297.732300 305.006683,297.732300 397.729614,297.732300 
	C397.729614,259.393127 397.729614,221.322281 397.729614,183.270599 
	C304.723267,183.270599 211.987518,183.270599 119.000000,183.270599 
	C119.000000,218.845718 119.000000,254.150848 119.000000,290.439453 
z"/>
<path fill="#000000" opacity="1.000000" stroke="none" 
	d="
M143.016235,151.850937 
	C137.393234,150.798950 131.820480,149.353714 126.045937,147.856125 
	C129.190506,137.582260 132.258850,127.557388 135.466721,117.076675 
	C132.071533,117.076675 129.292511,117.076675 126.258423,117.076675 
	C126.258423,111.355095 126.258423,105.946449 126.258423,99.999962 
	C130.007217,99.999962 133.793228,99.796280 137.544632,100.068825 
	C140.216125,100.262909 141.316391,99.066788 141.993805,96.800438 
	C146.719070,80.991600 151.442795,65.182121 156.243912,49.396225 
	C157.784668,44.330307 158.131042,37.251701 161.609375,34.870171 
	C165.384521,32.285419 172.173340,34.096542 177.648224,34.003849 
	C179.146332,33.978485 180.645233,34.000000 182.143768,34.000000 
	C191.780182,34.000000 191.460236,34.091091 194.050598,43.189266 
	C199.226028,61.366993 204.744751,79.447998 210.303009,97.513161 
	C210.635391,98.593437 212.517792,99.790741 213.760147,99.887154 
	C217.689880,100.192131 221.658188,99.999771 225.800125,99.999771 
	C225.800125,105.797195 225.800125,111.202713 225.800125,116.958992 
	C222.859604,116.958992 220.095108,116.958992 216.501541,116.958992 
	C219.699524,127.382698 222.729980,137.260406 225.892548,147.568665 
	C220.529068,149.214737 214.973663,150.919724 209.105911,152.720581 
	C205.775223,142.201218 202.237839,131.575043 199.122116,120.826637 
	C198.283508,117.933701 197.247375,116.893494 194.218872,116.933556 
	C182.066254,117.094284 169.909012,117.093765 157.756363,116.934113 
	C154.716293,116.894165 153.720001,117.968697 152.872009,120.849487 
	C149.847549,131.124054 146.371567,141.265717 143.016235,151.850937 
M183.489548,69.991707 
	C181.989487,65.085381 180.602173,60.140007 178.924438,55.295200 
	C178.382004,53.728794 177.077240,52.426380 176.121185,51.003212 
	C175.088730,52.345715 173.636093,53.540054 173.100861,55.057896 
	C171.342819,60.043289 169.909836,65.143692 168.366318,70.204277 
	C165.357849,80.067886 162.359116,89.934471 159.333542,99.874771 
	C170.674072,99.874771 181.621475,99.874771 192.599487,99.874771 
	C189.695847,90.059578 186.828842,80.368172 183.489548,69.991707 
z"/>
<path fill="#000000" opacity="1.000000" stroke="none" 
	d="
M311.339600,97.843369 
	C313.411804,103.878738 316.584320,109.632904 316.714844,115.455261 
	C316.994019,127.907677 312.173981,138.380081 300.788544,145.070496 
	C294.897278,148.532364 288.758026,150.190109 281.922974,150.054474 
	C271.464539,149.846939 260.998932,150.000000 250.269135,150.000000 
	C250.269135,111.368896 250.269135,72.991386 250.269135,34.000000 
	C261.750946,34.000000 273.332794,33.947853 284.913940,34.017597 
	C293.191315,34.067440 300.174133,37.115028 306.345978,42.745544 
	C319.987244,55.190338 320.403046,78.724068 306.184723,91.345932 
	C307.794495,93.408188 309.427826,95.500626 311.339600,97.843369 
M267.000000,55.622673 
	C267.000000,64.702271 267.000000,73.781868 267.000000,82.999939 
	C273.119598,82.999939 278.600525,83.055870 284.079865,82.986816 
	C292.274536,82.883545 299.919891,73.941628 299.170013,66.361252 
	C298.379333,58.368595 292.008179,51.205452 283.834473,51.018433 
	C279.342468,50.915649 274.833221,51.207542 270.356262,50.928555 
	C267.274170,50.736496 266.609955,52.051006 267.000000,55.622673 
M298.177795,111.706841 
	C296.235046,109.070564 294.772980,105.788391 292.260040,103.918243 
	C284.494598,98.139114 275.548126,102.166122 267.325317,100.972900 
	C267.325317,112.073517 267.325317,122.471748 267.325317,133.471649 
	C273.395325,132.974945 279.194458,133.003082 284.785431,131.938202 
	C296.414368,129.723343 299.607544,124.908150 298.177795,111.706841 
z"/>
<path fill="#000000" opacity="1.000000" stroke="none" 
	d="
M128.000488,331.000000 
	C221.472336,331.000000 314.444244,331.000000 407.708008,331.000000 
	C407.708008,336.608337 407.708008,342.014160 407.708008,347.712006 
	C308.384155,347.712006 208.984131,347.712006 109.291916,347.712006 
	C109.291916,342.391479 109.291916,336.985657 109.291916,331.000000 
	C115.304138,331.000000 121.402344,331.000000 128.000488,331.000000 
z"/>
<path fill="#000000" opacity="1.000000" stroke="none" 
	d="
M356.000000,364.000000 
	C373.476318,364.000000 390.452637,364.000000 407.714020,364.000000 
	C407.714020,369.620544 407.714020,375.026154 407.714020,380.718018 
	C308.372131,380.718018 208.972168,380.718018 109.285980,380.718018 
	C109.285980,375.379425 109.285980,369.973846 109.285980,364.000000 
	C191.318192,364.000000 273.409088,364.000000 356.000000,364.000000 
z"/>
<path fill="#000000" opacity="1.000000" stroke="none" 
	d="
M189.000000,414.000000 
	C162.191132,414.000000 135.882278,414.000000 109.287010,414.000000 
	C109.287010,408.381561 109.287010,402.975952 109.287010,397.283081 
	C197.625687,397.283081 286.025665,397.283081 374.712982,397.283081 
	C374.712982,402.618408 374.712982,408.023987 374.712982,414.000000 
	C313.016907,414.000000 251.258453,414.000000 189.000000,414.000000 
z"/>
<path fill="#000000" opacity="1.000000" stroke="none" 
	d="
M353.011566,106.773041 
	C357.115875,116.855141 364.153503,123.926117 373.345856,128.569046 
	C377.249146,130.540573 381.919647,131.485657 386.323730,131.822800 
	C390.086121,132.110855 391.282013,133.226151 391.058807,136.859451 
	C390.804504,140.999588 391.000000,145.167358 391.000000,150.004456 
	C372.449768,150.098358 357.024078,143.133530 345.829559,129.017746 
	C329.983765,109.036926 327.478210,86.654076 339.716736,63.995556 
	C350.376556,44.259804 367.576996,34.112202 390.662292,33.758995 
	C390.662292,39.480896 390.662292,44.894310 390.662292,50.729454 
	C377.281250,52.279510 365.382568,57.117737 357.351807,69.093269 
	C349.481323,80.829742 347.814972,93.168823 353.011566,106.773041 
z"/>
<path fill="#000000" opacity="1.000000" stroke="none" 
	d="
M397.046997,397.000000 
	C400.843872,397.000000 404.150360,397.000000 407.727173,397.000000 
	C407.727173,402.645111 407.727173,408.049286 407.727173,413.728943 
	C402.017731,413.728943 396.280426,413.728943 390.269470,413.728943 
	C390.269470,408.348267 390.269470,402.944061 390.269470,397.000000 
	C392.350220,397.000000 394.453430,397.000000 397.046997,397.000000 
z"/>
<path fill="#000000" opacity="1.000000" stroke="none" 
	d="
M272.000000,480.000000 
	C203.860016,480.000000 136.220047,480.000000 68.290146,480.000000 
	C68.290146,474.387848 68.290146,468.982117 68.290146,463.286133 
	C167.286240,463.286133 266.352905,463.286133 365.709900,463.286133 
	C365.709900,468.612213 365.709900,474.017944 365.709900,480.000000 
	C334.688782,480.000000 303.594391,480.000000 272.000000,480.000000 
z"/>
<path fill="#000000" opacity="1.000000" stroke="none" 
	d="
M35.000000,470.040192 
	C35.000000,467.570648 35.000000,465.587646 35.000000,463.304321 
	C40.913807,463.304321 46.653214,463.304321 52.698128,463.304321 
	C52.698128,468.586456 52.698128,473.991882 52.698128,479.700623 
	C47.076092,479.700623 41.337017,479.700623 35.000000,479.700623 
	C35.000000,476.729401 35.000000,473.628082 35.000000,470.040192 
z"/>
<path fill="#FFFFFF" opacity="1.000000" stroke="none" 
	d="
M119.000000,289.947693 
	C119.000000,254.150848 119.000000,218.845718 119.000000,183.270599 
	C211.987518,183.270599 304.723267,183.270599 397.729614,183.270599 
	C397.729614,221.322281 397.729614,259.393127 397.729614,297.732300 
	C305.006683,297.732300 212.270966,297.732300 119.000000,297.732300 
	C119.000000,295.314636 119.000000,292.877045 119.000000,289.947693 
z"/>
<path fill="#FFFFFF" opacity="1.000000" stroke="none" 
	d="
M183.725693,70.334236 
	C186.828842,80.368172 189.695847,90.059578 192.599487,99.874771 
	C181.621475,99.874771 170.674072,99.874771 159.333542,99.874771 
	C162.359116,89.934471 165.357849,80.067886 168.366318,70.204277 
	C169.909836,65.143692 171.342819,60.043289 173.100861,55.057896 
	C173.636093,53.540054 175.088730,52.345715 176.121185,51.003212 
	C177.077240,52.426380 178.382004,53.728794 178.924438,55.295200 
	C180.602173,60.140007 181.989487,65.085381 183.725693,70.334236 
z"/>
<path fill="#FFFFFF" opacity="1.000000" stroke="none" 
	d="
M267.000000,55.137222 
	C266.609955,52.051006 267.274170,50.736496 270.356262,50.928555 
	C274.833221,51.207542 279.342468,50.915649 283.834473,51.018433 
	C292.008179,51.205452 298.379333,58.368595 299.170013,66.361252 
	C299.919891,73.941628 292.274536,82.883545 284.079865,82.986816 
	C278.600525,83.055870 273.119598,82.999939 267.000000,82.999939 
	C267.000000,73.781868 267.000000,64.702271 267.000000,55.137222 
z"/>
<path fill="#FFFFFF" opacity="1.000000" stroke="none" 
	d="
M298.485413,111.988968 
	C299.607544,124.908150 296.414368,129.723343 284.785431,131.938202 
	C279.194458,133.003082 273.395325,132.974945 267.325317,133.471649 
	C267.325317,122.471748 267.325317,112.073517 267.325317,100.972900 
	C275.548126,102.166122 284.494598,98.139114 292.260040,103.918243 
	C294.772980,105.788391 296.235046,109.070564 298.485413,111.988968 
z"/>
</svg>