<?xml version="1.0" standalone="no"?>
<!DOCTYPE svg PUBLIC "-//W3C//DTD SVG 20010904//EN"
 "http://www.w3.org/TR/2001/REC-SVG-20010904/DTD/svg10.dtd">
<svg version="1.0" xmlns="http://www.w3.org/2000/svg"
 width="512.000000pt" height="512.000000pt" viewBox="0 0 512.000000 512.000000"
 preserveAspectRatio="xMidYMid meet">

<g transform="translate(0.000000,512.000000) scale(0.100000,-0.100000)"
fill="#000000" stroke="none">
<path d="M342 5109 c-114 -22 -232 -117 -286 -229 l-31 -65 0 -2255 0 -2255
31 -65 c55 -116 171 -207 294 -230 34 -6 769 -10 2092 -10 l2039 0 -3 82 -3
83 -165 5 c-184 6 -201 11 -262 78 -114 126 -79 306 76 390 24 13 67 18 191
22 l160 5 3 1648 2 1647 310 0 c171 0 310 2 310 5 0 3 -46 96 -101 208 l-101
202 101 203 c55 111 101 204 101 207 0 3 -139 5 -310 5 l-310 0 0 165 0 165
-2047 -1 c-1127 -1 -2067 -5 -2091 -10z m338 -1974 l0 -1815 80 0 80 0 0 1815
0 1815 1735 0 1735 0 0 -2060 0 -2060 -1735 0 -1735 0 0 165 0 165 -80 0 -80
0 0 -165 0 -165 -117 0 c-158 0 -245 -14 -317 -50 -32 -17 -61 -30 -63 -30 -2
0 -2 906 -1 2013 l3 2012 22 40 c12 22 36 54 55 72 57 55 86 62 261 63 l157 0
0 -1815z m4149 1478 c0 -5 -26 -60 -58 -123 l-59 -115 59 -117 c33 -65 59
-120 59 -123 0 -3 -79 -5 -175 -5 l-175 0 0 245 0 245 175 0 c96 0 175 -3 174
-7z m-949 -3983 c-76 -106 -82 -286 -14 -409 13 -24 24 -45 24 -47 0 -2 -792
-4 -1760 -4 -1944 0 -1797 -5 -1868 63 -108 103 -103 278 9 369 75 61 -43 57
1872 58 l1758 0 -21 -30z"/>
<path d="M1505 4463 l-100 -328 -78 -3 -78 -3 3 -82 3 -82 48 -3 c44 -3 47 -5
41 -25 -45 -142 -82 -271 -79 -277 2 -4 32 -15 67 -25 34 -9 67 -19 73 -21 7
-3 32 62 65 171 l53 175 227 0 227 0 53 -175 c33 -109 58 -174 65 -171 6 2 39
12 73 21 35 10 64 21 67 25 2 3 -16 71 -41 151 -24 79 -44 145 -44 146 0 1 21
3 48 5 l47 3 0 80 0 80 -75 5 -75 5 -100 325 -101 325 -144 3 -145 2 -100
-327z m342 -83 c40 -129 73 -238 73 -242 0 -5 -76 -8 -170 -8 -93 0 -170 3
-170 6 0 9 141 468 147 477 3 5 14 7 26 5 19 -3 31 -33 94 -238z"/>
<path d="M2492 4213 l3 -578 155 -3 c85 -2 184 2 220 8 168 29 280 159 280
324 0 77 -18 132 -65 197 -19 27 -35 53 -35 57 0 5 10 17 22 28 11 10 34 47
50 81 73 160 1 351 -161 430 -55 27 -60 28 -264 31 l-207 4 2 -579z m419 384
c19 -12 44 -42 57 -67 29 -56 24 -118 -14 -167 -40 -52 -76 -66 -191 -71
l-103 -5 0 167 0 166 109 0 c95 0 112 -3 142 -23z m-17 -487 c118 -57 124
-223 10 -287 -33 -19 -54 -23 -141 -23 l-103 0 0 165 0 165 97 0 c76 0 105 -4
137 -20z"/>
<path d="M3772 4775 c-164 -36 -315 -154 -394 -308 -53 -105 -71 -266 -43
-386 56 -236 274 -427 505 -442 l55 -4 3 81 3 81 -51 7 c-255 34 -418 283
-346 525 46 156 197 280 356 293 l35 3 3 83 3 82 -33 -1 c-18 0 -61 -7 -96
-14z"/>
<path d="M1010 2725 l0 -745 1565 0 1565 0 0 745 0 745 -1565 0 -1565 0 0
-745z m2970 0 l0 -575 -1405 0 -1405 0 0 575 0 575 1405 0 1405 0 0 -575z"/>
<path d="M1090 1735 l0 -85 1485 0 1485 0 0 85 0 85 -1485 0 -1485 0 0 -85z"/>
<path d="M1090 1405 l0 -85 1485 0 1485 0 0 85 0 85 -1485 0 -1485 0 0 -85z"/>
<path d="M1090 1075 l0 -85 1320 0 1320 0 0 85 0 85 -1320 0 -1320 0 0 -85z"/>
<path d="M3900 1075 l0 -85 80 0 80 0 0 85 0 85 -80 0 -80 0 0 -85z"/>
<path d="M350 415 l0 -85 80 0 80 0 0 85 0 85 -80 0 -80 0 0 -85z"/>
<path d="M680 415 l0 -85 1485 0 1485 0 0 85 0 85 -1485 0 -1485 0 0 -85z"/>
</g>
</svg>
