<svg version="1.1" id="Layer_1" xmlns="http://www.w3.org/2000/svg" xmlns:xlink="http://www.w3.org/1999/xlink" x="0px" y="0px"
	 width="100%" viewBox="0 0 205 159" enable-background="new 0 0 205 159" xml:space="preserve">
<path fill="#FDFDFD" opacity="1.000000" stroke="none" 
	d="
M0.999998,149.000000 
	C1.000000,99.735046 1.000000,50.470097 1.000000,1.000000 
	C56.687393,1.000000 112.375038,1.000000 168.502075,1.467873 
	C168.941483,13.860417 168.941483,25.785089 168.941483,38.000000 
	C181.723663,38.000000 193.861832,38.000000 206.000000,38.000000 
	C206.000000,78.544426 206.000000,119.088844 206.000000,160.000000 
	C198.316345,160.000000 190.626862,160.000000 182.547028,159.650070 
	C189.743362,156.220749 191.009979,151.548264 185.916733,145.419678 
	C182.620438,141.453339 179.487488,137.333954 175.971573,133.572708 
	C172.951721,130.342133 171.696365,126.926765 171.875366,122.421913 
	C172.236557,113.331406 171.982971,104.216469 171.982971,95.324188 
	C168.385544,95.324188 165.343689,95.324188 162.177170,95.324188 
	C162.177170,101.892639 162.199997,108.044151 162.170807,114.195419 
	C162.141098,120.458832 160.380432,122.338593 154.239105,122.343315 
	C114.929947,122.373550 75.620750,122.373741 36.311584,122.346298 
	C30.203650,122.342033 28.222971,120.343719 28.215660,114.290291 
	C28.187895,91.304451 28.188135,68.318542 28.214546,45.332691 
	C28.221712,39.096287 30.263237,37.156868 36.754421,37.149849 
	C56.242424,37.128784 75.730469,37.142277 95.218491,37.142288 
	C98.009628,37.142292 100.800766,37.142292 103.621643,37.142292 
	C103.621643,34.874641 103.621643,33.024311 103.621643,31.030571 
	C78.283028,31.030571 53.308510,31.028053 28.333994,31.032032 
	C20.343275,31.033306 18.448353,32.962940 18.446127,41.146637 
	C18.438557,68.962875 18.460489,96.779160 18.402391,124.595276 
	C18.398741,126.343971 18.374369,128.550583 17.393787,129.762955 
	C12.097362,136.311325 6.496127,142.613159 0.999998,149.000000 
M182.407440,57.096756 
	C174.285294,57.096756 166.163147,57.096756 157.882004,57.096756 
	C157.882004,67.240257 157.882004,76.944191 157.882004,86.755615 
	C167.762024,86.755615 177.355865,86.755615 187.089264,86.755615 
	C187.089264,76.845665 187.089264,67.143196 187.089264,57.096642 
	C185.657608,57.096642 184.522293,57.096642 182.407440,57.096756 
M159.242325,27.321280 
	C152.624832,27.321280 146.007324,27.321280 139.314987,27.321280 
	C139.314987,35.782452 139.314987,43.691116 139.314987,51.612617 
	C147.610870,51.612617 155.650009,51.612617 163.853302,51.612617 
	C163.853302,44.423248 163.690948,37.599777 163.927185,30.790138 
	C164.032791,27.746330 162.839828,26.954876 159.242325,27.321280 
M143.169739,4.981658 
	C143.169739,10.222428 143.169739,15.463199 143.169739,20.576950 
	C149.419540,20.576950 154.847290,20.576950 160.384109,20.576950 
	C160.384109,14.759665 160.384109,9.225420 160.384109,3.039995 
	C154.467758,3.404181 148.916275,3.745908 143.169739,4.981658 
M130.382660,73.822327 
	C132.159103,73.822327 133.935547,73.822327 135.715149,73.822327 
	C135.715149,67.739906 135.715149,62.200703 135.715149,56.915672 
	C129.923294,56.915672 124.522057,56.915672 119.218491,56.915672 
	C119.218491,62.673279 119.218491,68.084961 119.218491,73.821884 
	C122.824570,73.821884 126.123901,73.821884 130.382660,73.822327 
M112.029961,49.290459 
	C112.819435,50.181652 113.571198,51.800644 114.404602,51.843822 
	C119.177681,52.091118 123.970154,51.964043 128.812881,51.964043 
	C128.812881,46.009758 128.812881,40.480419 128.812881,35.116905 
	C123.057854,35.116905 117.651482,35.116905 112.031067,35.116905 
	C112.031067,39.715919 112.031067,44.020580 112.029961,49.290459 
M134.724091,84.492104 
	C134.724091,87.236076 134.724091,89.980049 134.724091,92.623322 
	C140.802368,92.623322 146.315872,92.623322 151.668335,92.623322 
	C151.668335,86.869492 151.668335,81.480446 151.668335,76.205322 
	C145.851593,76.205322 140.323059,76.205322 134.724091,76.205322 
	C134.724091,78.871651 134.724091,81.186256 134.724091,84.492104 
M100.444473,76.974831 
	C102.694260,76.974831 104.944054,76.974831 107.134109,76.974831 
	C107.134109,71.758865 107.134109,67.198044 107.134109,62.689682 
	C102.249504,62.689682 97.693100,62.689682 93.247894,62.689682 
	C93.247894,67.613052 93.247894,72.178467 93.247894,76.974808 
	C95.550964,76.974808 97.522575,76.974808 100.444473,76.974831 
M92.321808,82.371284 
	C89.570061,82.371284 86.818314,82.371284 84.148056,82.371284 
	C84.148056,87.618134 84.148056,92.180046 84.148056,96.643616 
	C89.008423,96.643616 93.545708,96.643616 98.011971,96.643616 
	C98.011971,91.726395 98.011971,87.146217 98.011971,82.371788 
	C96.214500,82.371788 94.726837,82.371788 92.321808,82.371284 
M108.735031,95.175819 
	C113.007019,95.175819 117.278999,95.175819 121.572067,95.175819 
	C121.572067,90.067566 121.572067,85.505142 121.572067,81.017639 
	C116.679924,81.017639 112.091042,81.017639 106.909302,81.017639 
	C107.219398,85.878883 107.509544,90.427444 108.735031,95.175819 
z"/>
<path fill="#050507" opacity="1.000000" stroke="none" 
	d="
M0.999998,149.482956 
	C6.496127,142.613159 12.097362,136.311325 17.393787,129.762955 
	C18.374369,128.550583 18.398741,126.343971 18.402391,124.595276 
	C18.460489,96.779160 18.438557,68.962875 18.446127,41.146637 
	C18.448353,32.962940 20.343275,31.033306 28.333994,31.032032 
	C53.308510,31.028053 78.283028,31.030571 103.621643,31.030571 
	C103.621643,33.024311 103.621643,34.874641 103.621643,37.142292 
	C100.800766,37.142292 98.009628,37.142292 95.218491,37.142288 
	C75.730469,37.142277 56.242424,37.128784 36.754421,37.149849 
	C30.263237,37.156868 28.221712,39.096287 28.214546,45.332691 
	C28.188135,68.318542 28.187895,91.304451 28.215660,114.290291 
	C28.222971,120.343719 30.203650,122.342033 36.311584,122.346298 
	C75.620750,122.373741 114.929947,122.373550 154.239105,122.343315 
	C160.380432,122.338593 162.141098,120.458832 162.170807,114.195419 
	C162.199997,108.044151 162.177170,101.892639 162.177170,95.324188 
	C165.343689,95.324188 168.385544,95.324188 171.982971,95.324188 
	C171.982971,104.216469 172.236557,113.331406 171.875366,122.421913 
	C171.696365,126.926765 172.951721,130.342133 175.971573,133.572708 
	C179.487488,137.333954 182.620438,141.453339 185.916733,145.419678 
	C191.009979,151.548264 189.743362,156.220749 182.078339,159.650070 
	C180.933334,160.000000 179.866653,160.000000 178.104706,159.704620 
	C176.432800,159.273987 175.456238,159.020752 174.479568,159.020401 
	C121.046158,159.001236 67.612740,158.995712 14.179380,159.044876 
	C12.785963,159.046158 11.393115,159.667725 10.000000,160.000000 
	C7.071679,160.000000 4.143358,160.000000 1.000000,160.000000 
	C1.000000,156.657028 1.000000,153.311462 0.999998,149.482956 
M121.895157,146.944717 
	C120.074379,143.590195 117.214996,142.971085 113.565834,143.036072 
	C101.264458,143.255142 88.949516,143.366653 76.654938,143.004288 
	C71.411690,142.849762 69.143272,145.543350 66.969391,149.761551 
	C79.083878,149.761551 90.702492,149.761200 102.321114,149.761688 
	C108.473747,149.761948 114.626534,149.787476 120.778877,149.745682 
	C122.087456,149.736801 124.525345,150.329071 121.895157,146.944717 
M108.774857,156.715027 
	C109.502968,155.966141 110.231087,155.217255 110.959198,154.468369 
	C109.830559,153.961578 108.708717,153.033936 107.572205,153.015610 
	C99.619164,152.887360 91.661407,152.864410 83.709587,153.025864 
	C82.346581,153.053543 81.004745,154.124283 79.653130,154.713181 
	C81.107727,155.399506 82.548660,156.643219 84.019203,156.679260 
	C91.969505,156.874161 99.927124,156.770020 108.774857,156.715027 
z"/>
<path fill="#020204" opacity="1.000000" stroke="none" 
	d="
M206.000000,37.531342 
	C193.861832,38.000000 181.723663,38.000000 168.941483,38.000000 
	C168.941483,25.785089 168.941483,13.860417 168.970734,1.467873 
	C169.444443,1.000000 169.888901,1.000000 170.961380,1.296158 
	C183.059616,1.728211 194.529800,1.864105 206.000000,2.000000 
	C206.000000,13.687561 206.000000,25.375122 206.000000,37.531342 
z"/>
<path fill="#0C0C0D" opacity="1.000000" stroke="none" 
	d="
M10.468658,160.000000 
	C11.393115,159.667725 12.785963,159.046158 14.179380,159.044876 
	C67.612740,158.995712 121.046158,159.001236 174.479568,159.020401 
	C175.456238,159.020752 176.432800,159.273987 177.704712,159.704620 
	C122.312439,160.000000 66.624878,160.000000 10.468658,160.000000 
z"/>
<path fill="#0A0A0C" opacity="1.000000" stroke="none" 
	d="
M206.000000,1.500000 
	C194.529800,1.864105 183.059616,1.728211 171.294708,1.296158 
	C182.666672,1.000000 194.333328,1.000000 206.000000,1.500000 
z"/>
<path fill="#030304" opacity="1.000000" stroke="none" 
	d="
M182.897217,57.096699 
	C184.522293,57.096642 185.657608,57.096642 187.089264,57.096642 
	C187.089264,67.143196 187.089264,76.845665 187.089264,86.755615 
	C177.355865,86.755615 167.762024,86.755615 157.882004,86.755615 
	C157.882004,76.944191 157.882004,67.240257 157.882004,57.096756 
	C166.163147,57.096756 174.285294,57.096756 182.897217,57.096699 
z"/>
<path fill="#09090B" opacity="1.000000" stroke="none" 
	d="
M159.710846,27.321289 
	C162.839828,26.954876 164.032791,27.746330 163.927185,30.790138 
	C163.690948,37.599777 163.853302,44.423248 163.853302,51.612617 
	C155.650009,51.612617 147.610870,51.612617 139.314987,51.612617 
	C139.314987,43.691116 139.314987,35.782452 139.314987,27.321280 
	C146.007324,27.321280 152.624832,27.321280 159.710846,27.321289 
z"/>
<path fill="#131315" opacity="1.000000" stroke="none" 
	d="
M143.267258,4.534647 
	C148.916275,3.745908 154.467758,3.404181 160.384109,3.039995 
	C160.384109,9.225420 160.384109,14.759665 160.384109,20.576950 
	C154.847290,20.576950 149.419540,20.576950 143.169739,20.576950 
	C143.169739,15.463199 143.169739,10.222428 143.267258,4.534647 
z"/>
<path fill="#050506" opacity="1.000000" stroke="none" 
	d="
M129.902954,73.822105 
	C126.123901,73.821884 122.824570,73.821884 119.218491,73.821884 
	C119.218491,68.084961 119.218491,62.673279 119.218491,56.915672 
	C124.522057,56.915672 129.923294,56.915672 135.715149,56.915672 
	C135.715149,62.200703 135.715149,67.739906 135.715149,73.822327 
	C133.935547,73.822327 132.159103,73.822327 129.902954,73.822105 
z"/>
<path fill="#020204" opacity="1.000000" stroke="none" 
	d="
M112.030518,48.807850 
	C112.031067,44.020580 112.031067,39.715919 112.031067,35.116905 
	C117.651482,35.116905 123.057854,35.116905 128.812881,35.116905 
	C128.812881,40.480419 128.812881,46.009758 128.812881,51.964043 
	C123.970154,51.964043 119.177681,52.091118 114.404602,51.843822 
	C113.571198,51.800644 112.819435,50.181652 112.030518,48.807850 
z"/>
<path fill="#030304" opacity="1.000000" stroke="none" 
	d="
M134.724091,83.996475 
	C134.724091,81.186256 134.724091,78.871651 134.724091,76.205322 
	C140.323059,76.205322 145.851593,76.205322 151.668335,76.205322 
	C151.668335,81.480446 151.668335,86.869492 151.668335,92.623322 
	C146.315872,92.623322 140.802368,92.623322 134.724091,92.623322 
	C134.724091,89.980049 134.724091,87.236076 134.724091,83.996475 
z"/>
<path fill="#0A0A0C" opacity="1.000000" stroke="none" 
	d="
M99.969330,76.974823 
	C97.522575,76.974808 95.550964,76.974808 93.247894,76.974808 
	C93.247894,72.178467 93.247894,67.613052 93.247894,62.689682 
	C97.693100,62.689682 102.249504,62.689682 107.134109,62.689682 
	C107.134109,67.198044 107.134109,71.758865 107.134109,76.974831 
	C104.944054,76.974831 102.694260,76.974831 99.969330,76.974823 
z"/>
<path fill="#09090A" opacity="1.000000" stroke="none" 
	d="
M92.780487,82.371536 
	C94.726837,82.371788 96.214500,82.371788 98.011971,82.371788 
	C98.011971,87.146217 98.011971,91.726395 98.011971,96.643616 
	C93.545708,96.643616 89.008423,96.643616 84.148056,96.643616 
	C84.148056,92.180046 84.148056,87.618134 84.148056,82.371284 
	C86.818314,82.371284 89.570061,82.371284 92.780487,82.371536 
z"/>
<path fill="#09090A" opacity="1.000000" stroke="none" 
	d="
M108.267365,95.075912 
	C107.509544,90.427444 107.219398,85.878883 106.909302,81.017639 
	C112.091042,81.017639 116.679924,81.017639 121.572067,81.017639 
	C121.572067,85.505142 121.572067,90.067566 121.572067,95.175819 
	C117.278999,95.175819 113.007019,95.175819 108.267365,95.075912 
z"/>
<path fill="#E7E7E7" opacity="1.000000" stroke="none" 
	d="
M122.139114,147.279877 
	C124.525345,150.329071 122.087456,149.736801 120.778877,149.745682 
	C114.626534,149.787476 108.473747,149.761948 102.321114,149.761688 
	C90.702492,149.761200 79.083878,149.761551 66.969391,149.761551 
	C69.143272,145.543350 71.411690,142.849762 76.654938,143.004288 
	C88.949516,143.366653 101.264458,143.255142 113.565834,143.036072 
	C117.214996,142.971085 120.074379,143.590195 122.139114,147.279877 
z"/>
<path fill="#E7E7E7" opacity="1.000000" stroke="none" 
	d="
M108.328537,156.742004 
	C99.927124,156.770020 91.969505,156.874161 84.019203,156.679260 
	C82.548660,156.643219 81.107727,155.399506 79.653122,154.713165 
	C81.004745,154.124283 82.346581,153.053543 83.709587,153.025864 
	C91.661407,152.864410 99.619164,152.887360 107.572205,153.015610 
	C108.708717,153.033936 109.830559,153.961578 110.959198,154.468369 
	C110.231087,155.217255 109.502968,155.966141 108.328537,156.742004 
z"/>
</svg>