<svg version="1.1" id="Layer_1" xmlns="http://www.w3.org/2000/svg" xmlns:xlink="http://www.w3.org/1999/xlink" x="0px" y="0px"
	 width="100%" viewBox="0 0 626 626" enable-background="new 0 0 626 626" xml:space="preserve">
<path fill="#FEFEFE" opacity="1.000000" stroke="none" 
	d="
M0.999997,524.000000 
	C1.000000,349.728241 1.000000,175.456482 1.000000,1.092366 
	C209.666641,1.092366 418.333313,1.092366 627.000000,1.093172 
	C627.000000,24.085978 627.000000,47.077976 626.532349,70.567917 
	C588.714294,71.065849 551.363892,71.065849 514.012573,71.065849 
	C514.012573,109.141846 514.012573,146.358795 514.012573,184.000000 
	C551.853943,184.000000 589.426941,184.000000 627.000000,184.000000 
	C627.000000,331.612030 627.000000,479.224030 627.000000,626.918030 
	C418.333344,626.918030 209.666672,626.918030 1.000000,626.918030 
	C1.000000,595.907166 1.000000,564.918640 1.362742,533.517578 
	C8.195580,550.994751 21.357920,557.131165 39.807968,557.099976 
	C206.470795,556.818298 373.134308,556.938110 539.797607,556.913635 
	C542.954407,556.913208 546.136902,556.787231 549.263611,556.382080 
	C563.715271,554.509460 575.106750,542.529663 576.207520,527.955688 
	C576.330017,526.333984 575.804932,524.244446 574.795166,523.018616 
	C558.723572,503.509308 542.598328,484.042633 526.270813,464.747681 
	C523.909424,461.957184 523.106079,459.277283 523.123047,455.785767 
	C523.238770,431.953491 523.200317,408.120483 523.209473,384.287689 
	C523.212769,375.661926 523.210083,367.036163 523.210083,358.280273 
	C513.151306,358.280273 503.445007,358.280273 493.410919,358.280273 
	C493.410919,378.907806 493.418579,399.216156 493.408447,419.524506 
	C493.400757,434.893677 486.427856,441.976898 471.227295,441.978088 
	C349.729736,441.987854 228.232178,441.987488 106.734612,441.979156 
	C91.146889,441.978088 84.178001,434.974091 84.177528,419.384033 
	C84.175362,347.718811 84.377251,276.052551 84.001762,204.389313 
	C83.930557,190.799118 92.112312,181.545929 106.621651,181.643173 
	C174.117264,182.095566 241.617599,181.844070 309.116241,181.844421 
	C311.066071,181.844437 313.015869,181.844421 315.137878,181.844421 
	C315.137878,175.296112 315.137878,169.226974 315.137878,162.848572 
	C312.996002,162.848572 311.179199,162.848618 309.362396,162.848572 
	C233.863907,162.846786 158.365433,162.844040 82.866943,162.847046 
	C80.034317,162.847153 77.193642,162.778198 74.370750,162.959625 
	C68.668999,163.326080 63.910152,165.520065 59.887203,169.797424 
	C54.972942,175.022461 54.357182,181.300079 54.357079,187.889999 
	C54.355728,277.388214 54.368130,366.886414 54.273350,456.384521 
	C54.270920,458.681183 53.735508,461.498352 52.362000,463.191010 
	C40.100391,478.301544 27.646599,493.257568 15.132342,508.160828 
	C10.584229,513.577148 5.720000,518.728027 0.999997,524.000000 
M479.065948,290.500000 
	C479.065948,304.775024 479.065948,319.050049 479.065948,333.557678 
	C509.614838,333.557678 539.655884,333.557678 569.950867,333.557678 
	C569.950867,303.220123 569.950867,273.189484 569.950867,242.901627 
	C539.591492,242.901627 509.545074,242.901627 479.065948,242.901627 
	C479.065948,258.596985 479.065948,274.048492 479.065948,290.500000 
M485.487976,151.869019 
	C464.727509,151.869019 443.967010,151.869019 423.141357,151.869019 
	C423.141357,177.196732 423.141357,201.932404 423.141357,226.726929 
	C448.169495,226.726929 472.915833,226.726929 497.723450,226.726929 
	C497.723450,201.733002 497.723450,177.013626 497.723450,151.868790 
	C493.748779,151.868790 490.115021,151.868790 485.487976,151.869019 
M488.425568,108.500244 
	C488.425568,98.732643 488.425568,88.965050 488.425568,79.147903 
	C470.435822,79.147903 453.088348,79.147903 435.421875,79.147903 
	C435.421875,95.909683 435.474030,112.218147 435.379791,128.525772 
	C435.359955,131.962296 437.503235,131.642426 439.710785,131.640640 
	C453.202271,131.629669 466.693756,131.633209 480.185242,131.631973 
	C482.782471,131.631744 485.379700,131.631943 488.425446,131.631943 
	C488.425446,123.755798 488.425446,116.627968 488.425568,108.500244 
M347.566010,226.978714 
	C362.347748,226.978714 377.129486,226.978714 392.055298,226.978714 
	C392.055298,209.320541 392.055298,191.963760 392.055298,174.577606 
	C374.623535,174.577606 357.547821,174.577606 340.300964,174.577606 
	C340.300964,192.136826 340.300964,209.457901 340.300964,226.978790 
	C342.621979,226.978790 344.603058,226.978790 347.566010,226.978714 
M413.627289,283.449371 
	C413.627289,269.355713 413.627289,255.262024 413.627289,241.236847 
	C395.776794,241.236847 378.543732,241.236847 361.253906,241.236847 
	C361.253906,258.632141 361.253906,275.702332 361.253906,293.044678 
	C378.712311,293.044678 395.929993,293.044678 413.627228,293.044678 
	C413.627228,290.018982 413.627228,287.225525 413.627289,283.449371 
M409.123871,327.500000 
	C409.123871,335.610107 409.123871,343.720184 409.123871,352.041626 
	C426.951324,352.041626 444.198151,352.041626 461.702332,352.041626 
	C461.702332,334.599670 461.702332,317.364441 461.702332,300.135071 
	C444.098053,300.135071 426.753479,300.135071 409.123871,300.135071 
	C409.123871,309.214661 409.123871,317.857330 409.123871,327.500000 
M369.917114,352.394409 
	C369.917114,339.944122 369.917114,327.493805 369.917114,314.793274 
	C354.932983,314.793274 340.385101,314.793274 325.653015,314.793274 
	C325.653015,329.664978 325.653015,344.193481 325.653015,358.651917 
	C340.567627,358.651917 355.124451,358.651917 369.916931,358.651917 
	C369.916931,356.654724 369.916931,355.008728 369.917114,352.394409 
M326.027039,273.503265 
	C326.027039,268.722534 326.027039,263.941803 326.027039,259.211273 
	C310.984497,259.211273 296.426270,259.211273 281.992981,259.211273 
	C281.992981,273.973877 281.992981,288.375519 281.992981,302.972107 
	C296.732544,302.972107 311.152588,302.972107 326.027710,302.972107 
	C326.027710,293.396545 326.027710,283.949615 326.027039,273.503265 
M264.519470,319.948242 
	C261.077698,319.948242 257.635956,319.948242 254.091431,319.948242 
	C254.091431,334.935486 254.091431,349.346466 254.091431,363.963470 
	C268.831940,363.963470 283.363342,363.963470 297.821411,363.963470 
	C297.821411,349.155029 297.821411,334.625824 297.821411,319.948242 
	C286.804291,319.948242 276.159973,319.948242 264.519470,319.948242 
z"/>
<path fill="#030305" opacity="1.000000" stroke="none" 
	d="
M0.999997,524.449951 
	C5.720000,518.728027 10.584229,513.577148 15.132342,508.160828 
	C27.646599,493.257568 40.100391,478.301544 52.362000,463.191010 
	C53.735508,461.498352 54.270920,458.681183 54.273350,456.384521 
	C54.368130,366.886414 54.355728,277.388214 54.357079,187.889999 
	C54.357182,181.300079 54.972942,175.022461 59.887203,169.797424 
	C63.910152,165.520065 68.668999,163.326080 74.370750,162.959625 
	C77.193642,162.778198 80.034317,162.847153 82.866943,162.847046 
	C158.365433,162.844040 233.863907,162.846786 309.362396,162.848572 
	C311.179199,162.848618 312.996002,162.848572 315.137878,162.848572 
	C315.137878,169.226974 315.137878,175.296112 315.137878,181.844421 
	C313.015869,181.844421 311.066071,181.844437 309.116241,181.844421 
	C241.617599,181.844070 174.117264,182.095566 106.621651,181.643173 
	C92.112312,181.545929 83.930557,190.799118 84.001762,204.389313 
	C84.377251,276.052551 84.175362,347.718811 84.177528,419.384033 
	C84.178001,434.974091 91.146889,441.978088 106.734612,441.979156 
	C228.232178,441.987488 349.729736,441.987854 471.227295,441.978088 
	C486.427856,441.976898 493.400757,434.893677 493.408447,419.524506 
	C493.418579,399.216156 493.410919,378.907806 493.410919,358.280273 
	C503.445007,358.280273 513.151306,358.280273 523.210083,358.280273 
	C523.210083,367.036163 523.212769,375.661926 523.209473,384.287689 
	C523.200317,408.120483 523.238770,431.953491 523.123047,455.785767 
	C523.106079,459.277283 523.909424,461.957184 526.270813,464.747681 
	C542.598328,484.042633 558.723572,503.509308 574.795166,523.018616 
	C575.804932,524.244446 576.330017,526.333984 576.207520,527.955688 
	C575.106750,542.529663 563.715271,554.509460 549.263611,556.382080 
	C546.136902,556.787231 542.954407,556.913208 539.797607,556.913635 
	C373.134308,556.938110 206.470795,556.818298 39.807968,557.099976 
	C21.357920,557.131165 8.195580,550.994751 1.362742,533.052490 
	C1.000000,530.299988 1.000000,527.599976 0.999997,524.449951 
M263.500183,505.689301 
	C251.181320,505.687897 238.840851,506.123749 226.551971,505.515930 
	C219.536469,505.168915 214.585388,507.026550 210.760193,512.952881 
	C208.160583,516.980469 204.808197,520.522095 201.471054,524.681580 
	C260.126038,524.681580 317.746094,524.681580 376.420013,524.681580 
	C371.831787,519.246033 367.572968,514.822815 364.089996,509.855621 
	C361.769379,506.546204 359.239655,505.585114 355.392975,505.602631 
	C325.095886,505.740540 294.797943,505.684601 263.500183,505.689301 
M331.506866,546.297180 
	C336.538849,544.598083 338.333252,540.060120 334.875244,537.234497 
	C333.494598,536.106323 331.234192,535.593140 329.371399,535.586182 
	C302.242462,535.485535 275.113007,535.515442 247.983704,535.531250 
	C246.993835,535.531799 245.596161,535.327759 245.090149,535.871765 
	C243.524292,537.555054 241.349976,539.503845 241.246826,541.447021 
	C241.167709,542.937439 243.693420,544.815796 245.400589,546.052246 
	C246.335434,546.729248 247.975357,546.557617 249.297211,546.556946 
	C276.424500,546.543457 303.551788,546.499451 331.506866,546.297180 
z"/>
<path fill="#020204" opacity="1.000000" stroke="none" 
	d="
M627.000000,183.531342 
	C589.426941,184.000000 551.853943,184.000000 514.012573,184.000000 
	C514.012573,146.358795 514.012573,109.141846 514.012573,71.065849 
	C551.363892,71.065849 588.714294,71.065849 626.532349,71.032928 
	C627.000000,108.354225 627.000000,145.708450 627.000000,183.531342 
z"/>
<path fill="#030305" opacity="1.000000" stroke="none" 
	d="
M479.065948,290.000000 
	C479.065948,274.048492 479.065948,258.596985 479.065948,242.901627 
	C509.545074,242.901627 539.591492,242.901627 569.950867,242.901627 
	C569.950867,273.189484 569.950867,303.220123 569.950867,333.557678 
	C539.655884,333.557678 509.614838,333.557678 479.065948,333.557678 
	C479.065948,319.050049 479.065948,304.775024 479.065948,290.000000 
z"/>
<path fill="#020204" opacity="1.000000" stroke="none" 
	d="
M485.984619,151.868896 
	C490.115021,151.868790 493.748779,151.868790 497.723450,151.868790 
	C497.723450,177.013626 497.723450,201.733002 497.723450,226.726929 
	C472.915833,226.726929 448.169495,226.726929 423.141357,226.726929 
	C423.141357,201.932404 423.141357,177.196732 423.141357,151.869019 
	C443.967010,151.869019 464.727509,151.869019 485.984619,151.868896 
z"/>
<path fill="#070709" opacity="1.000000" stroke="none" 
	d="
M488.425507,109.000191 
	C488.425446,116.627968 488.425446,123.755798 488.425446,131.631943 
	C485.379700,131.631943 482.782471,131.631744 480.185242,131.631973 
	C466.693756,131.633209 453.202271,131.629669 439.710785,131.640640 
	C437.503235,131.642426 435.359955,131.962296 435.379791,128.525772 
	C435.474030,112.218147 435.421875,95.909683 435.421875,79.147903 
	C453.088348,79.147903 470.435822,79.147903 488.425568,79.147903 
	C488.425568,88.965050 488.425568,98.732643 488.425507,109.000191 
z"/>
<path fill="#040406" opacity="1.000000" stroke="none" 
	d="
M347.075073,226.978760 
	C344.603058,226.978790 342.621979,226.978790 340.300964,226.978790 
	C340.300964,209.457901 340.300964,192.136826 340.300964,174.577606 
	C357.547821,174.577606 374.623535,174.577606 392.055298,174.577606 
	C392.055298,191.963760 392.055298,209.320541 392.055298,226.978714 
	C377.129486,226.978714 362.347748,226.978714 347.075073,226.978760 
z"/>
<path fill="#040406" opacity="1.000000" stroke="none" 
	d="
M413.627258,283.940735 
	C413.627228,287.225525 413.627228,290.018982 413.627228,293.044678 
	C395.929993,293.044678 378.712311,293.044678 361.253906,293.044678 
	C361.253906,275.702332 361.253906,258.632141 361.253906,241.236847 
	C378.543732,241.236847 395.776794,241.236847 413.627289,241.236847 
	C413.627289,255.262024 413.627289,269.355713 413.627258,283.940735 
z"/>
<path fill="#040405" opacity="1.000000" stroke="none" 
	d="
M409.123871,327.000000 
	C409.123871,317.857330 409.123871,309.214661 409.123871,300.135071 
	C426.753479,300.135071 444.098053,300.135071 461.702332,300.135071 
	C461.702332,317.364441 461.702332,334.599670 461.702332,352.041626 
	C444.198151,352.041626 426.951324,352.041626 409.123871,352.041626 
	C409.123871,343.720184 409.123871,335.610107 409.123871,327.000000 
z"/>
<path fill="#08080A" opacity="1.000000" stroke="none" 
	d="
M369.917023,352.878571 
	C369.916931,355.008728 369.916931,356.654724 369.916931,358.651917 
	C355.124451,358.651917 340.567627,358.651917 325.653015,358.651917 
	C325.653015,344.193481 325.653015,329.664978 325.653015,314.793274 
	C340.385101,314.793274 354.932983,314.793274 369.917114,314.793274 
	C369.917114,327.493805 369.917114,339.944122 369.917023,352.878571 
z"/>
<path fill="#020204" opacity="1.000000" stroke="none" 
	d="
M326.027374,274.002991 
	C326.027710,283.949615 326.027710,293.396545 326.027710,302.972107 
	C311.152588,302.972107 296.732544,302.972107 281.992981,302.972107 
	C281.992981,288.375519 281.992981,273.973877 281.992981,259.211273 
	C296.426270,259.211273 310.984497,259.211273 326.027039,259.211273 
	C326.027039,263.941803 326.027039,268.722534 326.027374,274.002991 
z"/>
<path fill="#020204" opacity="1.000000" stroke="none" 
	d="
M265.017548,319.948242 
	C276.159973,319.948242 286.804291,319.948242 297.821411,319.948242 
	C297.821411,334.625824 297.821411,349.155029 297.821411,363.963470 
	C283.363342,363.963470 268.831940,363.963470 254.091431,363.963470 
	C254.091431,349.346466 254.091431,334.935486 254.091431,319.948242 
	C257.635956,319.948242 261.077698,319.948242 265.017548,319.948242 
z"/>
<path fill="#FBFBFB" opacity="1.000000" stroke="none" 
	d="
M264.000214,505.688812 
	C294.797943,505.684601 325.095886,505.740540 355.392975,505.602631 
	C359.239655,505.585114 361.769379,506.546204 364.089996,509.855621 
	C367.572968,514.822815 371.831787,519.246033 376.420013,524.681580 
	C317.746094,524.681580 260.126038,524.681580 201.471054,524.681580 
	C204.808197,520.522095 208.160583,516.980469 210.760193,512.952881 
	C214.585388,507.026550 219.536469,505.168915 226.551971,505.515930 
	C238.840851,506.123749 251.181320,505.687897 264.000214,505.688812 
z"/>
<path fill="#F2F2F2" opacity="1.000000" stroke="none" 
	d="
M331.092957,546.379272 
	C303.551788,546.499451 276.424500,546.543457 249.297211,546.556946 
	C247.975357,546.557617 246.335434,546.729248 245.400589,546.052246 
	C243.693420,544.815796 241.167709,542.937439 241.246826,541.447021 
	C241.349976,539.503845 243.524292,537.555054 245.090149,535.871765 
	C245.596161,535.327759 246.993835,535.531799 247.983704,535.531250 
	C275.113007,535.515442 302.242462,535.485535 329.371399,535.586182 
	C331.234192,535.593140 333.494598,536.106323 334.875244,537.234497 
	C338.333252,540.060120 336.538849,544.598083 331.092957,546.379272 
z"/>
</svg>