<?xml version="1.0" standalone="no"?>
<!DOCTYPE svg PUBLIC "-//W3C//DTD SVG 20010904//EN"
 "http://www.w3.org/TR/2001/REC-SVG-20010904/DTD/svg10.dtd">
<svg version="1.0" xmlns="http://www.w3.org/2000/svg"
 width="205.000000pt" height="159.000000pt" viewBox="0 0 205.000000 159.000000"
 preserveAspectRatio="xMidYMid meet">

<g transform="translate(0.000000,159.000000) scale(0.100000,-0.100000)"
fill="#000000" stroke="none">
<path d="M1680 1405 l0 -185 185 0 185 0 0 185 0 185 -185 0 -185 0 0 -185z"/>
<path d="M1430 1480 l0 -80 80 0 80 0 0 80 0 80 -80 0 -80 0 0 -80z"/>
<path d="M1380 1200 l0 -121 121 3 120 3 2 118 2 117 -122 0 -123 0 0 -120z"/>
<path d="M215 1278 c-11 -6 -23 -16 -27 -22 -4 -6 -8 -220 -8 -476 l0 -465
-90 -107 c-50 -59 -90 -112 -90 -119 0 -21 39 -66 67 -78 21 -8 258 -11 891
-9 l864 3 29 33 c16 18 29 40 29 50 0 10 -38 64 -85 120 l-85 101 0 171 0 170
-44 0 -44 0 -4 -121 c-3 -113 -5 -122 -27 -140 -22 -18 -48 -19 -646 -19 -614
0 -623 0 -649 21 l-26 20 0 390 c0 376 1 390 20 409 19 19 33 20 380 20 l360
0 0 30 0 30 -397 0 c-278 -1 -404 -4 -418 -12z m993 -1146 l25 -32 -287 0
c-157 0 -286 3 -286 6 0 3 10 19 23 34 l22 29 239 -2 238 -2 26 -33z m-110
-79 c-3 -16 -20 -18 -152 -21 -84 -1 -154 2 -159 7 -24 24 9 31 159 31 143 0
155 -1 152 -17z"/>
<path d="M1110 1165 l0 -85 85 0 85 0 0 85 0 85 -85 0 -85 0 0 -85z"/>
<path d="M1180 950 l0 -80 85 0 85 0 0 80 0 80 -85 0 -85 0 0 -80z"/>
<path d="M1570 880 l0 -150 145 0 145 0 0 150 0 150 -145 0 -145 0 0 -150z"/>
<path d="M920 900 l0 -70 70 0 70 0 0 70 0 70 -70 0 -70 0 0 -70z"/>
<path d="M1340 755 l0 -85 85 0 85 0 0 85 0 85 -85 0 -85 0 0 -85z"/>
<path d="M1065 720 l0 -70 70 0 70 0 0 70 0 70 -70 0 -70 0 0 -70z"/>
<path d="M830 700 l0 -70 70 0 70 0 0 70 0 70 -70 0 -70 0 0 -70z"/>
</g>
</svg>
