<svg version="1.1" id="Layer_1" xmlns="http://www.w3.org/2000/svg" xmlns:xlink="http://www.w3.org/1999/xlink" x="0px" y="0px"
	 width="100%" viewBox="0 0 512 512" enable-background="new 0 0 512 512" xml:space="preserve">
<path fill="#000000" opacity="1.000000" stroke="none" 
	d="
M1.000000,248.000000 
	C1.000000,237.979111 1.000000,227.958206 1.391601,217.324615 
	C3.446171,209.338028 4.690836,201.839172 6.849441,194.613327 
	C13.709096,171.650909 26.558186,152.596069 45.084354,137.337372 
	C48.089016,134.862640 50.489883,132.221115 50.181099,127.371506 
	C49.568439,117.749405 50.000000,108.060822 50.000000,98.399712 
	C50.000000,93.311531 50.000000,88.223351 50.000000,82.756409 
	C61.379330,82.756409 72.119560,82.756409 82.685501,82.756409 
	C82.685501,71.954041 82.685501,61.548416 82.685501,51.903427 
	C76.677956,50.886154 70.940338,50.491539 65.565033,48.884815 
	C54.218685,45.493309 48.280514,31.473480 50.394764,21.074827 
	C52.438034,11.025283 59.128887,5.058237 68.000000,1.000000 
	C105.354225,1.000000 142.708450,1.000000 180.644287,1.365812 
	C183.294632,2.520870 185.472534,3.104447 187.413391,4.134629 
	C196.271011,8.836123 199.588837,17.108622 199.823715,26.304829 
	C200.080200,36.346542 192.661514,46.207783 183.512802,48.945736 
	C178.321426,50.499367 172.798508,50.945114 167.224304,51.925079 
	C167.224304,56.520542 167.224304,61.589619 167.224304,67.124413 
	C271.566193,67.124413 375.684845,67.124413 480.196686,67.124413 
	C480.196686,72.664192 480.196686,77.741211 480.196686,83.000000 
	C491.393768,83.000000 502.196869,83.000000 513.000000,83.000000 
	C513.000000,215.020889 513.000000,347.041779 512.531372,479.531342 
	C450.582275,480.000000 389.101807,480.039246 327.621704,479.904999 
	C323.836700,479.896698 322.390167,481.224365 320.943085,484.546570 
	C318.607880,489.907806 315.843414,495.225525 312.391785,499.923615 
	C307.153168,507.053955 298.872589,509.834778 291.000000,513.000000 
	C285.311951,513.000000 279.623932,513.000000 273.345245,512.625732 
	C255.087814,508.481812 245.510056,496.542419 240.413895,479.753448 
	C176.939651,479.753448 113.541534,479.753448 50.000000,479.753448 
	C50.000000,477.532379 50.000000,475.711456 50.000000,473.890533 
	C50.000000,427.733704 50.034367,381.576782 49.892048,335.420380 
	C49.885380,333.257111 48.824150,330.615021 47.353306,329.033783 
	C43.750942,325.161072 39.544430,321.858887 35.716988,318.185425 
	C21.238791,304.289734 11.942445,287.251343 6.055088,268.277008 
	C3.994097,261.634644 2.663909,254.765549 1.000000,248.000000 
M312.500122,430.000000 
	C362.593903,430.000000 412.687683,430.000000 462.715088,430.000000 
	C462.715088,314.359009 462.715088,199.291061 462.715088,84.286423 
	C405.359619,84.286423 348.289551,84.286423 291.284973,84.286423 
	C291.284973,199.641037 291.284973,314.709015 291.284973,430.000000 
	C298.211823,430.000000 304.855988,430.000000 312.500122,430.000000 
M198.978653,155.467102 
	C197.322449,154.151520 195.591141,152.919357 194.022202,151.506851 
	C183.685425,142.200745 171.870285,135.430603 158.711823,131.032700 
	C149.188385,127.849724 149.160202,127.944115 148.946228,118.148941 
	C148.940140,117.871124 148.678253,117.598907 148.489822,117.235764 
	C132.790649,117.235764 117.048035,117.235764 101.327286,117.235764 
	C100.374260,128.247726 100.388855,128.293213 92.059380,130.966110 
	C63.707424,140.064133 43.261215,158.325577 29.776108,184.650299 
	C20.126862,203.486877 16.174854,223.284760 18.891033,244.471893 
	C20.299404,255.457657 22.999205,265.990112 27.551508,275.978943 
	C35.228905,292.824890 46.597012,306.897461 61.485760,317.888641 
	C79.197571,330.963837 99.112274,338.406921 121.227325,338.869812 
	C128.703293,339.026306 136.251389,337.963898 143.696228,336.944977 
	C162.760300,334.335785 179.458252,326.048676 193.752930,313.555786 
	C213.550125,296.253937 226.225037,274.787781 230.198334,248.279175 
	C232.045273,235.957016 232.211472,223.775909 229.766647,211.810486 
	C225.366653,190.275940 215.018600,171.642273 198.978653,155.467102 
M224.970367,306.351929 
	C219.063522,312.652069 213.395157,319.198608 207.196686,325.197418 
	C196.604843,335.448059 183.910629,342.605286 170.300842,347.919830 
	C153.894058,354.326630 136.844101,357.517731 119.106255,356.018738 
	C113.145546,355.515015 107.166428,355.229156 101.305565,354.850830 
	C101.305565,379.666382 101.305565,404.743622 101.305565,429.696411 
	C158.679428,429.696411 215.747284,429.696411 272.704956,429.696411 
	C272.704956,314.329315 272.704956,199.266022 272.704956,84.295517 
	C237.339523,84.295517 202.269913,84.295517 167.249008,84.295517 
	C167.133713,84.903267 167.023056,85.217094 167.022186,85.531235 
	C167.006821,91.030518 167.550278,96.597412 166.879120,102.014168 
	C165.713776,111.419418 168.556671,116.358124 178.109436,120.394852 
	C202.654633,130.766953 220.844421,148.947968 233.679092,172.295120 
	C242.907684,189.082520 248.123520,207.062164 249.023712,226.274902 
	C249.890411,244.772751 247.065567,262.730927 239.797028,279.659332 
	C235.893661,288.750244 230.018753,296.994598 224.970367,306.351929 
M409.500000,463.000000 
	C438.257477,463.000000 467.014984,463.000000 495.746277,463.000000 
	C495.746277,342.053070 495.746277,221.668625 495.746277,101.256737 
	C490.416656,101.256737 485.344696,101.256737 479.908813,101.256737 
	C479.908813,216.565155 479.908813,331.617432 479.908813,446.799072 
	C347.488983,446.799072 215.440292,446.799072 83.000000,446.799072 
	C83.000000,444.982483 83.000000,443.360138 83.000000,441.737762 
	C83.000000,412.245056 83.023849,382.752258 82.930809,353.259827 
	C82.926064,351.757629 82.342377,349.451447 81.298744,348.899841 
	C77.110428,346.686218 72.634567,345.016693 68.292206,343.157623 
	C68.292206,383.294037 68.292206,423.043640 68.292206,463.163879 
	C131.322830,463.163879 194.062088,463.163879 256.549866,463.163879 
	C257.070099,466.949402 257.791931,470.319702 257.953888,473.716675 
	C258.551605,486.254120 268.635925,494.433167 279.158722,495.818176 
	C291.033813,497.381165 302.514740,489.442230 304.926453,477.660980 
	C305.894836,472.930420 306.011749,468.025574 306.537109,463.000000 
	C340.557892,463.000000 374.528961,463.000000 409.500000,463.000000 
M102.709496,99.996063 
	C118.120071,99.996063 133.530640,99.996063 148.635223,99.996063 
	C148.635223,83.201721 148.635223,67.127861 148.635223,51.368664 
	C132.529953,51.368664 116.790390,51.368664 101.000107,51.368664 
	C101.000107,66.735527 100.984924,81.733849 101.032127,96.731979 
	C101.035507,97.803238 101.496002,98.873055 102.709496,99.996063 
M104.500000,18.000000 
	C95.016212,18.000011 85.514595,17.682751 76.060684,18.214190 
	C73.572662,18.354050 70.274971,20.612362 69.102692,22.826357 
	C68.007378,24.894972 68.202576,29.453772 69.680397,30.672539 
	C72.161713,32.718880 76.104584,33.840195 79.444061,33.866165 
	C109.058273,34.096447 138.675079,34.026276 168.290909,33.956165 
	C171.018005,33.949715 174.039017,33.943245 176.384872,32.815884 
	C178.621796,31.740885 181.342087,29.382257 181.669235,27.252905 
	C182.010880,25.029108 180.218582,21.967964 178.473236,20.101171 
	C177.177353,18.715132 174.469681,18.098038 172.385040,18.085222 
	C150.090698,17.948179 127.795189,18.000000 104.500000,18.000000 
M68.741508,101.057465 
	C68.401306,107.639465 68.061104,114.221474 67.701393,121.181023 
	C83.275528,115.016464 83.278084,115.016396 82.944214,102.126015 
	C82.937004,101.847404 82.675659,101.575371 82.379089,101.004028 
	C78.251427,101.004028 73.978630,101.004028 68.741508,101.057465 
z"/>
<path fill="#FFFFFF" opacity="1.000000" stroke="none" 
	d="
M513.000000,82.531342 
	C502.196869,83.000000 491.393768,83.000000 480.196686,83.000000 
	C480.196686,77.741211 480.196686,72.664192 480.196686,67.124413 
	C375.684845,67.124413 271.566193,67.124413 167.224304,67.124413 
	C167.224304,61.589619 167.224304,56.520542 167.224304,51.925079 
	C172.798508,50.945114 178.321426,50.499367 183.512802,48.945736 
	C192.661514,46.207783 200.080200,36.346542 199.823715,26.304829 
	C199.588837,17.108622 196.271011,8.836123 187.413391,4.134629 
	C185.472534,3.104447 183.294632,2.520870 181.112946,1.365812 
	C291.549622,1.000000 402.099243,1.000000 513.000000,1.000000 
	C513.000000,28.019880 513.000000,55.041283 513.000000,82.531342 
z"/>
<path fill="#FFFFFF" opacity="1.000000" stroke="none" 
	d="
M1.000000,248.468658 
	C2.663909,254.765549 3.994097,261.634644 6.055088,268.277008 
	C11.942445,287.251343 21.238791,304.289734 35.716988,318.185425 
	C39.544430,321.858887 43.750942,325.161072 47.353306,329.033783 
	C48.824150,330.615021 49.885380,333.257111 49.892048,335.420380 
	C50.034367,381.576782 50.000000,427.733704 50.000000,473.890533 
	C50.000000,475.711456 50.000000,477.532379 50.000000,479.753448 
	C113.541534,479.753448 176.939651,479.753448 240.413895,479.753448 
	C245.510056,496.542419 255.087814,508.481812 272.877319,512.625732 
	C182.407227,513.000000 91.814461,513.000000 1.000000,513.000000 
	C1.000000,424.979218 1.000000,336.958282 1.000000,248.468658 
z"/>
<path fill="#FFFFFF" opacity="1.000000" stroke="none" 
	d="
M67.531342,1.000000 
	C59.128887,5.058237 52.438034,11.025283 50.394764,21.074827 
	C48.280514,31.473480 54.218685,45.493309 65.565033,48.884815 
	C70.940338,50.491539 76.677956,50.886154 82.685501,51.903427 
	C82.685501,61.548416 82.685501,71.954041 82.685501,82.756409 
	C72.119560,82.756409 61.379330,82.756409 50.000000,82.756409 
	C50.000000,88.223351 50.000000,93.311531 50.000000,98.399712 
	C50.000000,108.060822 49.568439,117.749405 50.181099,127.371506 
	C50.489883,132.221115 48.089016,134.862640 45.084354,137.337372 
	C26.558186,152.596069 13.709096,171.650909 6.849441,194.613327 
	C4.690836,201.839172 3.446171,209.338028 1.391601,216.855957 
	C1.000000,145.111450 1.000000,73.222885 1.000000,1.000000 
	C23.019766,1.000000 45.041225,1.000000 67.531342,1.000000 
z"/>
<path fill="#FFFFFF" opacity="1.000000" stroke="none" 
	d="
M291.468658,513.000000 
	C298.872589,509.834778 307.153168,507.053955 312.391785,499.923615 
	C315.843414,495.225525 318.607880,489.907806 320.943085,484.546570 
	C322.390167,481.224365 323.836700,479.896698 327.621704,479.904999 
	C389.101807,480.039246 450.582275,480.000000 512.531372,480.000000 
	C513.000000,490.981110 513.000000,501.962189 513.000000,513.000000 
	C439.312439,513.000000 365.624878,513.000000 291.468658,513.000000 
z"/>
<path fill="#FFFFFF" opacity="1.000000" stroke="none" 
	d="
M312.000153,430.000000 
	C304.855988,430.000000 298.211823,430.000000 291.284973,430.000000 
	C291.284973,314.709015 291.284973,199.641037 291.284973,84.286423 
	C348.289551,84.286423 405.359619,84.286423 462.715088,84.286423 
	C462.715088,199.291061 462.715088,314.359009 462.715088,430.000000 
	C412.687683,430.000000 362.593903,430.000000 312.000153,430.000000 
M318.076263,410.596680 
	C331.008942,418.182037 348.459015,413.399200 354.135712,400.116821 
	C354.610443,399.006042 356.924927,398.125946 358.406128,398.092651 
	C366.894592,397.902130 375.402679,398.281372 383.876984,397.885895 
	C388.376373,397.675964 390.715942,399.289764 393.124817,403.024933 
	C403.194733,418.639252 425.385071,417.835632 434.834351,403.250977 
	C446.566040,385.143585 433.282593,363.259094 413.259705,363.878326 
	C411.784271,363.923950 409.621918,362.608215 408.852020,361.295807 
	C403.005798,351.330231 397.427216,341.207672 391.847717,331.280792 
	C397.199524,322.937317 399.554138,317.712219 396.946655,308.262146 
	C392.847748,293.406738 379.910492,287.180145 365.889526,290.726074 
	C348.462799,295.133331 342.783722,313.962585 351.308685,328.956329 
	C352.181580,330.491577 352.293060,333.278137 351.484741,334.814056 
	C347.221344,342.914978 342.270081,350.659821 338.144867,358.824951 
	C336.267548,362.540771 334.312286,364.128082 330.008453,364.124847 
	C319.876190,364.117249 310.434875,370.766327 307.104431,381.707001 
	C303.552734,393.374268 309.329132,405.871124 318.076263,410.596680 
M339.500000,117.000000 
	C375.258698,117.000000 411.017395,117.000000 446.713623,117.000000 
	C446.713623,111.024780 446.713623,105.619476 446.713623,100.282822 
	C399.692963,100.282822 352.959259,100.282822 306.286377,100.282822 
	C306.286377,105.975159 306.286377,111.380463 306.286377,117.000000 
	C317.214203,117.000000 327.857086,117.000000 339.500000,117.000000 
M417.500000,216.000000 
	C427.264252,216.000000 437.028534,216.000000 446.709351,216.000000 
	C446.709351,210.014923 446.709351,204.609940 446.709351,199.287109 
	C399.684387,199.287109 352.950623,199.287109 306.290649,199.287109 
	C306.290649,204.985046 306.290649,210.390030 306.290649,216.000000 
	C343.220612,216.000000 379.860291,216.000000 417.500000,216.000000 
M363.500000,133.000000 
	C355.401733,133.000000 347.303467,133.000000 339.290375,133.000000 
	C339.290375,138.984818 339.290375,144.389633 339.290375,149.712982 
	C375.315460,149.712982 411.049438,149.712982 446.709656,149.712982 
	C446.709656,144.016586 446.709656,138.611282 446.709656,133.000000 
	C419.113251,133.000000 391.806641,133.000000 363.500000,133.000000 
M339.500000,166.000000 
	C328.403351,166.000000 317.306671,166.000000 306.289734,166.000000 
	C306.289734,171.982254 306.289734,177.387527 306.289734,182.713593 
	C342.314178,182.713593 378.048157,182.713593 413.710297,182.713593 
	C413.710297,177.017838 413.710297,171.612564 413.710297,166.000000 
	C389.114136,166.000000 364.807068,166.000000 339.500000,166.000000 
M313.560547,232.000000 
	C311.122955,232.000000 308.685394,232.000000 306.270691,232.000000 
	C306.270691,237.944565 306.270691,243.350388 306.270691,248.730072 
	C342.277557,248.730072 378.013092,248.730072 413.726440,248.730072 
	C413.726440,243.050476 413.726440,237.645279 413.726440,232.000000 
	C380.483643,232.000000 347.513855,232.000000 313.560547,232.000000 
M323.999725,135.673096 
	C323.220734,134.782562 322.475769,133.159164 321.657135,133.121124 
	C316.553986,132.883942 311.434357,133.001526 306.232300,133.001526 
	C306.232300,138.866470 306.232300,144.270798 306.232300,149.765182 
	C312.205017,149.765182 317.942932,149.765182 324.000000,149.765182 
	C324.000000,145.239883 324.000000,140.941910 323.999725,135.673096 
M447.000000,245.356079 
	C447.000000,240.937393 447.000000,236.518707 447.000000,232.341461 
	C440.908569,232.341461 435.498138,232.341461 430.344421,232.341461 
	C430.344421,238.097488 430.344421,243.508270 430.344421,248.999771 
	C435.181122,248.999771 439.683624,249.157394 444.158875,248.878021 
	C445.155121,248.815811 446.055328,247.215698 447.000000,245.356079 
M446.254395,182.943207 
	C446.605194,177.432938 446.955994,171.922653 447.319824,166.207977 
	C441.184845,166.207977 435.780457,166.207977 430.210938,166.207977 
	C430.210938,171.821487 430.210938,177.225967 430.210938,182.996033 
	C435.372070,182.996033 440.330505,182.996033 446.254395,182.943207 
z"/>
<path fill="#FFFFFF" opacity="1.000000" stroke="none" 
	d="
M199.228699,155.727203 
	C215.018600,171.642273 225.366653,190.275940 229.766647,211.810486 
	C232.211472,223.775909 232.045273,235.957016 230.198334,248.279175 
	C226.225037,274.787781 213.550125,296.253937 193.752930,313.555786 
	C179.458252,326.048676 162.760300,334.335785 143.696228,336.944977 
	C136.251389,337.963898 128.703293,339.026306 121.227325,338.869812 
	C99.112274,338.406921 79.197571,330.963837 61.485760,317.888641 
	C46.597012,306.897461 35.228905,292.824890 27.551508,275.978943 
	C22.999205,265.990112 20.299404,255.457657 18.891033,244.471893 
	C16.174854,223.284760 20.126862,203.486877 29.776108,184.650299 
	C43.261215,158.325577 63.707424,140.064133 92.059380,130.966110 
	C100.388855,128.293213 100.374260,128.247726 101.327286,117.235764 
	C117.048035,117.235764 132.790649,117.235764 148.489822,117.235764 
	C148.678253,117.598907 148.940140,117.871124 148.946228,118.148941 
	C149.160202,127.944115 149.188385,127.849724 158.711823,131.032700 
	C171.870285,135.430603 183.685425,142.200745 194.022202,151.506851 
	C195.591141,152.919357 197.322449,154.151520 199.228699,155.727203 
M51.000153,228.658569 
	C51.333363,226.910828 51.799362,225.176605 51.978954,223.413223 
	C53.534531,208.139191 59.707558,194.947281 69.925659,183.600540 
	C77.295723,175.416397 85.696793,168.579773 96.156075,164.605087 
	C93.536308,158.865738 91.086014,153.497681 88.635948,148.130112 
	C49.651325,165.758270 31.365892,205.326614 34.554520,232.999390 
	C39.157272,232.999390 43.802109,232.830566 48.427238,233.059601 
	C51.437691,233.208679 51.049927,231.402878 51.000153,228.658569 
M190.000000,224.491882 
	C190.000000,227.261093 190.000000,230.030319 190.000000,232.713806 
	C196.310638,232.713806 202.048325,232.713806 207.712189,232.713806 
	C207.712189,226.686111 207.712189,220.948349 207.712189,215.289459 
	C201.682892,215.289459 195.945145,215.289459 190.000000,215.289459 
	C190.000000,218.221542 190.000000,220.865982 190.000000,224.491882 
M107.042305,149.317001 
	C107.910667,152.865448 108.779030,156.413910 109.579712,159.685822 
	C113.596680,159.449829 117.528473,159.455002 121.368492,158.863937 
	C122.695816,158.659637 124.749298,157.046829 124.834099,155.950729 
	C125.212334,151.061752 124.998375,146.126953 124.998375,140.412430 
	C118.213257,141.235672 112.070267,141.980988 106.169914,142.696884 
	C106.550529,145.326416 106.776794,146.889618 107.042305,149.317001 
M157.999725,230.322479 
	C157.999725,225.235840 157.999725,220.149216 157.999725,215.353790 
	C151.885986,215.353790 146.479523,215.353790 141.356812,215.353790 
	C141.356812,221.455963 141.356812,227.201187 141.356812,232.999771 
	C146.209732,232.999771 150.709793,233.096466 155.199326,232.922058 
	C156.151306,232.885071 157.064835,231.858383 157.999725,230.322479 
M167.706512,207.996033 
	C172.791092,207.996033 177.875687,207.996033 182.636124,207.996033 
	C182.636124,201.529648 182.636124,195.783600 182.636124,190.367813 
	C176.857025,190.367813 171.444382,190.367813 165.628174,190.367813 
	C166.016129,196.486130 166.379379,202.214767 167.706512,207.996033 
M180.326630,256.999725 
	C181.217239,256.220825 182.836029,255.479477 182.878403,254.656906 
	C183.124084,249.888306 182.998474,245.100586 182.998474,240.232239 
	C177.133759,240.232239 171.729309,240.232239 166.234802,240.232239 
	C166.234802,245.871735 166.234802,251.276321 166.234802,257.000000 
	C170.760300,257.000000 175.058151,257.000000 180.326630,256.999725 
z"/>
<path fill="#FFFFFF" opacity="1.000000" stroke="none" 
	d="
M225.001923,305.986450 
	C230.018753,296.994598 235.893661,288.750244 239.797028,279.659332 
	C247.065567,262.730927 249.890411,244.772751 249.023712,226.274902 
	C248.123520,207.062164 242.907684,189.082520 233.679092,172.295120 
	C220.844421,148.947968 202.654633,130.766953 178.109436,120.394852 
	C168.556671,116.358124 165.713776,111.419418 166.879120,102.014168 
	C167.550278,96.597412 167.006821,91.030518 167.022186,85.531235 
	C167.023056,85.217094 167.133713,84.903267 167.249008,84.295517 
	C202.269913,84.295517 237.339523,84.295517 272.704956,84.295517 
	C272.704956,199.266022 272.704956,314.329315 272.704956,429.696411 
	C215.747284,429.696411 158.679428,429.696411 101.305565,429.696411 
	C101.305565,404.743622 101.305565,379.666382 101.305565,354.850830 
	C107.166428,355.229156 113.145546,355.515015 119.106255,356.018738 
	C136.844101,357.517731 153.894058,354.326630 170.300842,347.919830 
	C183.910629,342.605286 196.604843,335.448059 207.196686,325.197418 
	C213.395157,319.198608 219.063522,312.652069 225.001923,305.986450 
M142.500000,364.000000 
	C133.735519,364.000000 124.971046,364.000000 116.290848,364.000000 
	C116.290848,369.985443 116.290848,375.390411 116.290848,380.712708 
	C163.315979,380.712708 210.049713,380.712708 256.709167,380.712708 
	C256.709167,375.015900 256.709167,369.610443 256.709167,364.000000 
	C218.779144,364.000000 181.139572,364.000000 142.500000,364.000000 
M224.000000,408.417419 
	C224.000000,404.658142 224.000000,400.898865 224.000000,397.318909 
	C187.626312,397.318909 151.888962,397.318909 116.323044,397.318909 
	C116.323044,403.050690 116.323044,408.459351 116.323044,413.852478 
	C152.264572,413.852478 187.882843,413.852478 224.000000,413.852478 
	C224.000000,412.286865 224.000000,410.837585 224.000000,408.417419 
M240.000000,406.473083 
	C240.000000,408.907104 240.000000,411.341156 240.000000,413.719299 
	C245.966904,413.719299 251.371902,413.719299 256.716949,413.719299 
	C256.716949,408.029572 256.716949,402.624847 256.716949,397.285400 
	C251.024872,397.285400 245.620041,397.285400 240.000000,397.285400 
	C240.000000,400.212524 240.000000,402.856262 240.000000,406.473083 
z"/>
<path fill="#FFFFFF" opacity="1.000000" stroke="none" 
	d="
M409.000000,463.000000 
	C374.528961,463.000000 340.557892,463.000000 306.537109,463.000000 
	C306.011749,468.025574 305.894836,472.930420 304.926453,477.660980 
	C302.514740,489.442230 291.033813,497.381165 279.158722,495.818176 
	C268.635925,494.433167 258.551605,486.254120 257.953888,473.716675 
	C257.791931,470.319702 257.070099,466.949402 256.549866,463.163879 
	C194.062088,463.163879 131.322830,463.163879 68.292206,463.163879 
	C68.292206,423.043640 68.292206,383.294037 68.292206,343.157623 
	C72.634567,345.016693 77.110428,346.686218 81.298744,348.899841 
	C82.342377,349.451447 82.926064,351.757629 82.930809,353.259827 
	C83.023849,382.752258 83.000000,412.245056 83.000000,441.737762 
	C83.000000,443.360138 83.000000,444.982483 83.000000,446.799072 
	C215.440292,446.799072 347.488983,446.799072 479.908813,446.799072 
	C479.908813,331.617432 479.908813,216.565155 479.908813,101.256737 
	C485.344696,101.256737 490.416656,101.256737 495.746277,101.256737 
	C495.746277,221.668625 495.746277,342.053070 495.746277,463.000000 
	C467.014984,463.000000 438.257477,463.000000 409.000000,463.000000 
z"/>
<path fill="#FFFFFF" opacity="1.000000" stroke="none" 
	d="
M102.226723,99.969803 
	C101.496002,98.873055 101.035507,97.803238 101.032127,96.731979 
	C100.984924,81.733849 101.000107,66.735527 101.000107,51.368664 
	C116.790390,51.368664 132.529953,51.368664 148.635223,51.368664 
	C148.635223,67.127861 148.635223,83.201721 148.635223,99.996063 
	C133.530640,99.996063 118.120071,99.996063 102.226723,99.969803 
z"/>
<path fill="#FFFFFF" opacity="1.000000" stroke="none" 
	d="
M105.000000,18.000000 
	C127.795189,18.000000 150.090698,17.948179 172.385040,18.085222 
	C174.469681,18.098038 177.177353,18.715132 178.473236,20.101171 
	C180.218582,21.967964 182.010880,25.029108 181.669235,27.252905 
	C181.342087,29.382257 178.621796,31.740885 176.384872,32.815884 
	C174.039017,33.943245 171.018005,33.949715 168.290909,33.956165 
	C138.675079,34.026276 109.058273,34.096447 79.444061,33.866165 
	C76.104584,33.840195 72.161713,32.718880 69.680397,30.672539 
	C68.202576,29.453772 68.007378,24.894972 69.102692,22.826357 
	C70.274971,20.612362 73.572662,18.354050 76.060684,18.214190 
	C85.514595,17.682751 95.016212,18.000011 105.000000,18.000000 
z"/>
<path fill="#FFFFFF" opacity="1.000000" stroke="none" 
	d="
M69.223671,101.030746 
	C73.978630,101.004028 78.251427,101.004028 82.379089,101.004028 
	C82.675659,101.575371 82.937004,101.847404 82.944214,102.126015 
	C83.278084,115.016396 83.275528,115.016464 67.701393,121.181023 
	C68.061104,114.221474 68.401306,107.639465 69.223671,101.030746 
z"/>
<path fill="#000000" opacity="1.000000" stroke="none" 
	d="
M317.805664,410.328522 
	C309.329132,405.871124 303.552734,393.374268 307.104431,381.707001 
	C310.434875,370.766327 319.876190,364.117249 330.008453,364.124847 
	C334.312286,364.128082 336.267548,362.540771 338.144867,358.824951 
	C342.270081,350.659821 347.221344,342.914978 351.484741,334.814056 
	C352.293060,333.278137 352.181580,330.491577 351.308685,328.956329 
	C342.783722,313.962585 348.462799,295.133331 365.889526,290.726074 
	C379.910492,287.180145 392.847748,293.406738 396.946655,308.262146 
	C399.554138,317.712219 397.199524,322.937317 391.847717,331.280792 
	C397.427216,341.207672 403.005798,351.330231 408.852020,361.295807 
	C409.621918,362.608215 411.784271,363.923950 413.259705,363.878326 
	C433.282593,363.259094 446.566040,385.143585 434.834351,403.250977 
	C425.385071,417.835632 403.194733,418.639252 393.124817,403.024933 
	C390.715942,399.289764 388.376373,397.675964 383.876984,397.885895 
	C375.402679,398.281372 366.894592,397.902130 358.406128,398.092651 
	C356.924927,398.125946 354.610443,399.006042 354.135712,400.116821 
	C348.459015,413.399200 331.008942,418.182037 317.805664,410.328522 
M355.035095,364.609985 
	C354.146362,366.125031 353.038330,367.558105 352.432587,369.178894 
	C351.862885,370.703125 351.015259,373.185150 351.703278,373.916931 
	C353.701508,376.042236 353.290253,380.309967 358.140259,380.126801 
	C368.917664,379.719849 379.721039,379.999939 390.496460,379.999939 
	C391.201874,378.575043 391.613770,377.092651 392.522186,376.037811 
	C394.700562,373.508179 394.041290,371.509064 392.472900,368.811249 
	C386.998901,359.395325 381.907562,349.756927 376.633850,340.135681 
	C373.841125,340.135681 371.040680,340.135681 368.582825,340.135681 
	C364.130554,348.256073 359.813934,356.129120 355.035095,364.609985 
M368.736633,321.171051 
	C375.072571,323.807495 379.256042,320.694824 379.949951,315.822754 
	C380.520905,311.813995 378.609528,308.731842 374.871643,307.456360 
	C371.043549,306.150146 368.254272,308.265747 366.111603,311.388092 
	C363.483521,315.217712 365.105347,318.071869 368.736633,321.171051 
M330.890686,381.641327 
	C330.416321,381.760834 329.943695,381.887909 329.467285,381.998566 
	C325.536499,382.911621 323.849731,385.431671 323.983429,389.404602 
	C324.127045,393.672913 326.689209,396.661530 330.421906,396.506195 
	C333.201172,396.390594 336.630798,394.130981 338.385742,391.788544 
	C340.457367,389.023468 338.617828,385.776184 336.050629,383.633789 
	C334.733582,382.534698 332.999329,381.935516 330.890686,381.641327 
M416.417755,396.090393 
	C419.665253,394.815491 422.113007,392.368713 421.205322,389.001801 
	C420.513702,386.436310 418.404968,383.457336 416.108246,382.330566 
	C413.502625,381.052246 409.551086,381.234924 407.989380,384.709747 
	C407.004333,386.901489 406.340332,390.103546 407.236938,392.078491 
	C408.697906,395.296387 411.560303,397.866760 416.417755,396.090393 
z"/>
<path fill="#000000" opacity="1.000000" stroke="none" 
	d="
M339.000000,117.000000 
	C327.857086,117.000000 317.214203,117.000000 306.286377,117.000000 
	C306.286377,111.380463 306.286377,105.975159 306.286377,100.282822 
	C352.959259,100.282822 399.692963,100.282822 446.713623,100.282822 
	C446.713623,105.619476 446.713623,111.024780 446.713623,117.000000 
	C411.017395,117.000000 375.258698,117.000000 339.000000,117.000000 
z"/>
<path fill="#000000" opacity="1.000000" stroke="none" 
	d="
M417.000000,216.000000 
	C379.860291,216.000000 343.220612,216.000000 306.290649,216.000000 
	C306.290649,210.390030 306.290649,204.985046 306.290649,199.287109 
	C352.950623,199.287109 399.684387,199.287109 446.709351,199.287109 
	C446.709351,204.609940 446.709351,210.014923 446.709351,216.000000 
	C437.028534,216.000000 427.264252,216.000000 417.000000,216.000000 
z"/>
<path fill="#000000" opacity="1.000000" stroke="none" 
	d="
M364.000000,133.000000 
	C391.806641,133.000000 419.113251,133.000000 446.709656,133.000000 
	C446.709656,138.611282 446.709656,144.016586 446.709656,149.712982 
	C411.049438,149.712982 375.315460,149.712982 339.290375,149.712982 
	C339.290375,144.389633 339.290375,138.984818 339.290375,133.000000 
	C347.303467,133.000000 355.401733,133.000000 364.000000,133.000000 
z"/>
<path fill="#000000" opacity="1.000000" stroke="none" 
	d="
M340.000000,166.000000 
	C364.807068,166.000000 389.114136,166.000000 413.710297,166.000000 
	C413.710297,171.612564 413.710297,177.017838 413.710297,182.713593 
	C378.048157,182.713593 342.314178,182.713593 306.289734,182.713593 
	C306.289734,177.387527 306.289734,171.982254 306.289734,166.000000 
	C317.306671,166.000000 328.403351,166.000000 340.000000,166.000000 
z"/>
<path fill="#000000" opacity="1.000000" stroke="none" 
	d="
M314.052307,232.000000 
	C347.513855,232.000000 380.483643,232.000000 413.726440,232.000000 
	C413.726440,237.645279 413.726440,243.050476 413.726440,248.730072 
	C378.013092,248.730072 342.277557,248.730072 306.270691,248.730072 
	C306.270691,243.350388 306.270691,237.944565 306.270691,232.000000 
	C308.685394,232.000000 311.122955,232.000000 314.052307,232.000000 
z"/>
<path fill="#000000" opacity="1.000000" stroke="none" 
	d="
M323.999878,136.158524 
	C324.000000,140.941910 324.000000,145.239883 324.000000,149.765182 
	C317.942932,149.765182 312.205017,149.765182 306.232300,149.765182 
	C306.232300,144.270798 306.232300,138.866470 306.232300,133.001526 
	C311.434357,133.001526 316.553986,132.883942 321.657135,133.121124 
	C322.475769,133.159164 323.220734,134.782562 323.999878,136.158524 
z"/>
<path fill="#000000" opacity="1.000000" stroke="none" 
	d="
M446.999878,245.839874 
	C446.055328,247.215698 445.155121,248.815811 444.158875,248.878021 
	C439.683624,249.157394 435.181122,248.999771 430.344421,248.999771 
	C430.344421,243.508270 430.344421,238.097488 430.344421,232.341461 
	C435.498138,232.341461 440.908569,232.341461 447.000000,232.341461 
	C447.000000,236.518707 447.000000,240.937393 446.999878,245.839874 
z"/>
<path fill="#000000" opacity="1.000000" stroke="none" 
	d="
M445.771667,182.969620 
	C440.330505,182.996033 435.372070,182.996033 430.210938,182.996033 
	C430.210938,177.225967 430.210938,171.821487 430.210938,166.207977 
	C435.780457,166.207977 441.184845,166.207977 447.319824,166.207977 
	C446.955994,171.922653 446.605194,177.432938 445.771667,182.969620 
z"/>
<path fill="#000000" opacity="1.000000" stroke="none" 
	d="
M51.000069,229.120331 
	C51.049927,231.402878 51.437691,233.208679 48.427238,233.059601 
	C43.802109,232.830566 39.157272,232.999390 34.554520,232.999390 
	C31.365892,205.326614 49.651325,165.758270 88.635948,148.130112 
	C91.086014,153.497681 93.536308,158.865738 96.156075,164.605087 
	C85.696793,168.579773 77.295723,175.416397 69.925659,183.600540 
	C59.707558,194.947281 53.534531,208.139191 51.978954,223.413223 
	C51.799362,225.176605 51.333363,226.910828 51.000069,229.120331 
z"/>
<path fill="#000000" opacity="1.000000" stroke="none" 
	d="
M190.000000,224.001160 
	C190.000000,220.865982 190.000000,218.221542 190.000000,215.289459 
	C195.945145,215.289459 201.682892,215.289459 207.712189,215.289459 
	C207.712189,220.948349 207.712189,226.686111 207.712189,232.713806 
	C202.048325,232.713806 196.310638,232.713806 190.000000,232.713806 
	C190.000000,230.030319 190.000000,227.261093 190.000000,224.001160 
z"/>
<path fill="#000000" opacity="1.000000" stroke="none" 
	d="
M107.022682,148.884903 
	C106.776794,146.889618 106.550529,145.326416 106.169914,142.696884 
	C112.070267,141.980988 118.213257,141.235672 124.998375,140.412430 
	C124.998375,146.126953 125.212334,151.061752 124.834099,155.950729 
	C124.749298,157.046829 122.695816,158.659637 121.368492,158.863937 
	C117.528473,159.455002 113.596680,159.449829 109.579712,159.685822 
	C108.779030,156.413910 107.910667,152.865448 107.022682,148.884903 
z"/>
<path fill="#000000" opacity="1.000000" stroke="none" 
	d="
M157.997894,230.805084 
	C157.064835,231.858383 156.151306,232.885071 155.199326,232.922058 
	C150.709793,233.096466 146.209732,232.999771 141.356812,232.999771 
	C141.356812,227.201187 141.356812,221.455963 141.356812,215.353790 
	C146.479523,215.353790 151.885986,215.353790 157.999725,215.353790 
	C157.999725,220.149216 157.999725,225.235840 157.997894,230.805084 
z"/>
<path fill="#000000" opacity="1.000000" stroke="none" 
	d="
M167.224579,207.969727 
	C166.379379,202.214767 166.016129,196.486130 165.628174,190.367813 
	C171.444382,190.367813 176.857025,190.367813 182.636124,190.367813 
	C182.636124,195.783600 182.636124,201.529648 182.636124,207.996033 
	C177.875687,207.996033 172.791092,207.996033 167.224579,207.969727 
z"/>
<path fill="#000000" opacity="1.000000" stroke="none" 
	d="
M179.841309,256.999878 
	C175.058151,257.000000 170.760300,257.000000 166.234802,257.000000 
	C166.234802,251.276321 166.234802,245.871735 166.234802,240.232239 
	C171.729309,240.232239 177.133759,240.232239 182.998474,240.232239 
	C182.998474,245.100586 183.124084,249.888306 182.878403,254.656906 
	C182.836029,255.479477 181.217239,256.220825 179.841309,256.999878 
z"/>
<path fill="#000000" opacity="1.000000" stroke="none" 
	d="
M143.000000,364.000000 
	C181.139572,364.000000 218.779144,364.000000 256.709167,364.000000 
	C256.709167,369.610443 256.709167,375.015900 256.709167,380.712708 
	C210.049713,380.712708 163.315979,380.712708 116.290848,380.712708 
	C116.290848,375.390411 116.290848,369.985443 116.290848,364.000000 
	C124.971046,364.000000 133.735519,364.000000 143.000000,364.000000 
z"/>
<path fill="#000000" opacity="1.000000" stroke="none" 
	d="
M224.000000,408.902893 
	C224.000000,410.837585 224.000000,412.286865 224.000000,413.852478 
	C187.882843,413.852478 152.264572,413.852478 116.323044,413.852478 
	C116.323044,408.459351 116.323044,403.050690 116.323044,397.318909 
	C151.888962,397.318909 187.626312,397.318909 224.000000,397.318909 
	C224.000000,400.898865 224.000000,404.658142 224.000000,408.902893 
z"/>
<path fill="#000000" opacity="1.000000" stroke="none" 
	d="
M240.000000,405.986542 
	C240.000000,402.856262 240.000000,400.212524 240.000000,397.285400 
	C245.620041,397.285400 251.024872,397.285400 256.716949,397.285400 
	C256.716949,402.624847 256.716949,408.029572 256.716949,413.719299 
	C251.371902,413.719299 245.966904,413.719299 240.000000,413.719299 
	C240.000000,411.341156 240.000000,408.907104 240.000000,405.986542 
z"/>
<path fill="#FFFFFF" opacity="1.000000" stroke="none" 
	d="
M355.266205,364.306061 
	C359.813934,356.129120 364.130554,348.256073 368.582825,340.135681 
	C371.040680,340.135681 373.841125,340.135681 376.633850,340.135681 
	C381.907562,349.756927 386.998901,359.395325 392.472900,368.811249 
	C394.041290,371.509064 394.700562,373.508179 392.522186,376.037811 
	C391.613770,377.092651 391.201874,378.575043 390.496460,379.999939 
	C379.721039,379.999939 368.917664,379.719849 358.140259,380.126801 
	C353.290253,380.309967 353.701508,376.042236 351.703278,373.916931 
	C351.015259,373.185150 351.862885,370.703125 352.432587,369.178894 
	C353.038330,367.558105 354.146362,366.125031 355.266205,364.306061 
z"/>
<path fill="#FFFFFF" opacity="1.000000" stroke="none" 
	d="
M368.422394,320.914215 
	C365.105347,318.071869 363.483521,315.217712 366.111603,311.388092 
	C368.254272,308.265747 371.043549,306.150146 374.871643,307.456360 
	C378.609528,308.731842 380.520905,311.813995 379.949951,315.822754 
	C379.256042,320.694824 375.072571,323.807495 368.422394,320.914215 
z"/>
<path fill="#FFFFFF" opacity="1.000000" stroke="none" 
	d="
M331.172150,381.375854 
	C332.999329,381.935516 334.733582,382.534698 336.050629,383.633789 
	C338.617828,385.776184 340.457367,389.023468 338.385742,391.788544 
	C336.630798,394.130981 333.201172,396.390594 330.421906,396.506195 
	C326.689209,396.661530 324.127045,393.672913 323.983429,389.404602 
	C323.849731,385.431671 325.536499,382.911621 329.467285,381.998566 
	C329.943695,381.887909 330.416321,381.760834 331.172150,381.375854 
z"/>
<path fill="#FFFFFF" opacity="1.000000" stroke="none" 
	d="
M416.149231,396.371216 
	C411.560303,397.866760 408.697906,395.296387 407.236938,392.078491 
	C406.340332,390.103546 407.004333,386.901489 407.989380,384.709747 
	C409.551086,381.234924 413.502625,381.052246 416.108246,382.330566 
	C418.404968,383.457336 420.513702,386.436310 421.205322,389.001801 
	C422.113007,392.368713 419.665253,394.815491 416.149231,396.371216 
z"/>
</svg>