<?xml version="1.0" standalone="no"?>
<!DOCTYPE svg PUBLIC "-//W3C//DTD SVG 20010904//EN"
 "http://www.w3.org/TR/2001/REC-SVG-20010904/DTD/svg10.dtd">
<svg version="1.0" xmlns="http://www.w3.org/2000/svg"
 width="512.000000pt" height="512.000000pt" viewBox="0 0 512.000000 512.000000"
 preserveAspectRatio="xMidYMid meet">

<g transform="translate(0.000000,512.000000) scale(0.100000,-0.100000)"
fill="#000000" stroke="none">
<path d="M639 5082 c-179 -94 -179 -343 0 -434 44 -23 68 -28 123 -28 l68 0 0
-164 0 -164 -135 -4 c-132 -3 -135 -4 -162 -31 l-28 -27 -3 -219 -3 -218 -79
-72 c-143 -129 -270 -315 -331 -482 -62 -170 -73 -237 -73 -434 0 -163 2 -190
27 -288 66 -265 211 -493 425 -669 l32 -27 0 -710 0 -711 28 -30 27 -31 924
-2 924 -2 17 -52 c32 -100 111 -187 218 -239 52 -26 66 -29 167 -29 103 0 114
2 177 32 108 51 168 121 226 265 l11 26 693 0 c381 0 796 1 921 1 l228 1 24
25 25 24 0 1925 0 1924 -31 26 c-30 25 -35 26 -165 26 l-134 0 0 54 c0 38 -6
61 -19 77 l-19 24 -1544 5 -1543 5 0 80 0 80 80 6 c88 6 125 21 175 71 47 47
70 103 70 173 0 71 -23 126 -70 172 -73 71 -44 68 -661 71 l-556 2 -54 -28z
m1157 -165 c30 -36 30 -68 0 -104 l-24 -28 -509 -3 c-279 -1 -518 0 -530 3
-76 19 -85 125 -12 154 15 6 221 9 537 8 l514 -2 24 -28z m-304 -682 l3 -386
81 -28 c276 -97 495 -289 620 -543 15 -32 25 -61 21 -64 -15 -15 -170 26 -280
75 -162 72 -247 92 -382 92 -168 0 -230 -16 -490 -130 -53 -23 -73 -26 -175
-26 -128 0 -142 4 -300 76 -58 26 -135 54 -172 61 -38 7 -68 16 -68 19 0 4 21
35 47 70 118 162 305 298 498 365 44 15 84 31 90 36 6 5 9 150 8 380 -1 204 0
375 3 380 3 4 115 8 249 8 l245 0 2 -385z m1234 -1678 l1 -1727 -867 0 -866 0
-2 381 -1 382 52 -6 c198 -23 354 -16 507 23 354 91 660 347 814 680 39 85 79
215 97 310 15 85 15 327 0 410 -76 409 -340 748 -715 921 l-96 44 0 151 c0 83
3 154 7 157 3 4 245 6 537 5 l531 -3 1 -1728z m1894 3 l0 -1730 -865 0 -865 0
0 1730 0 1730 865 0 865 0 0 -1730z m-3792 1490 l-3 -81 -77 -33 -78 -34 0
114 0 114 80 0 81 0 -3 -80z m4120 -1737 l2 -1813 -944 0 -943 0 -7 -70 c-8
-95 -30 -142 -86 -193 -74 -67 -151 -82 -245 -50 -100 34 -165 136 -165 260
l0 53 -945 0 -945 0 0 605 c0 333 2 605 4 605 2 0 38 -16 80 -35 l76 -36 0
-467 c0 -371 3 -472 13 -486 13 -17 97 -18 1956 -18 1922 0 1944 0 1963 20 20
19 20 40 20 1723 0 937 2 1707 5 1712 2 4 39 7 81 5 l77 -3 3 -1812z m-3243
881 c33 -8 110 -37 172 -64 131 -59 216 -80 324 -83 61 -2 80 -6 84 -17 28
-97 33 -283 10 -411 -82 -471 -478 -835 -952 -877 -442 -38 -858 192 -1053
583 -123 246 -148 510 -73 765 14 47 28 93 30 103 11 37 147 12 288 -54 141
-65 191 -80 300 -86 136 -8 215 8 365 71 160 68 187 77 274 85 84 9 149 4 231
-15z"/>
<path d="M1320 1462 c-111 -2 -127 -5 -147 -24 -32 -30 -31 -87 2 -118 l24
-23 662 1 661 1 24 22 c32 30 33 87 1 117 -23 22 -24 22 -563 24 -296 2 -595
2 -664 0z"/>
<path d="M1215 1133 c-64 -16 -88 -98 -41 -142 l24 -23 662 0 661 0 25 22 c34
33 33 88 -2 121 l-26 24 -641 1 c-353 1 -651 0 -662 -3z"/>
<path d="M3267 4130 c-248 -7 -227 18 -227 -274 1 -232 2 -241 47 -264 31 -17
1305 -17 1336 0 45 23 46 32 47 266 l0 223 -25 24 c-22 23 -31 25 -127 25 -57
1 -274 2 -483 3 -209 1 -465 0 -568 -3z m1033 -271 l0 -109 -545 0 -545 0 0
109 0 108 545 1 545 0 0 -109z"/>
<path d="M3105 3408 c-68 -37 -57 -135 17 -153 13 -3 308 -4 656 -3 l634 3 19
24 c19 23 25 65 13 96 -17 44 -27 45 -691 45 -435 -1 -634 -4 -648 -12z"/>
<path d="M3105 3079 c-41 -23 -56 -68 -39 -114 17 -44 27 -45 689 -45 662 0
672 1 689 45 12 31 6 73 -13 96 l-19 24 -644 2 c-455 2 -649 -1 -663 -8z"/>
<path d="M3105 2748 c-41 -22 -56 -67 -39 -113 17 -43 39 -45 509 -45 l447 0
29 29 c38 38 38 74 0 112 l-29 29 -449 0 c-305 -1 -454 -4 -468 -12z"/>
<path d="M3668 2261 c-48 -31 -97 -93 -129 -165 l-19 -44 -102 1 c-76 0 -114
-5 -145 -17 -48 -20 -99 -73 -109 -112 -12 -48 3 -141 32 -193 38 -71 130
-177 203 -235 63 -51 70 -63 74 -131 l2 -40 -65 1 c-36 1 -100 6 -143 11 -81
9 -97 4 -97 -29 0 -29 58 -86 108 -105 34 -13 73 -18 143 -18 l97 1 31 -63
c35 -71 90 -137 135 -160 39 -20 123 -20 162 0 98 51 179 217 218 448 5 26 17
45 46 67 21 18 44 32 49 32 16 0 59 -74 69 -117 12 -50 64 -137 85 -141 27 -5
57 55 57 114 0 66 -20 122 -70 195 l-40 59 36 50 c86 119 98 246 31 318 -77
83 -246 89 -465 17 -101 -34 -103 -34 -145 -18 -23 9 -46 20 -51 24 -14 12 14
69 59 119 22 25 46 55 53 68 6 12 17 30 24 41 35 57 -56 72 -134 22z m-200
-349 c10 -7 10 -25 2 -83 -5 -41 -13 -100 -16 -133 l-6 -58 -35 33 c-87 84
-137 197 -100 227 24 20 130 29 155 14z m732 -5 c44 -22 40 -77 -10 -145 l-30
-42 -54 43 c-29 24 -78 59 -109 78 -31 19 -57 37 -57 40 0 10 131 37 185 38
28 0 61 -5 75 -12z m-454 -86 c95 -45 237 -134 294 -182 l24 -21 -24 -19
c-126 -100 -409 -254 -424 -231 -12 19 -28 254 -22 321 14 163 18 181 35 181
9 0 62 -22 117 -49z m158 -508 c-24 -101 -102 -233 -139 -233 -26 0 -105 103
-105 138 0 5 39 26 88 46 48 20 101 45 117 56 40 26 47 25 39 -7z"/>
<path d="M3693 1710 c-40 -24 -53 -48 -53 -100 0 -57 50 -110 104 -110 49 0
92 23 111 60 55 106 -60 213 -162 150z"/>
<path d="M3825 2205 c-54 -53 -16 -145 60 -145 80 0 117 95 59 148 -35 30 -87
30 -119 -3z"/>
<path d="M3189 1521 c-46 -46 -34 -109 25 -138 29 -14 39 -14 66 -3 63 26 76
108 23 150 -37 29 -79 26 -114 -9z"/>
<path d="M4099 1311 c-44 -45 -35 -107 21 -136 92 -48 174 81 93 145 -37 29
-79 26 -114 -9z"/>
<path d="M1490 2860 c-41 -41 -10 -110 48 -110 33 0 45 8 60 37 34 63 -57 124
-108 73z"/>
<path d="M465 2846 c-70 -31 -125 -115 -125 -191 0 -110 100 -205 216 -205 48
0 128 46 160 91 50 72 44 182 -14 251 -51 61 -164 86 -237 54z m131 -147 c37
-41 7 -109 -48 -109 -57 0 -91 77 -50 112 34 31 68 30 98 -3z"/>
<path d="M1860 2788 c-24 -13 -57 -40 -74 -61 -26 -32 -31 -49 -34 -105 -3
-56 0 -74 20 -112 88 -164 338 -130 378 51 38 169 -137 305 -290 227z m143
-140 c24 -28 21 -60 -7 -87 -31 -29 -73 -25 -99 11 -25 34 -17 72 21 92 32 18
60 12 85 -16z"/>
<path d="M970 2742 c-75 -24 -60 -132 18 -132 47 0 73 40 59 92 -7 27 -49 49
-77 40z"/>
<path d="M1065 2529 c-88 -20 -165 -86 -195 -166 -51 -138 3 -278 131 -342
110 -55 233 -36 318 50 129 131 88 367 -78 437 -58 25 -125 33 -176 21z m107
-138 c87 -33 114 -147 52 -221 -75 -88 -220 -39 -232 78 -10 106 83 180 180
143z"/>
<path d="M1630 2240 c-43 -43 -14 -110 47 -110 37 0 63 27 63 67 0 57 -69 84
-110 43z"/>
</g>
</svg>
