<?xml version="1.0" encoding="utf-8"?>
<!-- Svg Vector Icons : http://www.onlinewebfonts.com/icon -->
<!DOCTYPE svg PUBLIC "-//W3C//DTD SVG 1.1//EN" "http://www.w3.org/Graphics/SVG/1.1/DTD/svg11.dtd">
<svg version="1.1" xmlns="http://www.w3.org/2000/svg" xmlns:xlink="http://www.w3.org/1999/xlink" x="0px" y="0px" viewBox="0 0 256 256" enable-background="new 0 0 256 256" xml:space="preserve">
<metadata> Svg Vector Icons : http://www.onlinewebfonts.com/icon </metadata>
<g><g><g><path fill="#000000" d="M22.8,78.8c-5.2,1.6-8.8,4.6-11.3,9.4L10,91v37v37l1.5,2.8c2,3.8,4.2,6,7.8,8l3.1,1.7H128h105.5l3.2-1.7c3.5-1.8,5.8-4.2,7.9-8.2c1.4-2.6,1.4-2.6,1.4-39.6V91l-1.7-3.1c-1.9-3.7-4.2-5.9-8-7.8l-2.8-1.5l-104.6-0.1C71.4,78.4,23.6,78.6,22.8,78.8z M233.9,90.6l2.4,2.4l-0.1,35.2l-0.2,35.2l-2.1,2l-2,2.1l-103.7,0.2l-103.7,0.1l-2.4-2.4l-2.4-2.4v-34.7c0-38-0.1-36.8,3.7-39.1c1.5-0.9,10.5-1,104.9-1.1h103.2L233.9,90.6z"/><path fill="#000000" d="M49.9,119.5c0.2,2.2,0.5,4.3,0.6,4.7c0.4,1.1,0.4,1.1-3.5-1.1c-4.1-2.2-4.8-2.3-5.5-0.3c-1.7,4.5-1.7,4.4,3.1,5.6l4.5,1.1l-3.4,3.4l-3.3,3.4l2.5,2.2c1.4,1.1,2.6,2.1,2.8,2.1s1.4-1.8,2.7-4c2.7-4.6,2.3-4.7,5.6,1.1l1.7,3l2.8-1.9l2.8-1.9l-2.1-2.3c-1.1-1.2-2.6-2.9-3.2-3.5l-1.1-1.4l4.4-0.8c4.9-0.8,5-1.1,3.7-5c-0.4-1.2-0.8-2.2-0.9-2.3c-0.1-0.1-2.1,0.7-4.4,1.7c-2.3,1.1-4.3,1.9-4.4,1.9c-0.1,0,0-2.1,0.2-4.7l0.4-4.7h-3.2h-3.2L49.9,119.5z"/><path fill="#000000" d="M88.3,120.3l0.3,4.6l-3.7-1.8c-2-1.1-3.9-1.9-4.2-1.9c-0.6,0-2.7,5.6-2.4,6c0.1,0.1,1.9,0.6,4.1,1.1c2.2,0.5,4.1,1.1,4.3,1.3c0.2,0.2-1.1,1.8-2.9,3.7l-3.2,3.3l2.1,1.6c1.1,0.8,2.4,1.7,2.8,1.9c0.4,0.3,1.6-1.1,3.2-3.7l2.5-4l2.3,3.7c1.2,2.1,2.6,3.8,2.9,3.8c0.7,0,4.9-2.7,4.9-3.1c0-0.2-1.3-1.8-2.9-3.6c-1.6-1.8-2.7-3.4-2.6-3.6c0.1-0.2,2.2-0.6,4.5-1c4.5-0.7,4.6-0.9,2.6-5.5l-0.7-1.7l-4.2,1.9c-2.4,1-4.4,1.8-4.4,1.8s0.1-1.5,0.3-3.3c0.9-6.2,1-6-2.6-6H88L88.3,120.3z"/><path fill="#000000" d="M118,138v5h10h10v-5v-5h-10h-10V138z"/><path fill="#000000" d="M152.9,138v5h10h10v-5v-5h-10h-10V138z"/><path fill="#000000" d="M187.8,138v5h10h10v-5v-5h-10h-10V138z"/></g></g></g>
</svg>